g NewMesh_tris_143
v 0.1540737 -2.630345 0.06301498
v 0.1544881 -2.63068 2.020924
v 1.706483 -2.630753 2.426572
v 0.1552973 -2.769076 2.801926
v -0.8736234 -2.780031 3.051538
v 0.3229246 -2.630347 -0.1058731
v 0.1541476 -2.630342 -0.06480503
v -0.3726964 -2.630342 0.06309032
v -1.79829 -2.630343 0.4100695
v 1.167471 -2.617536 -0.2489433
v 1.243784 -2.610425 0.06370163
v 1.412653 -2.607418 0.7600756
v 1.721672 -2.558388 2.022575
v 1.796912 -2.610526 2.336112
v 1.812267 -2.630209 2.400957
v 1.153286 -2.618858 -0.3070583
v -1.512835 -2.630429 1.733876
v -1.443736 -2.63049 2.019169
v -1.532045 -2.630421 1.654902
v -1.314369 -2.708612 2.558619
v -1.798175 -2.630348 0.5608797
v -1.828759 -2.630343 0.4351358
v -1.17844 -2.79075 3.125441
v -1.832826 -2.630343 0.418416
v 2.105943 -2.479764 -3.829507
v 2.105468 -2.63044 -1.888814
v 2.106997 -2.594657 0.06424618
v 0.1552029 -2.630403 -1.887987
v 0.1540737 -2.630345 0.06301498
v -1.797184 -2.630644 -1.885789
v -1.798553 -2.630339 0.06329346
v -3.751141 -2.63093 -1.883934
v -3.751678 -2.630339 0.06329346
v -3.75022 -2.630381 2.015837
v 2.108367 -2.569331 0.974349
v 0.9932988 -2.615151 1.180326
v 0.1543427 -2.630475 1.336105
v -1.404784 -2.630415 1.62557
v -1.797309 -2.63043 1.698811
v -3.513919 -2.630376 2.016192
v -3.750192 -2.627221 2.060019
v -3.804498 -2.62504 2.070185
v 2.106029 -2.269245 -4.085428
v 0.7043874 -2.557835 -3.831169
v 0.1529398 -2.590698 -3.730204
v 0.0275898 -2.591228 -3.70684
v -1.796267 -2.330997 -3.365556
v -2.373859 -2.352738 -3.258162
v -3.750614 -2.347857 -3.002085
v -4.773598 -2.395916 -2.812248
v 2.431009 -2.433536 -3.932673
v 2.449397 -2.460663 -3.830042
v 2.397421 -2.383986 -4.12016
v 2.393874 -2.365225 -4.140843
v 2.701091 -2.551168 -2.480641
v 2.810789 -2.575902 -1.888398
v 3.00826 -2.541432 -0.8369474
v 3.178577 -2.499907 0.06602669
v 3.295786 -2.472436 0.6885519
v 3.308156 -2.469547 0.7542515
v -4.749369 -2.492703 -2.429876
v -4.649963 -2.631023 -1.883499
v -4.811963 -2.405616 -2.773926
v -4.817431 -2.396524 -2.804095
v -4.508972 -2.630573 -1.128411
v -4.28645 -2.63034 0.06335354
v -4.202746 -2.630341 0.5138903
v -3.921139 -2.630371 2.015817
v -3.91155 -2.625335 2.067112
v -3.907384 -2.623147 2.089396
v -5.703925 -2.631143 -1.882991
v -5.704584 -2.630341 0.0635128
v -5.706025 -2.630375 2.015601
v -7.653952 -2.560013 -1.882879
v -7.654803 -2.63055 0.06497765
v -7.65776 -2.630415 2.018539
v -5.19834 -2.503306 -2.387994
v -5.112168 -2.631075 -1.883276
v -4.90825 -2.63045 -0.7303638
v -4.767857 -2.63034 0.0634079
v -4.615953 -2.630346 0.9266663
v -8.416175 -2.493278 -1.122091
v -8.207886 -2.562141 0.06558704
v -8.126143 -2.614665 0.5366726
v -7.867095 -2.62336 2.01875
v -7.836005 -2.641985 2.197303
v -5.211268 -2.491895 -2.425014
v -5.70377 -2.497398 -2.337951
v -7.520036 -2.52552 -2.016811
v -7.653954 -2.527603 -1.993124
v -7.75998 -2.511165 -1.974488
v -8.279834 -2.430573 -1.883122
v -8.540088 -2.382224 -1.83739
v -5.20482 -2.491823 -2.426155
v -4.427799 -2.630351 1.98571
v -4.598125 -2.630349 2.015734
v -5.373446 -2.616892 2.152867
v -5.706181 -2.611133 2.211719
v -5.943498 -2.661756 2.253922
v -7.626147 -2.701232 2.554593
v -7.658163 -2.701987 2.560314
v -7.770168 -2.697032 2.58013
v 4.059057 -2.4794 -1.887664
v 4.06194 -2.421903 0.06748486
v 2.105468 -2.63044 -1.888814
v 2.106997 -2.594657 0.06424618
v 1.071056 -2.559067 -2.799366
v 1.231808 -2.630386 -1.888442
v 1.3612 -2.630385 -1.144382
v 1.572577 -2.604418 0.06390953
v 1.652066 -2.603011 0.5201492
v 4.414532 -2.427489 -2.242212
v 4.477414 -2.471191 -1.887185
v 4.707024 -2.428253 -0.578023
v 4.821552 -2.522435 0.06814384
v 4.403643 -2.570429 0.4355087
v 4.062389 -2.542019 0.4948616
v 3.545793 -2.453242 0.5845604
v 2.108155 -2.573222 0.833827
v 1.765769 -2.587394 0.8933496
v 1.718853 -2.589336 0.9015064
v 4.872994 -2.609507 0.3538761
v 4.068967 -2.372374 -3.799839
v 4.06164 -2.373109 -3.798549
v 4.02012 -2.376708 -3.791351
v 2.105825 -2.508321 -3.456422
v 1.651815 -2.514411 -3.37738
v 0.9891016 -2.553805 -3.262997
v 4.140603 -2.365184 -3.812447

vn -0.01659075 0.9998193 -0.009280354
vn -0.002779441 0.9886575 0.150162
vn 0.07263204 0.9714696 0.2253333
vn 0.02414314 0.9795409 0.1904252
vn 0.0566525 0.9812666 0.1737584
vn -0.0215831 0.9995459 -0.00554231
vn -0.01412462 0.9996927 -0.004645365
vn -0.01211498 0.9998681 -0.006776744
vn 0.008790385 0.9992314 0.01395523
vn -0.02824304 0.9990997 0.01236621
vn -0.02034874 0.9994868 0.01361868
vn -0.01601907 0.995466 0.07386445
vn 0.05932302 0.9760603 0.2050512
vn 0.07309752 0.971799 0.2238353
vn 0.07561505 0.9706347 0.2270797
vn -0.02971045 0.9990277 0.01213339
vn 0.03993153 0.9962708 0.06587851
vn 0.04009159 0.9943969 0.09163343
vn 0.03809229 0.9964476 0.06279131
vn 0.05327181 0.9881391 0.1283854
vn 0.01261325 0.9988971 0.02002424
vn 0.009411691 0.999222 0.01343487
vn 0.06712094 0.9815638 0.1670025
vn 0.008986003 0.9992652 0.01255872
vn -0.0584554 0.8919595 0.4483204
vn -0.07428698 0.9966599 0.03391992
vn -0.02332562 0.9992234 0.03175813
vn 0.02105152 0.9978871 0.06146673
vn -0.01659075 0.9998193 -0.009280354
vn 0.04565888 0.9898274 0.134748
vn 0 1 0
vn 0.01792225 0.9803205 0.1965972
vn 0 1 0
vn 0.04859236 0.9986306 -0.01938007
vn 0.02222396 0.987011 0.1185933
vn -0.01160622 0.9931967 0.09929489
vn -0.007610285 0.9925616 0.09439315
vn 0.03626774 0.9965008 0.06100668
vn 0.04145849 0.9963749 0.06581768
vn 0.04871056 0.9982719 -0.007514614
vn 0.04953134 0.9981674 -0.01471231
vn 0.04471307 0.9979689 -0.01319362
vn -0.05557287 0.8938223 0.4447833
vn -0.05841462 0.9170356 0.3926396
vn -0.05424578 0.9306143 0.3545621
vn -0.05171615 0.9309449 0.3555726
vn 0.07606747 0.965857 0.2395348
vn 0.06567372 0.9647779 0.250249
vn 0.03544536 0.9673964 0.2463569
vn 0.03843221 0.9658634 0.2543904
vn -0.03327018 0.8985926 0.4298727
vn -0.04313494 0.9001997 0.429831
vn -0.0152493 0.8956568 0.429949
vn -0.01550339 0.8957881 0.4298382
vn -0.04290345 0.9790672 0.1280409
vn -0.06869902 0.9962958 0.04775915
vn -0.0397085 0.9975741 0.05045392
vn 0.009901942 0.9938879 0.09093244
vn 0.04465492 0.984958 0.1567326
vn 0.04832272 0.9840155 0.1636771
vn 0.03229765 0.970372 0.236981
vn 0.02315422 0.9770504 0.2110603
vn 0.03805516 0.9661666 0.2533029
vn 0.03840511 0.9658151 0.2545172
vn 0.01380638 0.9879344 0.1231645
vn 0.002002518 0.9999853 0.002002304
vn -0.009401457 0.9997227 -0.00628937
vn 0.04078611 0.9986453 -0.02006783
vn 0.03990258 0.9980155 -0.01398496
vn 0.03951874 0.9977419 -0.01134233
vn 0.02928923 0.9732158 0.2280199
vn 0.00731289 0.9999465 0.007312109
vn -0.04073381 0.9987984 -0.02725003
vn 0.1325467 0.9637021 0.2317538
vn 0.1041749 0.9929734 0.05613675
vn 0.005610835 0.9974818 0.0707012
vn 0.03425797 0.9692202 0.2423509
vn 0.02584467 0.9753688 0.2184978
vn 0.01163786 0.9919459 0.08447523
vn 0.003805202 0.9999722 0.003804795
vn -0.01801379 0.9994686 -0.01205084
vn 0.124843 0.9721552 0.1911841
vn 0.1066179 0.9908196 0.07642362
vn 0.09667621 0.9917796 0.07537472
vn 0.0128504 0.9964671 0.07769559
vn 0.01234749 0.9958393 0.08115676
vn 0.03469666 0.9687692 0.2439035
vn 0.03444357 0.9681768 0.2455027
vn 0.1269753 0.9628718 0.2366439
vn 0.1324604 0.9623148 0.236601
vn 0.1319786 0.9629273 0.2344036
vn 0.1296167 0.96593 0.2236295
vn 0.1281493 0.967202 0.218404
vn 0.03469998 0.968777 0.2438825
vn 0.01689909 0.9987098 -0.02180828
vn 0.0098666 0.9987034 -0.02279195
vn -0.02907928 0.9970872 -0.009741559
vn -0.04579312 0.9963937 -0.0041409
vn -0.04099404 0.9961627 0.001390893
vn -0.008429432 0.9919263 0.1067892
vn -0.00780982 0.9918457 0.1087946
vn -0.001280556 0.9917761 0.1088589
vn -0.05880954 0.9956512 0.07225161
vn 0.03729332 0.9894896 0.1397132
vn -0.07428698 0.9966599 0.03391992
vn -0.02332562 0.9992234 0.03175813
vn -0.01627664 0.9481546 0.2430929
vn -0.03157827 0.9972097 0.04626004
vn -0.0522815 0.997865 0.01744323
vn -0.02148262 0.9993864 0.02052791
vn -0.01853841 0.9967616 0.05934593
vn -0.05425129 0.9920201 0.09850023
vn -0.04890149 0.994252 0.0881687
vn 0.02082811 0.9893656 0.1419942
vn 0.03233237 0.9859105 0.1616242
vn 0.04785245 0.981512 0.1750189
vn 0.0521559 0.9820871 0.1693035
vn 0.04718673 0.9851133 0.1605857
vn 0.01519098 0.9888967 0.1051857
vn 0.004617199 0.9908459 0.09890508
vn 0.003168304 0.991113 0.09804445
vn 0.04193357 0.9807212 0.1828797
vn 0.02707057 0.9399778 0.3379896
vn 0.02724792 0.9398769 0.3382869
vn 0.02659399 0.940109 0.3364676
vn -0.06149761 0.9120788 0.3686891
vn -0.03994712 0.9166182 0.3582654
vn -0.0352197 0.9326842 0.313605
vn 0.0253367 0.940965 0.3350822

vt 0.0398315 0.3692752
vt 0.3992905 0.2892176
vt 0.5427972 0.53426
vt 0.5427972 0.2577823
vt 0.5427971 0.07373603
vt 0.01628157 0.4047281
vt 0.0162815 0.3745202
vt 0.0162816 0.2803391
vt 0.01628155 0.02541064
vt 0.02760815 0.5531501
vt 0.08854199 0.5531501
vt 0.2239134 0.5531501
vt 0.469256 0.5531501
vt 0.5301991 0.5531501
vt 0.5427971 0.5531501
vt 0.01628161 0.5531501
vt 0.2723486 0.01923645
vt 0.3278006 0.0192365
vt 0.2569748 0.0192365
vt 0.4326386 0.01923649
vt 0.04400361 0.01923647
vt 0.019535 0.0192365
vt 0.5427971 0.01923645
vt 0.01628155 0.01923645
vt 0.589584 0.4694092
vt 0.7508725 0.4466241
vt 0.9118865 0.4236378
vt 0.7208905 0.323539
vt 0.8819562 0.3005905
vt 0.6909084 0.2004538
vt 0.8519741 0.1775054
vt 0.6609264 0.0773687
vt 0.8219922 0.05442027
vt 0.9830579 0.03147183
vt 0.9866852 0.4129482
vt 0.9866852 0.3403629
vt 0.9866852 0.2856689
vt 0.9866852 0.1839173
vt 0.9866852 0.1583119
vt 0.9866852 0.0463632
vt 0.9866852 0.03095101
vt 0.9866852 0.02741652
vt 0.5681832 0.4721915
vt 0.5681832 0.3811675
vt 0.5681832 0.3452437
vt 0.5681832 0.3370657
vt 0.5681832 0.2175587
vt 0.5681832 0.1799438
vt 0.5681832 0.09022322
vt 0.5681832 0.0235728
vt 0.5860304 0.4910047
vt 0.594822 0.4910047
vt 0.56997 0.4910047
vt 0.5681832 0.4910047
vt 0.7108445 0.4910047
vt 0.7616181 0.4910047
vt 0.8512882 0.4910047
vt 0.9281834 0.4910047
vt 0.9811004 0.4910047
vt 0.9866852 0.4910047
vt 0.6002738 0.02071537
vt 0.6471264 0.0207154
vt 0.5707715 0.02071541
vt 0.5681832 0.02071537
vt 0.71178 0.02071539
vt 0.813782 0.02071537
vt 0.8522466 0.0207154
vt 0.9804378 0.02071541
vt 0.9847931 0.02071537
vt 0.9866852 0.02071539
vt 0.4523258 0.4998107
vt 0.3995965 0.2709745
vt 0.3468672 0.04213818
vt 0.1535464 0.5402236
vt 0.1010602 0.3114015
vt 0.04833087 0.08256524
vt 0.5427918 0.5485424
vt 0.5427919 0.48756
vt 0.5427919 0.3477806
vt 0.5427919 0.2515833
vt 0.542792 0.1472268
vt 0.01627666 0.466704
vt 0.01627669 0.3228376
vt 0.01627675 0.2659519
vt 0.01627667 0.08690127
vt 0.01627669 0.06535348
vt 0.5417756 0.5531511
vt 0.4641672 0.5531511
vt 0.1775433 0.553151
vt 0.1564163 0.5531511
vt 0.1396515 0.553151
vt 0.05745313 0.5531511
vt 0.01627662 0.553151
vt 0.5427918 0.5531511
vt 0.5427919 0.01923757
vt 0.5159784 0.01923757
vt 0.3939115 0.01923755
vt 0.3415258 0.01923755
vt 0.3042671 0.0192376
vt 0.03902544 0.01923762
vt 0.0339786 0.01923757
vt 0.01627673 0.01923758
vt 0.5795542 0.724185
vt 0.6296963 0.9372266
vt 0.8679895 0.6869817
vt 0.9181836 0.9000192
vt 0.9970395 0.5672572
vt 0.9970395 0.6703287
vt 0.9970395 0.7540537
vt 0.9970395 0.8898445
vt 0.9970395 0.9409916
vt 0.5178726 0.6922005
vt 0.5178726 0.7321437
vt 0.5178726 0.8790987
vt 0.5178726 0.9516684
vt 0.5891412 0.9837205
vt 0.6409589 0.9837206
vt 0.7192385 0.9837206
vt 0.9378864 0.9837206
vt 0.9899108 0.9837205
vt 0.9970395 0.9837205
vt 0.5178726 0.9837206
vt 0.5287856 0.5149107
vt 0.5299018 0.5149107
vt 0.536218 0.5149107
vt 0.8270783 0.5149107
vt 0.896197 0.5149107
vt 0.9970395 0.5149107
vt 0.5178726 0.5149107




usemtl TI_Puddles_Decals_01
usemap TI_Puddles_Decals_01
f 5/5/5 4/4/4 2/2/2
f 2/2/2 4/4/4 3/3/3
f 2/2/2 3/3/3 14/14/14
f 14/14/14 3/3/3 15/15/15
f 20/20/20 23/23/23 5/5/5
f 20/20/20 5/5/5 18/18/18
f 18/18/18 5/5/5 2/2/2
f 18/18/18 2/2/2 17/17/17
f 17/17/17 2/2/2 1/1/1
f 17/17/17 1/1/1 8/8/8
f 8/8/8 1/1/1 7/7/7
f 19/19/19 17/17/17 8/8/8
f 19/19/19 8/8/8 21/21/21
f 21/21/21 8/8/8 9/9/9
f 21/21/21 9/9/9 22/22/22
f 22/22/22 9/9/9 24/24/24
f 12/12/12 11/11/11 1/1/1
f 1/1/1 11/11/11 10/10/10
f 1/1/1 10/10/10 6/6/6
f 6/6/6 10/10/10 16/16/16
f 62/62/62 65/65/65 32/32/32
f 62/62/62 32/32/32 61/61/61
f 61/61/61 32/32/32 49/49/49
f 61/61/61 49/49/49 63/63/63
f 63/63/63 49/49/49 50/50/50
f 63/63/63 50/50/50 64/64/64
f 69/69/69 70/70/70 42/42/42
f 69/69/69 42/42/42 68/68/68
f 68/68/68 42/42/42 34/34/34
f 68/68/68 34/34/34 67/67/67
f 67/67/67 34/34/34 33/33/33
f 67/67/67 33/33/33 66/66/66
f 66/66/66 33/33/33 65/65/65
f 46/46/46 47/47/47 30/30/30
f 46/46/46 30/30/30 45/45/45
f 45/45/45 30/30/30 28/28/28
f 45/45/45 28/28/28 44/44/44
f 44/44/44 28/28/28 25/25/25
f 44/44/44 25/25/25 43/43/43
f 43/43/43 25/25/25 53/53/53
f 43/43/43 53/53/53 54/54/54
f 38/38/38 37/37/37 29/29/29
f 29/29/29 37/37/37 36/36/36
f 29/29/29 36/36/36 27/27/27
f 27/27/27 36/36/36 35/35/35
f 27/27/27 35/35/35 59/59/59
f 59/59/59 35/35/35 60/60/60
f 89/89/89 90/90/90 74/74/74
f 89/89/89 74/74/74 88/88/88
f 88/88/88 74/74/74 71/71/71
f 88/88/88 71/71/71 87/87/87
f 87/87/87 71/71/71 77/77/77
f 87/87/87 77/77/77 94/94/94
f 92/92/92 93/93/93 82/82/82
f 92/92/92 82/82/82 74/74/74
f 74/74/74 82/82/82 75/75/75
f 74/74/74 75/75/75 71/71/71
f 71/71/71 75/75/75 72/72/72
f 71/71/71 72/72/72 79/79/79
f 79/79/79 72/72/72 80/80/80
f 84/84/84 85/85/85 76/76/76
f 76/76/76 85/85/85 86/86/86
f 76/76/76 86/86/86 101/101/101
f 101/101/101 86/86/86 102/102/102
f 127/127/127 128/128/128 107/107/107
f 127/127/127 107/107/107 126/126/126
f 126/126/126 107/107/107 105/105/105
f 126/126/126 105/105/105 125/125/125
f 125/125/125 105/105/105 124/124/124
f 117/117/117 116/116/116 104/104/104
f 117/117/117 104/104/104 118/118/118
f 118/118/118 104/104/104 106/106/106
f 118/118/118 106/106/106 119/119/119
f 119/119/119 106/106/106 111/111/111
f 119/119/119 111/111/111 120/120/120
f 120/120/120 111/111/111 121/121/121
f 114/114/114 113/113/113 103/103/103
f 103/103/103 113/113/113 112/112/112
f 103/103/103 112/112/112 123/123/123
f 123/123/123 112/112/112 129/129/129
f 114/114/114 103/103/103 104/104/104
f 114/114/114 104/104/104 115/115/115
f 115/115/115 104/104/104 116/116/116
f 115/115/115 116/116/116 122/122/122
f 6/6/6 7/7/7 1/1/1
f 12/12/12 1/1/1 2/2/2
f 12/12/12 2/2/2 13/13/13
f 13/13/13 2/2/2 14/14/14
f 52/52/52 51/51/51 25/25/25
f 52/52/52 25/25/25 55/55/55
f 55/55/55 25/25/25 26/26/26
f 55/55/55 26/26/26 56/56/56
f 56/56/56 26/26/26 57/57/57
f 32/32/32 65/65/65 33/33/33
f 32/32/32 33/33/33 30/30/30
f 30/30/30 33/33/33 31/31/31
f 30/30/30 31/31/31 28/28/28
f 28/28/28 31/31/31 29/29/29
f 28/28/28 29/29/29 26/26/26
f 26/26/26 29/29/29 27/27/27
f 26/26/26 27/27/27 57/57/57
f 57/57/57 27/27/27 58/58/58
f 58/58/58 27/27/27 59/59/59
f 48/48/48 49/49/49 32/32/32
f 48/48/48 32/32/32 47/47/47
f 47/47/47 32/32/32 30/30/30
f 38/38/38 29/29/29 31/31/31
f 38/38/38 31/31/31 39/39/39
f 39/39/39 31/31/31 34/34/34
f 39/39/39 34/34/34 40/40/40
f 40/40/40 34/34/34 41/41/41
f 34/34/34 42/42/42 41/41/41
f 25/25/25 51/51/51 53/53/53
f 71/71/71 79/79/79 78/78/78
f 71/71/71 78/78/78 77/77/77
f 83/83/83 84/84/84 75/75/75
f 75/75/75 84/84/84 76/76/76
f 75/75/75 76/76/76 72/72/72
f 72/72/72 76/76/76 73/73/73
f 72/72/72 73/73/73 81/81/81
f 81/81/81 73/73/73 95/95/95
f 98/98/98 97/97/97 73/73/73
f 98/98/98 73/73/73 99/99/99
f 99/99/99 73/73/73 76/76/76
f 99/99/99 76/76/76 100/100/100
f 100/100/100 76/76/76 101/101/101
f 91/91/91 92/92/92 74/74/74
f 91/91/91 74/74/74 90/90/90
f 72/72/72 81/81/81 80/80/80
f 73/73/73 97/97/97 96/96/96
f 73/73/73 96/96/96 95/95/95
f 75/75/75 82/82/82 83/83/83
f 110/110/110 111/111/111 106/106/106
f 110/110/110 106/106/106 109/109/109
f 109/109/109 106/106/106 105/105/105
f 109/109/109 105/105/105 108/108/108
f 108/108/108 105/105/105 107/107/107
f 105/105/105 106/106/106 103/103/103
f 105/105/105 103/103/103 124/124/124
f 124/124/124 103/103/103 123/123/123
f 25/25/25 28/28/28 26/26/26
f 31/31/31 33/33/33 34/34/34
f 103/103/103 106/106/106 104/104/104

