g NewMesh_tris_163
v -0.1209035 -2.752537 -9.118979
v 0.02066422 -2.448103 -11.07036
v -0.1234164 -2.486347 -10.97491
v -0.4125109 -2.446508 -10.7811
v 0.1663136 -2.4004 -11.16675
v 0.2301364 -2.412432 -11.07034
v 0.870327 -2.440993 -10.11191
v 1.529725 -2.524829 -9.117429
v 1.555165 -2.520468 -9.079375
v 1.627922 -2.507996 -8.970545
v -1.264624 -2.375157 -9.888469
v -0.755795 -2.604191 -9.119175
v -1.280388 -2.368061 -9.912303
v -1.412261 -2.351072 -10.11115
v -0.1209221 -2.730966 -8.162881
v -0.5035267 -2.71436 -8.736047
v 0.03695107 -2.703823 -7.926718
v 0.04380465 -2.702644 -7.916466
v -0.1251359 -2.302093 -13.02608
v 0.4662118 -2.231854 -11.66133
v -0.1238732 -2.437649 -11.47155
v -1.20128 -2.157057 -13.89354
v -2.065986 -2.033584 -13.60862
v 0.01343393 -2.270395 -13.15776
v 0.05689144 -2.243732 -13.02609
v 0.01166773 -2.27148 -13.16311
v -0.1241217 -2.287936 -13.58178
v 0.4933898 -2.220757 -11.68857
v 0.4987273 -2.223821 -11.67183
v -0.3016062 -2.253391 -14.13621
v -0.3171802 -2.250367 -14.18486
v -1.941648 -2.094334 -13.05944
v -1.930218 -2.096518 -13.02376
v -1.963365 -2.090189 -13.12724
v -2.06611 -2.046587 -13.44877
v -1.493365 -2.277182 -11.6505
v -1.35427 -2.329618 -11.21799
v -2.112441 -2.018776 -13.59329
v -1.310771 -2.346019 -11.08274
v -1.953057 -2.092156 -13.09506
v -0.1215606 -2.252481 -14.97943
v -1.316078 -2.14696 -13.77809
v -0.06355858 -2.250275 -15.03749
v -0.02660751 -2.233604 -14.97962
v 0.5643034 -2.139931 -14.03164
v -0.1241069 -2.287726 -13.59003
v -0.5645967 -2.244548 -13.30352
v -0.8808546 -2.213651 -13.09781
v 0.5751925 -2.137594 -14.03863
v -0.09871244 -2.23365 -15.09197
v -0.1212568 -2.232907 -15.0774
v -0.2730384 -2.226617 -14.97925
v -1.548169 -2.077238 -14.14978
v -1.553041 -2.076669 -14.14661
v -11.83713 -5.362035 16.27059
v -11.83754 -5.448792 17.81377
v -12.84945 -5.36625 17.28243
v -11.20723 -5.371887 15.64161
v -11.83725 -5.30528 15.30907
v -12.48587 -5.236785 14.96733
v -10.58826 -5.453328 15.96906
v -10.74568 -5.461823 16.27056
v -10.75947 -5.462049 16.297
v -11.58231 -5.475539 17.87447
v -11.6127 -5.476038 17.93273
v -13.39076 -5.234661 16.07429
v -13.49354 -5.238625 16.27126
v -13.16972 -5.226139 15.65067
v -12.74558 -5.202149 14.83823
v -13.60045 -5.246769 16.4759
v -13.76815 -5.259547 16.79686
v -12.74202 -5.201948 14.8314
v -2.079033 -3.859984 0.6483746
v -1.086887 -3.547701 -0.3424988
v -1.079493 -3.730867 0.6492987
v -1.069252 -3.835807 1.593973
v -3.7086 -3.910456 0.3241825
v -3.705401 -3.944308 0.6469164
v -1.689673 -3.612493 -0.9255095
v -2.079993 -3.694722 -0.9210939
v -2.466865 -3.715236 -0.9168358
v -3.72038 -3.771438 -0.9022484
v -1.09276 -3.486753 -0.9322634
v -1.066715 -3.910279 1.95962
v -1.439364 -3.925265 1.963661
v -2.076777 -4.008437 1.970484
v -3.417893 -4.000764 1.98525
v -3.690739 -4.015106 1.988245
v -9.882556 -4.384593 10.41265
v -11.83773 -4.384392 8.460083
v -11.83889 -4.383935 10.41019
v -11.83733 -4.324135 8.193748
v -12.17331 -4.341528 8.460554
v -9.860388 -4.388932 10.41268
v -9.882542 -4.38824 10.43041
v -9.97086 -4.384617 10.50112
v -11.83785 -4.385152 11.99056
v -13.42367 -4.384071 10.04246
v -13.134 -4.383975 10.41133
v -13.45546 -4.375119 10.00434
v -12.56546 -4.384118 11.13794
v -11.89076 -4.385138 12.0008
v -13.71684 -4.301529 9.690897
v -11.87537 -4.38517 12.02049
v -9.330965 -4.425607 9.86022
v -9.273391 -4.445138 9.928625
v -9.88351 -4.384306 9.166025
v -11.03361 -4.340129 7.710739
v -10.43842 -4.384218 8.458565
v -11.05798 -4.338324 7.680128
v -11.11271 -4.314756 7.616531
v -10.1951 -4.384126 8.768593
v -9.267226 -4.447229 9.935949
v 9.647171 -7.600601 29.94223
v 7.692782 -7.517941 29.93961
v 10.50487 -7.681557 29.94326
v 9.648611 -7.688926 30.8911
v 8.669953 -7.434555 27.99138
v 7.692286 -7.472553 29.06855
v 10.50251 -7.560754 29.08577
v 10.717 -7.608509 29.28136
v 9.645155 -7.476518 28.309
v 8.951667 -7.397826 27.68115
v 9.294178 -7.446016 27.99165
v 9.478258 -7.458001 28.15796
v 10.92897 -7.655712 29.47465
v 8.41393 -7.409743 31.17241
v 8.659678 -7.491288 31.39616
v 7.693887 -7.45212 30.52447
v 6.965403 -7.513282 29.86929
v 7.042984 -7.517045 29.93937
v 7.385167 -7.481624 30.24617
v 8.952198 -7.588362 31.66249
v 9.642031 -3.217711 -5.208258
v 9.641408 -3.541584 -3.256144
v 7.692168 -3.198525 -5.208189
v 7.692623 -3.585567 -3.256063
v 5.741164 -3.003268 -5.20985
v 10.70271 -3.155015 -5.208743
v 10.81238 -3.277843 -4.429529
v 10.98014 -3.408033 -3.255865
v 11.05598 -3.487981 -2.71964
v 5.952309 -3.357913 -3.466306
v 5.981604 -3.402725 -3.256071
v 5.741303 -3.048324 -4.974398
v 6.19363 -3.63009 -1.755178
v 5.708328 -2.999657 -5.209887
v 5.712379 -3.004892 -5.181045
v 10.59114 -3.009084 -6.006358
v 10.40564 -3.026344 -5.973301
v 9.641956 -3.080552 -5.841596
v 8.070257 -3.120192 -5.586941
v 7.691893 -3.132939 -5.525239
v 5.792714 -2.997734 -5.261504
v 5.741142 -2.998182 -5.253373
v 5.734253 -2.997532 -5.252457
v 5.702849 -2.994571 -5.248279
v 11.12148 -3.570016 -2.254575
v 10.47505 -3.640968 -2.137259
v 9.641611 -3.749517 -1.981975
v 8.129836 -3.773912 -1.740558
v 7.693018 -3.793353 -1.667813
v 6.859986 -3.72386 -1.554097
v 6.234271 -3.671682 -1.468687

vn 0.04093042 0.9899184 0.1355968
vn -0.0536596 0.9793122 0.1937157
vn -0.04282655 0.9805049 0.1904104
vn -0.02551122 0.9812643 0.1816851
vn -0.05796858 0.9795969 0.1894125
vn -0.06313724 0.9782831 0.1944214
vn -0.04879474 0.9800051 0.1682698
vn -0.1210587 0.9722226 0.1867707
vn -0.12358 0.9720114 0.1870727
vn -0.1307909 0.9714071 0.1879363
vn 0.04004338 0.9851323 0.1464705
vn 0.05972362 0.9894267 0.1290169
vn 0.03943363 0.9849992 0.1470113
vn 0.06017363 0.9821483 0.1543682
vn 0.04030982 0.9914628 0.1233603
vn 0.04353015 0.9885859 0.1432705
vn 0.02466303 0.9901515 0.1252344
vn 0.02398382 0.9900946 0.1253157
vn -0.1001578 0.9891591 0.107391
vn -0.05983585 0.9832546 0.1658294
vn -0.05801147 0.9818953 0.1756216
vn 0.1715904 0.962671 0.1495001
vn 0.3089213 0.9327382 0.1841965
vn -0.09862182 0.9896652 0.09833695
vn -0.09913392 0.9893049 0.1069395
vn -0.09860101 0.9896799 0.09798728
vn -0.06625082 0.9907764 0.1051787
vn -0.06042115 0.9834036 0.1645668
vn -0.06105844 0.9832038 0.1654166
vn 0.003819701 0.9875849 0.1105175
vn 0.009968604 0.9873049 0.110986
vn 0.2706937 0.9403551 0.1840538
vn 0.2661846 0.9405605 0.1837102
vn 0.2792605 0.939965 0.1847065
vn 0.3047955 0.9338738 0.1856368
vn 0.08465326 0.9744611 0.1653706
vn 0.08143258 0.9732781 0.1845971
vn 0.3042087 0.9329967 0.1872584
vn 0.08042537 0.9729081 0.1906097
vn 0.2751945 0.9401501 0.1843967
vn 0.01902834 0.9948441 0.0996146
vn 0.1878108 0.9592503 0.1548039
vn 0.01771365 0.994877 0.09921835
vn 0.01430786 0.9949294 0.09345442
vn -0.07306708 0.9926995 0.05878356
vn -0.0657471 0.9908004 0.1051458
vn 0.00609864 0.9781232 0.1248857
vn 0.05768617 0.9690205 0.1390595
vn -0.07318287 0.9927295 0.05805022
vn 0.02776947 0.9928814 0.1046985
vn 0.02910556 0.9926926 0.1053195
vn 0.04437884 0.9892451 0.1052464
vn 0.2363013 0.9480185 0.160092
vn 0.2370345 0.947861 0.1603015
vn 0.1249328 0.9870621 0.1005007
vn 0.1115171 0.9887587 0.09935446
vn 0.09063657 0.9880866 0.1186094
vn 0.126302 0.9825422 0.1296962
vn 0.1210927 0.9835521 0.1304301
vn 0.1127934 0.9821026 0.1498061
vn 0.1394238 0.9830275 0.1136357
vn 0.1408789 0.984909 0.09950934
vn 0.1404478 0.9849653 0.09950222
vn 0.1147186 0.988322 0.09907755
vn 0.1137683 0.9884459 0.09906187
vn 0.107538 0.9858617 0.1275424
vn 0.1072256 0.9865487 0.1227962
vn 0.1082101 0.9843841 0.1377499
vn 0.1152172 0.9818408 0.1498035
vn 0.1013343 0.9867862 0.1251421
vn 0.09209387 0.9871588 0.1288215
vn 0.115276 0.9818195 0.1499048
vn -0.1258949 0.9730446 0.1932219
vn -0.1109886 0.9685109 0.2206848
vn -0.09994425 0.9686826 0.2238468
vn -0.04592645 0.9782217 0.1880167
vn -0.1065717 0.981267 0.1527174
vn -0.1000534 0.9841015 0.1445718
vn -0.1441282 0.960786 0.2342395
vn -0.157825 0.9591613 0.2332703
vn -0.1515844 0.9618322 0.2215803
vn -0.1285026 0.9682214 0.2097396
vn -0.1231818 0.9632704 0.2357218
vn -0.04202175 0.9811933 0.1761236
vn -0.0344803 0.9835909 0.1625189
vn -0.05060739 0.9864478 0.1427057
vn -0.09465646 0.988413 0.09582458
vn -0.09029704 0.9902832 0.08752386
vn 0.1733512 0.9736523 0.1481572
vn 0.10506 0.980373 0.1668273
vn 0.06636668 0.9955858 0.0663659
vn 0.1181756 0.9785403 0.16544
vn 0.1063032 0.9768249 0.1824123
vn 0.1733214 0.973434 0.1492543
vn 0.173783 0.9730982 0.1499342
vn 0.1704332 0.9720625 0.156273
vn 0.1005226 0.949545 0.2770798
vn 0.02124438 0.9900904 0.1315965
vn 0.02351253 0.9934484 0.104128
vn 0.0235284 0.9891146 0.1357026
vn 0.03053876 0.9837341 0.1402837
vn 0.09699126 0.9499272 0.2767629
vn 0.04230914 0.981091 0.1694658
vn 0.09850746 0.9491559 0.2798769
vn 0.1585036 0.9775618 0.1349351
vn 0.1601684 0.9758412 0.1427887
vn 0.1414596 0.9826099 0.1149703
vn 0.1305007 0.981142 0.1330826
vn 0.118157 0.9856192 0.1161843
vn 0.131006 0.9809587 0.1337743
vn 0.1350152 0.9801019 0.1354844
vn 0.1142794 0.9889528 0.09138628
vn 0.1603467 0.975657 0.1436296
vn 0.1225678 0.9881353 0.09255084
vn 0.08046057 0.9967436 0.005327127
vn 0.04312383 0.9862714 0.1262542
vn 0.1701196 0.9819136 0.04124068
vn 0.04265236 0.9846922 0.1683821
vn 0.06373069 0.9924412 0.07182689
vn 0.03448886 0.9826776 0.1418282
vn 0.01663814 0.9830313 0.1466879
vn 0.05532984 0.9832274 0.1679731
vn 0.03354791 0.9833715 0.1762787
vn 0.04240851 0.9831439 0.1775
vn 0.0455291 0.9835085 0.1674977
vn -0.001002563 0.9833809 0.1514904
vn 0.1724625 0.975443 -0.06029205
vn 0.1860112 0.9748951 -0.05523954
vn 0.1167889 0.9881335 -0.04105932
vn 0.08728207 0.9955813 0.001396072
vn 0.08775679 0.9960143 -0.002962528
vn 0.1000088 0.9840148 -0.04996181
vn 0.2021387 0.9742428 -0.04922544
vn -0.04874159 0.9573967 0.2846329
vn -0.06952062 0.9655065 0.2509265
vn 0.05996744 0.956073 0.2869295
vn 0.07513516 0.9643822 0.2536174
vn 0.1306909 0.9640031 0.2315558
vn -0.1343682 0.9507456 0.2676045
vn -0.1515364 0.9532937 0.2523844
vn -0.155885 0.9511467 0.2597843
vn -0.1579189 0.9475755 0.2707769
vn 0.1573061 0.9529149 0.2568148
vn 0.1575312 0.9539874 0.2532338
vn 0.1353142 0.9626209 0.2341618
vn 0.1429188 0.9572579 0.2486466
vn 0.130519 0.9642732 0.2303186
vn 0.1308084 0.9638491 0.2320842
vn -0.1185759 0.9470031 0.2892591
vn -0.1038814 0.94835 0.2914162
vn -0.05124751 0.9569589 0.2856358
vn 0.03738714 0.9560679 0.2870839
vn 0.05077547 0.9590474 0.2768433
vn 0.1273218 0.9642784 0.2313755
vn 0.1299405 0.9642903 0.2306396
vn 0.1299204 0.9643409 0.2303995
vn 0.1298286 0.9645714 0.2293049
vn -0.1529925 0.9453126 0.2820671
vn -0.117336 0.9508111 0.2783293
vn -0.06274007 0.9589514 0.2758565
vn 0.05528656 0.9618881 0.2592117
vn 0.08831571 0.9615042 0.2601124
vn 0.1200002 0.9588509 0.2544054
vn 0.1437993 0.9568579 0.2501187

vt 0.2982532 0.6925206
vt 0.02663362 0.9494441
vt 0.02663363 0.9124911
vt 0.02663361 0.8375635
vt 0.02663365 0.9866851
vt 0.04692781 0.9866851
vt 0.2490818 0.9866851
vt 0.4585871 0.9866851
vt 0.466602 0.9866851
vt 0.4895245 0.9866851
vt 0.07362618 0.5785407
vt 0.2359906 0.5785407
vt 0.06859568 0.5785408
vt 0.02663361 0.5785407
vt 0.4376262 0.5785408
vt 0.3167039 0.5785409
vt 0.4873653 0.5785408
vt 0.4895245 0.5785408
vt 0.7524932 0.4486186
vt 0.9866861 0.4826116
vt 0.9866861 0.3307667
vt 0.568184 0.2594154
vt 0.568184 0.03285786
vt 0.739421 0.4910107
vt 0.7613087 0.4910107
vt 0.7385314 0.4910107
vt 0.6687345 0.4910107
vt 0.9839008 0.4910107
vt 0.9866861 0.4910107
vt 0.5762958 0.4910107
vt 0.568184 0.4910107
vt 0.6571954 0.02072131
vt 0.6631439 0.02072127
vt 0.6458939 0.02072123
vt 0.592289 0.02072127
vt 0.8921639 0.02072122
vt 0.9641684 0.0207213
vt 0.568184 0.02072126
vt 0.9866861 0.02072122
vt 0.6512579 0.02072123
vt 0.0406089 0.0545862
vt 0.5427945 0.2070731
vt 0.01627915 0.04715326
vt 0.01627913 0.07640266
vt 0.02020906 0.55315
vt 0.2686607 0.55315
vt 0.4282234 0.5531499
vt 0.5427945 0.55315
vt 0.01627918 0.55315
vt 0.01627916 0.0192365
vt 0.02442192 0.01923666
vt 0.0793102 0.01923661
vt 0.5410308 0.01923658
vt 0.5427945 0.01923656
vt 0.2184795 0.3410514
vt 0.5427883 0.4974009
vt 0.5427881 0.2470622
vt 0.01627328 0.3996412
vt 0.01627341 0.2435337
vt 0.01627363 0.08283743
vt 0.01627319 0.5531523
vt 0.09713431 0.5531524
vt 0.1042216 0.5531526
vt 0.5271672 0.5531524
vt 0.5427886 0.5531523
vt 0.3493524 0.01923892
vt 0.4021665 0.01923903
vt 0.2357657 0.01923898
vt 0.01810249 0.01923905
vt 0.4569153 0.0192391
vt 0.5427883 0.01923881
vt 0.01627356 0.01923878
vt 0.8277158 0.2357899
vt 0.9866855 0.3950909
vt 0.9866855 0.2338991
vt 0.9866855 0.08020905
vt 0.5681835 0.2914199
vt 0.5681834 0.2389335
vt 0.8919743 0.491004
vt 0.8300427 0.491004
vt 0.7682999 0.491004
vt 0.5681835 0.491004
vt 0.9866855 0.4910039
vt 0.9866855 0.02071471
vt 0.9271838 0.02071463
vt 0.8257952 0.02071466
vt 0.6117294 0.02071474
vt 0.5681834 0.02071474
vt 0.5701575 0.1293849
vt 0.9569142 0.1765121
vt 0.7416552 0.3469075
vt 0.9866828 0.1518585
vt 0.986683 0.2128785
vt 0.5681809 0.1270181
vt 0.5681808 0.1310153
vt 0.5681809 0.1469067
vt 0.5681808 0.4842269
vt 0.9214363 0.4910026
vt 0.8552615 0.4910024
vt 0.9285109 0.4910026
vt 0.7253997 0.4910024
vt 0.5716881 0.4910025
vt 0.9866828 0.4910026
vt 0.5681809 0.4910026
vt 0.58224 0.02071325
vt 0.5695407 0.02071328
vt 0.7074415 0.0207132
vt 0.9691585 0.02071337
vt 0.8340803 0.02071323
vt 0.9746876 0.02071331
vt 0.9866829 0.02071328
vt 0.7784535 0.02071325
vt 0.5681808 0.02071328
vt 0.4169701 0.3345547
vt 0.1316969 0.09791314
vt 0.542787 0.438893
vt 0.5427873 0.2075746
vt 0.01627184 0.4775592
vt 0.01627178 0.2146648
vt 0.4287205 0.5531479
vt 0.4860912 0.5531479
vt 0.2005786 0.5531477
vt 0.01627193 0.5531478
vt 0.1073824 0.5531479
vt 0.1562623 0.5531478
vt 0.5427869 0.5531482
vt 0.3989835 0.01923434
vt 0.4646372 0.01923421
vt 0.2087854 0.01923437
vt 0.01627209 0.01923392
vt 0.03687016 0.01923412
vt 0.1272558 0.01923412
vt 0.542787 0.01923424
vt 0.8980297 0.4146439
vt 0.8750157 0.1762523
vt 0.7347581 0.4527257
vt 0.7119415 0.2161929
vt 0.570937 0.4856352
vt 0.9866843 0.3917566
vt 0.9866843 0.29422
vt 0.9866843 0.14577
vt 0.9866843 0.07859155
vt 0.5681822 0.2706712
vt 0.5681822 0.2447102
vt 0.5681822 0.4570817
vt 0.5681822 0.05665954
vt 0.5681822 0.4861788
vt 0.5681822 0.482598
vt 0.9866843 0.4910071
vt 0.9707944 0.4910071
vt 0.9053926 0.4910071
vt 0.7708241 0.4910071
vt 0.7384501 0.4910071
vt 0.5758712 0.4910071
vt 0.5714562 0.4910071
vt 0.5708672 0.4910071
vt 0.5681822 0.4910071
vt 0.9866843 0.02071782
vt 0.9313542 0.02071784
vt 0.8599996 0.02071777
vt 0.7304738 0.02071784
vt 0.6930546 0.02071778
vt 0.6217449 0.02071777
vt 0.5681822 0.0207178




usemtl TI_Puddles_Decals_01
usemap TI_Puddles_Decals_01
f 6/6/6 5/5/5 2/2/2
f 6/6/6 2/2/2 7/7/7
f 7/7/7 2/2/2 1/1/1
f 7/7/7 1/1/1 8/8/8
f 8/8/8 1/1/1 9/9/9
f 12/12/12 16/16/16 1/1/1
f 12/12/12 1/1/1 11/11/11
f 11/11/11 1/1/1 3/3/3
f 11/11/11 3/3/3 13/13/13
f 13/13/13 3/3/3 4/4/4
f 13/13/13 4/4/4 14/14/14
f 1/1/1 16/16/16 15/15/15
f 1/1/1 15/15/15 9/9/9
f 9/9/9 15/15/15 17/17/17
f 9/9/9 17/17/17 10/10/10
f 10/10/10 17/17/17 18/18/18
f 36/36/36 37/37/37 21/21/21
f 36/36/36 21/21/21 19/19/19
f 19/19/19 21/21/21 20/20/20
f 19/19/19 20/20/20 28/28/28
f 28/28/28 20/20/20 29/29/29
f 30/30/30 31/31/31 22/22/22
f 30/30/30 22/22/22 34/34/34
f 34/34/34 22/22/22 23/23/23
f 34/34/34 23/23/23 35/35/35
f 35/35/35 23/23/23 38/38/38
f 37/37/37 39/39/39 21/21/21
f 49/49/49 44/44/44 45/45/45
f 45/45/45 44/44/44 41/41/41
f 45/45/45 41/41/41 46/46/46
f 46/46/46 41/41/41 42/42/42
f 46/46/46 42/42/42 47/47/47
f 47/47/47 42/42/42 48/48/48
f 53/53/53 54/54/54 42/42/42
f 53/53/53 42/42/42 52/52/52
f 52/52/52 42/42/42 41/41/41
f 52/52/52 41/41/41 51/51/51
f 51/51/51 41/41/41 50/50/50
f 70/70/70 71/71/71 57/57/57
f 70/70/70 57/57/57 67/67/67
f 67/67/67 57/57/57 55/55/55
f 67/67/67 55/55/55 66/66/66
f 66/66/66 55/55/55 59/59/59
f 66/66/66 59/59/59 68/68/68
f 68/68/68 59/59/59 60/60/60
f 68/68/68 60/60/60 69/69/69
f 69/69/69 60/60/60 72/72/72
f 63/63/63 62/62/62 55/55/55
f 63/63/63 55/55/55 64/64/64
f 64/64/64 55/55/55 56/56/56
f 64/64/64 56/56/56 65/65/65
f 87/87/87 86/86/86 73/73/73
f 73/73/73 86/86/86 85/85/85
f 73/73/73 85/85/85 76/76/76
f 76/76/76 85/85/85 84/84/84
f 74/74/74 83/83/83 79/79/79
f 74/74/74 79/79/79 73/73/73
f 73/73/73 79/79/79 80/80/80
f 73/73/73 80/80/80 77/77/77
f 77/77/77 80/80/80 81/81/81
f 77/77/77 81/81/81 82/82/82
f 73/73/73 77/77/77 78/78/78
f 73/73/73 78/78/78 87/87/87
f 87/87/87 78/78/78 88/88/88
f 107/107/107 112/112/112 91/91/91
f 91/91/91 112/112/112 90/90/90
f 91/91/91 90/90/90 98/98/98
f 98/98/98 90/90/90 93/93/93
f 98/98/98 93/93/93 100/100/100
f 100/100/100 93/93/93 103/103/103
f 102/102/102 104/104/104 97/97/97
f 102/102/102 97/97/97 101/101/101
f 101/101/101 97/97/97 91/91/91
f 101/101/101 91/91/91 99/99/99
f 99/99/99 91/91/91 98/98/98
f 109/109/109 108/108/108 90/90/90
f 90/90/90 108/108/108 110/110/110
f 90/90/90 110/110/110 92/92/92
f 92/92/92 110/110/110 111/111/111
f 96/96/96 95/95/95 89/89/89
f 89/89/89 95/95/95 94/94/94
f 89/89/89 94/94/94 106/106/106
f 106/106/106 94/94/94 113/113/113
f 124/124/124 123/123/123 118/118/118
f 124/124/124 118/118/118 125/125/125
f 125/125/125 118/118/118 115/115/115
f 125/125/125 115/115/115 122/122/122
f 122/122/122 115/115/115 114/114/114
f 122/122/122 114/114/114 120/120/120
f 120/120/120 114/114/114 121/121/121
f 114/114/114 115/115/115 127/127/127
f 114/114/114 127/127/127 117/117/117
f 117/117/117 127/127/127 128/128/128
f 117/117/117 128/128/128 133/133/133
f 114/114/114 117/117/117 116/116/116
f 114/114/114 116/116/116 121/121/121
f 121/121/121 116/116/116 126/126/126
f 161/161/161 160/160/160 135/135/135
f 135/135/135 160/160/160 159/159/159
f 135/135/135 159/159/159 142/142/142
f 142/142/142 159/159/159 158/158/158
f 161/161/161 135/135/135 137/137/137
f 161/161/161 137/137/137 162/162/162
f 162/162/162 137/137/137 146/146/146
f 162/162/162 146/146/146 163/163/163
f 163/163/163 146/146/146 164/164/164
f 154/154/154 155/155/155 138/138/138
f 138/138/138 155/155/155 156/156/156
f 138/138/138 156/156/156 147/147/147
f 147/147/147 156/156/156 157/157/157
f 1/1/1 2/2/2 3/3/3
f 26/26/26 27/27/27 19/19/19
f 26/26/26 19/19/19 24/24/24
f 24/24/24 19/19/19 25/25/25
f 30/30/30 34/34/34 40/40/40
f 30/30/30 40/40/40 27/27/27
f 27/27/27 40/40/40 32/32/32
f 27/27/27 32/32/32 19/19/19
f 19/19/19 32/32/32 33/33/33
f 19/19/19 33/33/33 36/36/36
f 19/19/19 28/28/28 25/25/25
f 41/41/41 44/44/44 43/43/43
f 41/41/41 43/43/43 50/50/50
f 58/58/58 59/59/59 55/55/55
f 58/58/58 55/55/55 61/61/61
f 61/61/61 55/55/55 62/62/62
f 55/55/55 57/57/57 56/56/56
f 73/73/73 76/76/76 75/75/75
f 73/73/73 75/75/75 74/74/74
f 107/107/107 91/91/91 89/89/89
f 107/107/107 89/89/89 105/105/105
f 105/105/105 89/89/89 106/106/106
f 92/92/92 93/93/93 90/90/90
f 91/91/91 97/97/97 96/96/96
f 91/91/91 96/96/96 89/89/89
f 90/90/90 112/112/112 109/109/109
f 130/130/130 131/131/131 115/115/115
f 130/130/130 115/115/115 119/119/119
f 119/119/119 115/115/115 118/118/118
f 129/129/129 127/127/127 115/115/115
f 129/129/129 115/115/115 132/132/132
f 132/132/132 115/115/115 131/131/131
f 139/139/139 149/149/149 134/134/134
f 139/139/139 134/134/134 140/140/140
f 140/140/140 134/134/134 135/135/135
f 140/140/140 135/135/135 141/141/141
f 141/141/141 135/135/135 142/142/142
f 152/152/152 153/153/153 136/136/136
f 152/152/152 136/136/136 151/151/151
f 151/151/151 136/136/136 134/134/134
f 151/151/151 134/134/134 150/150/150
f 150/150/150 134/134/134 149/149/149
f 153/153/153 154/154/154 138/138/138
f 153/153/153 138/138/138 136/136/136
f 136/136/136 138/138/138 143/143/143
f 136/136/136 143/143/143 137/137/137
f 137/137/137 143/143/143 144/144/144
f 137/137/137 144/144/144 146/146/146
f 145/145/145 143/143/143 138/138/138
f 145/145/145 138/138/138 148/148/148
f 148/148/148 138/138/138 147/147/147
f 137/137/137 135/135/135 134/134/134
f 137/137/137 134/134/134 136/136/136

