g NewMesh_tris_219
v 5.860346 -2.905808 -1.860462
v 5.86272 -2.904952 0.08681164
v 5.86571 -2.974585 2.044832
v 3.909572 -2.905882 -1.860269
v 3.908307 -2.904878 0.08550757
v 3.910015 -2.905094 2.041479
v 1.955171 -2.906479 -1.858156
v 1.954642 -2.90488 0.0849676
v 1.955233 -2.904906 2.039728
v 0.001496709 -3.01375 -1.857737
v 0.001846311 -2.904884 0.08463862
v 0.001922208 -2.904892 2.039392
v 5.866051 -3.0302 2.260764
v 5.627395 -2.987693 2.283312
v 3.910511 -2.941076 2.440518
v 3.470581 -2.923094 2.481491
v 1.955192 -2.928668 2.62089
v 1.316604 -2.934718 2.680431
v 0.001794267 -2.940399 2.802478
v -0.8364751 -2.928782 2.881049
v 5.860222 -2.673585 -2.694235
v 4.637514 -2.704659 -2.582148
v 3.909583 -2.746325 -2.515914
v 2.485986 -2.77857 -2.384262
v 1.955362 -2.651996 -2.333531
v 0.3333019 -2.819448 -2.186679
v 0.001397483 -2.880602 -2.157149
v 6.012942 -2.871879 -1.939261
v 6.019723 -2.905824 -1.860376
v 6.007223 -2.843268 -2.005778
v 5.945059 -2.65885 -2.701809
v 6.174586 -2.90503 -0.2239248
v 6.20371 -2.916501 0.0873455
v 6.342397 -2.973782 1.567454
v 6.386065 -3.051601 2.04556
v 6.386889 -3.054089 2.054754
v 6.400871 -3.096326 2.210819
v -1.295699 -2.89796 -1.957925
v -1.287094 -2.943095 -1.857536
v -1.178125 -2.947527 -0.6839424
v -1.105318 -2.904881 0.08482512
v -1.011231 -2.904877 1.098521
v -0.9237558 -2.90489 2.039324
v -0.8471522 -2.928551 2.872986
v -0.8463272 -2.928808 2.881966
v -1.302444 -2.862599 -2.036616
v 23.43635 -3.69062 -3.822119
v 23.43361 -3.691075 -1.869902
v 21.48993 -3.691737 -5.766205
v 21.48733 -3.690489 -3.819841
v 21.48554 -3.690456 -1.867584
v 19.53637 -3.691104 -3.815638
v 19.53181 -3.690567 -1.865484
v 19.52859 -3.842741 0.09247608
v 17.58328 -3.637658 -3.810314
v 17.57879 -3.723964 -1.862205
v 17.57567 -4.101818 0.09546491
v 15.62727 -3.75771 -1.858969
v 19.61266 -3.346034 -5.760671
v 19.54375 -3.345209 -5.696096
v 18.57885 -3.482912 -4.800335
v 17.5835 -3.605521 -3.875957
v 17.51194 -3.632904 -3.810159
v 15.62765 -3.733027 -2.050705
v 23.44253 -3.687959 -1.869908
v 23.43361 -3.690769 -1.861582
v 23.30134 -3.691021 -1.737116
v 21.48303 -3.690795 -0.02535504
v 21.36098 -3.700294 0.08897191
v 19.5263 -4.226583 1.795233
v 19.25215 -4.338938 2.049093
v 18.35884 -4.341838 1.264227
v 18.92806 -4.364542 1.873371
v 17.57542 -4.199457 0.4274472
v 19.16644 -4.377335 2.128269
v 19.09237 -4.371107 2.049198
v 16.4735 -4.045034 -0.7535353
v 17.26553 -4.131988 0.09572656
v 15.62709 -3.812147 -1.65948
v 17.41557 -4.161362 0.25596
v 15.43266 -3.74418 -1.868396
v 15.4416 -3.745976 -1.858837
v 15.53131 -3.788372 -1.76252
v 24.07102 -3.593315 -4.454882
v 24.66375 -3.691219 -3.82378
v 23.43651 -3.690933 -5.128769
v 25.01202 -3.691615 -3.451495
v 25.06543 -3.653157 -3.394685
v 22.18791 -3.478189 -6.462576
v 22.83781 -3.691413 -5.766564
v 21.62979 -3.373554 -7.057215
v 23.12716 -3.691203 -5.457672
v 21.49516 -3.348698 -7.200765
v 21.33705 -3.279567 -7.369674
v 25.06611 -3.652664 -3.393958
v 17.57879 -3.723964 -1.862205
v 17.58113 -3.67887 -2.875686
v 19.53305 -3.690615 -2.398149
v 18.8574 -3.702059 -1.864347
v 17.75208 -3.888804 -0.992089
v 17.57775 -3.849069 -1.213396
v 16.77074 -3.7212 -2.236476
v 17.06771 -3.732759 -1.861348
v 17.29292 -3.80696 -1.575464
v 19.54587 -3.690614 -2.408294
v 19.53312 -3.690619 -2.424412
v 18.91922 -3.701393 -3.199785
v 18.62199 -3.676511 -3.574781
v 18.56168 -3.671479 -3.650871
v 37.11332 0.4845007 -31.16319
v 37.1167 0.4836809 -29.20658
v 35.16218 0.4842272 -31.16219
v 35.16204 0.4843429 -29.21084
v 35.16615 0.4834633 -27.25677
v 33.21774 0.6492752 -29.21293
v 35.16228 0.5037847 -31.34525
v 34.96706 0.5141289 -31.16208
v 33.21763 0.6696588 -29.51296
v 39.07969 0.2989438 -30.24437
v 37.96712 0.3297104 -29.20514
v 37.11885 0.3603269 -28.41256
v 35.88327 0.3721893 -27.25475
v 35.35905 0.4220762 -26.76203
v 35.1668 0.4649628 -26.96746
v 34.0839 0.6826179 -28.12849
v 34.8967 0.5330263 -27.25734
v 33.21788 0.6647137 -29.05546
v 35.02717 0.5217603 -27.11717
v 32.99166 0.7663013 -29.29793
v 33.07087 0.7215676 -29.21305
v 33.14188 0.6953971 -29.13686
v 39.09148 0.2934385 -30.25558
v 39.07964 0.3029042 -30.26825
v 37.69296 0.464476 -31.73789
v 38.24009 0.4656529 -31.16058
v 37.11354 0.4834657 -32.35144
v 38.6462 0.4580109 -30.72898
v 36.74692 0.4827344 -32.7407
v 36.72044 0.4885398 -32.76888
v 36.70456 0.4920217 -32.78579
v 21.48705 7.43936 -23.35141
v 21.48739 7.439336 -21.39791
v 21.4939 7.437815 -19.44024
v 19.53633 7.439205 -21.39873
v 20.33036 7.43902 -24.14479
v 19.98039 7.439172 -23.35058
v 19.53662 7.439154 -22.34092
v 19.1234 7.495538 -21.39858
v 18.79998 7.516873 -20.66259
v 23.45655 7.433896 -23.29857
v 22.61583 7.436543 -21.39606
v 21.95828 7.436889 -19.90191
v 21.75309 7.386779 -19.43955
v 21.52466 7.39271 -18.91617
v 21.49635 7.399231 -18.92859
v 19.77885 7.439219 -19.68865
v 20.3326 7.43885 -19.44376
v 19.53646 7.439192 -19.79543
v 21.14005 7.45573 -19.08642
v 19.24852 7.469563 -19.9218
v 18.59993 7.537974 -20.20645
v 23.46537 7.426414 -23.31908
v 23.45652 7.43392 -23.32293
v 22.06914 7.43723 -23.93096
v 23.39342 7.434248 -23.35052
v 21.48918 7.439228 -24.18431
v 23.43723 7.434038 -23.33138
v 20.71218 7.438944 -24.52712
v 20.53361 7.473636 -24.60504
v 5.858855 7.133708 -13.58018
v 5.859221 7.1285 -11.62838
v 7.21146 7.130616 -11.62334
v 5.859503 7.120291 -11.10086
v 5.015764 6.812512 -10.77736
v 5.859292 7.321855 -14.26967
v 4.074051 7.133764 -13.58007
v 3.909119 7.13374 -13.51594
v 3.804713 7.133655 -13.47503
v 6.471765 7.286885 -14.03213
v 6.647532 7.298779 -13.57988
v 6.42675 7.283837 -14.14795
v 6.312727 7.36583 -14.44488
v 6.974598 7.364966 -12.74156
v 7.341355 7.168134 -11.80058
v 7.384636 7.144797 -11.68955
v 3.980482 7.133005 -11.70035
v 4.009876 7.132745 -11.62482
v 3.924048 7.1331 -11.847
v 4.052603 7.090427 -11.51193
v 3.905417 7.133129 -11.89541
v 3.452632 7.133269 -13.07232
v 3.439034 7.133265 -13.10767
v 3.364151 7.158882 -13.30287
v 4.418712 6.726243 -10.54478

vn -0.0291608 0.9689449 0.2455516
vn 0.04993949 0.9974748 0.05050018
vn 0.1496121 0.9653764 0.2136931
vn 0.04920303 0.9664772 0.2519939
vn 0.007031196 0.9999506 0.007031391
vn 0.06394236 0.9927357 0.101917
vn 0.006656063 0.9465744 0.3224167
vn -0.01096792 0.9998797 -0.01096772
vn 0.008710634 0.9990132 0.04355375
vn -0.01165348 0.9416583 0.3363689
vn -9.763276E-08 0.9997594 -0.02193369
vn 0.002529821 0.9994742 0.03232879
vn 0.1607869 0.9591807 0.2267708
vn 0.1489348 0.9639621 0.2197953
vn 0.08027003 0.9847977 0.1348893
vn 0.05048834 0.9874787 0.1342271
vn 0.007339919 0.9902139 0.1035023
vn 0.003118903 0.9871833 0.1175769
vn -0.001722875 0.9852076 0.1248456
vn -0.004086209 0.9801648 0.1463415
vn -0.03141581 0.807144 0.4862856
vn 0.0180078 0.827321 0.4580023
vn 0.04705076 0.8414185 0.4379682
vn 0.01648759 0.8517509 0.4523396
vn 0.01258574 0.8620182 0.4391012
vn -0.004442833 0.883997 0.4147224
vn -0.01464071 0.889681 0.4073009
vn -0.02219045 0.9539678 0.268963
vn -0.02241147 0.9681031 0.2483267
vn -0.02200407 0.9420477 0.2863653
vn -0.02707656 0.8064252 0.4878143
vn 0.05053291 0.9912703 0.08707965
vn 0.06149994 0.9946897 0.06822216
vn 0.1414589 0.9693151 0.1986558
vn 0.1649984 0.9559404 0.2376431
vn 0.165498 0.9556619 0.2382371
vn 0.17398 0.9509354 0.2483202
vn 0.02417476 0.9211948 0.3667754
vn 0.02493271 0.9386419 0.3429493
vn 0.00201396 0.9768343 0.126516
vn 0.00621848 0.9998276 -0.01571661
vn 0.001166511 0.999686 0.00373611
vn 0.002396701 0.9995422 0.03006567
vn -0.00402553 0.9803511 0.1452037
vn -0.004094702 0.9801444 0.1464438
vn 0.02358062 0.9075183 0.3854522
vn -0.09983439 0.9942445 -0.03887127
vn -0.1913903 0.9790772 -0.06912094
vn 0.1235508 0.9570047 0.2624449
vn 0.03707608 0.9986244 0.03707608
vn -0.02277605 0.9997074 0.008154157
vn 0.1089462 0.9781308 0.1771747
vn -0.04286266 0.9960189 0.07816045
vn -0.1502803 0.9592414 0.2393151
vn 0.1102061 0.9284838 0.3546444
vn -0.03947589 0.9814819 0.1874435
vn -0.1433185 0.9298268 0.3389426
vn 0.01424087 0.9552999 0.2952953
vn 0.3540491 0.8196523 0.446041
vn 0.3540902 0.820039 0.4436367
vn 0.238292 0.8706765 0.4044585
vn 0.1172675 0.9190742 0.3659664
vn 0.1113369 0.9259557 0.3596494
vn 0.02673872 0.9458461 0.3146278
vn -0.1919258 0.9789177 -0.06933345
vn -0.1912562 0.9790727 -0.06825853
vn -0.185963 0.9796242 -0.05666056
vn -0.1061732 0.9878773 0.1084581
vn -0.1137673 0.9854041 0.1224453
vn -0.2262438 0.9131093 0.3353996
vn -0.2311793 0.905319 0.3556452
vn -0.1752914 0.9236044 0.3306895
vn -0.2157705 0.9089996 0.3527404
vn -0.151598 0.9247101 0.3479507
vn -0.2303471 0.9049733 0.3570144
vn -0.227455 0.9047838 0.3591056
vn -0.04389704 0.9459827 0.3031951
vn -0.1280475 0.9280644 0.3473818
vn 0.007965757 0.9515718 0.3051589
vn -0.1336647 0.929446 0.3422016
vn 0.03815972 0.9502692 0.3000963
vn 0.03646466 0.9509505 0.2989554
vn 0.02587969 0.9521135 0.2994494
vn -0.12286 0.9825411 0.04839325
vn -0.2038065 0.9701522 -0.09383521
vn -0.0937096 0.9750526 0.1507753
vn -0.2508318 0.9604104 -0.1152291
vn -0.255303 0.9591127 -0.1161933
vn 0.1010943 0.9301293 0.3358139
vn -0.02480874 0.9630132 0.2492354
vn 0.2519158 0.760006 0.5317293
vn -0.07043149 0.9709121 0.2106178
vn 0.2882759 0.7189927 0.5789605
vn 0.327154 0.6793472 0.6317618
vn -0.2553603 0.9590961 -0.1162056
vn -0.03947589 0.9814819 0.1874435
vn 0.03839866 0.9539087 0.2744325
vn -0.001396715 0.9911329 0.1052058
vn -0.04169316 0.9909991 0.1158975
vn -0.08594656 0.9598167 0.245024
vn -0.07388978 0.9643632 0.237651
vn 0.01165224 0.96041 0.2643889
vn -0.02540811 0.9746251 0.2156886
vn -0.04061933 0.9723007 0.2173804
vn -0.001080212 0.9911744 0.1048011
vn 0.0006476869 0.9908919 0.1065392
vn 0.06215461 0.9791873 0.180412
vn 0.09122375 0.9613849 0.2397568
vn 0.09712184 0.9577729 0.2517977
vn 0.07005452 0.9962672 0.05043894
vn 0.1825954 0.9689378 0.1667888
vn 0.1360493 0.9871472 0.08385122
vn 0.1315632 0.9910043 0.02452929
vn 0.268326 0.9616839 0.05626189
vn 0.425761 0.9037164 -0.04499096
vn 0.1386993 0.9787508 0.1144044
vn 0.1621702 0.979462 0.087206
vn 0.4212468 0.9047663 -0.01999911
vn 0.509453 0.8251266 0.228474
vn 0.3528751 0.884288 0.2091504
vn 0.2531384 0.9423966 0.1956578
vn 0.3005866 0.9403794 0.1228524
vn 0.312975 0.9396086 0.1012145
vn 0.2894126 0.9520966 0.0721513
vn 0.3267225 0.9246662 -0.03575835
vn 0.2980629 0.9491992 0.03683439
vn 0.4303896 0.9011174 -0.04814405
vn 0.2875578 0.9530609 0.05667025
vn 0.4484114 0.8883996 -0.0437565
vn 0.441307 0.8935717 -0.04877954
vn 0.4344498 0.8978465 -0.0475148
vn 0.509761 0.824684 0.2289661
vn 0.5079225 0.826316 0.2276429
vn 0.1215465 0.9607995 0.1583658
vn 0.2884181 0.9242445 0.134282
vn 0.07625818 0.9476678 0.2588558
vn 0.3917898 0.8923048 0.1900742
vn 0.0906933 0.9300287 0.3334298
vn 0.09224173 0.9284808 0.3383644
vn 0.09317055 0.9275523 0.3413243
vn 0.02754418 0.9992715 0.02641961
vn 0.03903667 0.998475 0.03903628
vn 0.2559158 0.947776 0.1903364
vn 0.1079274 0.9940895 0.01174346
vn 0.1544451 0.9846621 0.0007563917
vn 0.1049957 0.991997 0.0539755
vn 0.1175175 0.9920456 0.03604761
vn 0.1139027 0.993244 0.01650464
vn 0.1055316 0.9943678 0.006999832
vn 0.5733172 0.8169374 0.05877812
vn 0.3892554 0.8543183 0.09477109
vn 0.3493131 0.9002199 0.1776117
vn 0.3147164 0.905642 0.2094388
vn 0.338871 0.8789321 0.2626764
vn 0.3306571 0.8850394 0.258938
vn 0.1039675 0.9941546 -0.002248422
vn 0.1712283 0.9749291 0.07259998
vn 0.1122387 0.9936397 -0.004554539
vn 0.2617677 0.9473174 0.1835938
vn 0.1101882 0.9938647 -0.002198841
vn 0.1055694 0.9943716 0.003107391
vn 0.5734838 0.8166986 0.05817833
vn 0.5723195 0.8178392 0.05778393
vn 0.1753419 0.9477406 -0.0414219
vn 0.5537603 0.8246442 0.05568906
vn 0.09817692 0.9898152 -0.02273037
vn 0.5659787 0.820619 0.05648598
vn 0.1672717 0.9821627 -0.02875809
vn 0.1623966 0.9832636 -0.01638224
vn -0.0788858 0.9738401 0.2131023
vn -0.06665724 0.9833604 0.1689943
vn 0.1569517 0.9105067 0.3309352
vn -0.05387937 0.8747633 0.3419934
vn -0.1192166 0.7978792 0.4458922
vn -0.06429435 0.9741169 0.2157756
vn 0.02899495 0.9752077 0.2169173
vn 0.03407981 0.9744812 0.2198023
vn 0.04123947 0.9703229 0.2305149
vn -0.05839601 0.9765026 0.2038838
vn -0.04993185 0.9728222 0.2230174
vn -0.06056374 0.9774452 0.1989835
vn -0.05554891 0.9768848 0.2034191
vn -0.03267887 0.9764888 0.2081851
vn 0.1545 0.9119734 0.3314791
vn 0.1765926 0.9043587 0.3460315
vn -0.1085476 0.9502738 0.2913633
vn -0.1074263 0.9511542 0.287768
vn -0.09396408 0.952268 0.2856911
vn -0.111003 0.9291761 0.3146554
vn -0.08914931 0.9529264 0.2838184
vn 0.04519405 0.9528002 0.277045
vn 0.04922869 0.9527963 0.2768415
vn 0.0557409 0.9621759 0.247715
vn -0.1416437 0.740899 0.5449879

vt 0.6393918 0.4807606
vt 0.8038783 0.4690685
vt 0.9684559 0.4574567
vt 0.6241385 0.3550645
vt 0.788625 0.3433724
vt 0.9531116 0.3316803
vt 0.6088852 0.2293684
vt 0.7733717 0.2176763
vt 0.9378583 0.2059842
vt 0.5937738 0.1037974
vt 0.7581184 0.09198017
vt 0.922605 0.0802881
vt 0.9866808 0.4562312
vt 0.9866808 0.4407096
vt 0.9866807 0.3293394
vt 0.9866807 0.3008184
vt 0.9866808 0.2025436
vt 0.9866808 0.1611077
vt 0.9866807 0.075778
vt 0.9866807 0.02135452
vt 0.5681787 0.4855251
vt 0.5681787 0.4060953
vt 0.5681787 0.3588378
vt 0.5681787 0.2665337
vt 0.5681787 0.2319385
vt 0.5681787 0.1268942
vt 0.5681787 0.1054474
vt 0.6338354 0.4910045
vt 0.6406348 0.4910045
vt 0.6281015 0.4910044
vt 0.5681787 0.4910045
vt 0.7800512 0.4910044
vt 0.8065539 0.4910044
vt 0.932014 0.4910045
vt 0.9726179 0.4910044
vt 0.9734002 0.4910045
vt 0.9866808 0.4910044
vt 0.5749587 0.02071505
vt 0.583608 0.02071505
vt 0.6838513 0.02071504
vt 0.7494704 0.02071505
vt 0.8355278 0.02071505
vt 0.9153758 0.02071505
vt 0.9859209 0.02071505
vt 0.9866807 0.02071505
vt 0.5681787 0.02071505
vt 0.1473201 0.6239477
vt 0.02714482 0.6915267
vt 0.3801522 0.628442
vt 0.2599769 0.696021
vt 0.1398017 0.7635999
vt 0.3726338 0.7680942
vt 0.2524585 0.8356732
vt 0.1319842 0.9032166
vt 0.4853993 0.8401803
vt 0.3650501 0.9077386
vt 0.24413 0.975229
vt 0.4776417 0.9798041
vt 0.4895258 0.6980542
vt 0.4895258 0.7028342
vt 0.4895258 0.7693124
vt 0.4895258 0.8379035
vt 0.4895258 0.8428153
vt 0.4895258 0.9731548
vt 0.02663512 0.6911974
vt 0.0266351 0.6918138
vt 0.02663515 0.7009947
vt 0.0266351 0.8272377
vt 0.02663507 0.8356725
vt 0.0266351 0.9619425
vt 0.02663507 0.9807906
vt 0.1264984 0.9866833
vt 0.05611162 0.9866833
vt 0.2235271 0.9866833
vt 0.02663508 0.9866833
vt 0.0357941 0.9866833
vt 0.3601623 0.9866834
vt 0.2619854 0.9866832
vt 0.4652782 0.9866833
vt 0.2433947 0.9866833
vt 0.4895258 0.9866833
vt 0.4884135 0.9866833
vt 0.4772104 0.9866833
vt 0.1499587 0.5785389
vt 0.07634196 0.5785389
vt 0.2280704 0.5785389
vt 0.03322765 0.5785388
vt 0.02671843 0.5785389
vt 0.3832654 0.5785388
vt 0.3021491 0.5785388
vt 0.4529363 0.5785388
vt 0.2663017 0.5785388
vt 0.4697326 0.5785388
vt 0.4895258 0.5785389
vt 0.02663514 0.5785389
vt 0.7567359 0.9012599
vt 0.9970331 0.7715978
vt 0.5178664 0.5182717
vt 0.5178664 0.6951118
vt 0.5178664 0.9837237
vt 0.6030071 0.9837237
vt 0.9970332 0.9837238
vt 0.8522888 0.9837235
vt 0.742088 0.9837236
vt 0.5178663 0.5149139
vt 0.5240782 0.5149139
vt 0.8227466 0.514914
vt 0.9676352 0.5149138
vt 0.9970331 0.5149139
vt 0.293753 0.6437867
vt 0.1040488 0.7504642
vt 0.4715888 0.7575588
vt 0.2818846 0.8642364
vt 0.0921803 0.9709139
vt 0.4602439 0.9780708
vt 0.4895215 0.7475165
vt 0.4895214 0.7689825
vt 0.4895216 0.9616501
vt 0.02663093 0.5798392
vt 0.02663104 0.701183
vt 0.02663085 0.7937379
vt 0.02663096 0.9291584
vt 0.02663098 0.9866822
vt 0.0640705 0.9866822
vt 0.2759205 0.9866821
vt 0.1169541 0.9866821
vt 0.4449889 0.9866822
vt 0.09145238 0.9866822
vt 0.4895217 0.9866822
vt 0.4738888 0.9866822
vt 0.4599257 0.9866821
vt 0.0266309 0.5785378
vt 0.02896002 0.5785378
vt 0.2972047 0.5785378
vt 0.1917195 0.5785379
vt 0.409785 0.5785378
vt 0.1132308 0.5785379
vt 0.4812269 0.5785378
vt 0.4864116 0.5785377
vt 0.4895217 0.5785379
vt 0.805469 0.0952314
vt 0.7023486 0.2702801
vt 0.5992281 0.4453288
vt 0.9368985 0.3472648
vt 0.9866824 0.06993632
vt 0.9866824 0.1547098
vt 0.9866825 0.2627556
vt 0.9866825 0.3635211
vt 0.9866825 0.4422375
vt 0.5681806 0.02289539
vt 0.5681806 0.226243
vt 0.5681807 0.3857911
vt 0.5681807 0.4352133
vt 0.5681806 0.4910045
vt 0.572217 0.4910044
vt 0.817451 0.4910043
vt 0.7383881 0.4910043
vt 0.8522221 0.4910044
vt 0.6231065 0.4910044
vt 0.8935627 0.4910044
vt 0.9866827 0.4910044
vt 0.5681806 0.02071496
vt 0.5694651 0.02071496
vt 0.7666051 0.02071496
vt 0.5784392 0.02071494
vt 0.8493664 0.02071483
vt 0.5722063 0.02071483
vt 0.9610147 0.02071498
vt 0.9866824 0.02071491
vt 0.65979 0.3820966
vt 0.9177638 0.2769763
vt 0.9866845 0.4635184
vt 0.9866844 0.2489081
vt 0.9866845 0.1155973
vt 0.5681826 0.4188475
vt 0.5681826 0.1341791
vt 0.5681826 0.1078426
vt 0.5681826 0.0911518
vt 0.6310715 0.4910077
vt 0.6996838 0.4910077
vt 0.6134994 0.4910077
vt 0.5681826 0.4910077
vt 0.8270062 0.4910077
vt 0.9698274 0.4910078
vt 0.9866846 0.4910077
vt 0.811568 0.0207183
vt 0.8230636 0.02071829
vt 0.7893075 0.02071831
vt 0.8401669 0.0207183
vt 0.7819582 0.02071827
vt 0.603135 0.0207183
vt 0.5977646 0.02071831
vt 0.5681826 0.02071833
vt 0.9866844 0.02071831




usemtl TI_Puddles_Decals_01
usemap TI_Puddles_Decals_01
f 44/44/44 45/45/45 20/20/20
f 44/44/44 20/20/20 43/43/43
f 43/43/43 20/20/20 12/12/12
f 43/43/43 12/12/12 42/42/42
f 42/42/42 12/12/12 11/11/11
f 42/42/42 11/11/11 41/41/41
f 41/41/41 11/11/11 40/40/40
f 25/25/25 26/26/26 10/10/10
f 10/10/10 26/26/26 27/27/27
f 10/10/10 27/27/27 38/38/38
f 38/38/38 27/27/27 46/46/46
f 30/30/30 31/31/31 21/21/21
f 30/30/30 21/21/21 1/1/1
f 1/1/1 21/21/21 4/4/4
f 1/1/1 4/4/4 5/5/5
f 5/5/5 4/4/4 8/8/8
f 5/5/5 8/8/8 9/9/9
f 9/9/9 8/8/8 12/12/12
f 9/9/9 12/12/12 18/18/18
f 18/18/18 12/12/12 19/19/19
f 16/16/16 15/15/15 6/6/6
f 6/6/6 15/15/15 14/14/14
f 6/6/6 14/14/14 3/3/3
f 3/3/3 14/14/14 13/13/13
f 3/3/3 13/13/13 36/36/36
f 36/36/36 13/13/13 37/37/37
f 60/60/60 61/61/61 55/55/55
f 60/60/60 55/55/55 52/52/52
f 52/52/52 55/55/55 56/56/56
f 52/52/52 56/56/56 53/53/53
f 53/53/53 56/56/56 57/57/57
f 53/53/53 57/57/57 54/54/54
f 54/54/54 57/57/57 72/72/72
f 54/54/54 72/72/72 70/70/70
f 70/70/70 72/72/72 73/73/73
f 70/70/70 73/73/73 71/71/71
f 71/71/71 73/73/73 76/76/76
f 71/71/71 76/76/76 75/75/75
f 93/93/93 94/94/94 59/59/59
f 93/93/93 59/59/59 49/49/49
f 49/49/49 59/59/59 52/52/52
f 49/49/49 52/52/52 50/50/50
f 50/50/50 52/52/52 53/53/53
f 50/50/50 53/53/53 51/51/51
f 51/51/51 53/53/53 54/54/54
f 51/51/51 54/54/54 68/68/68
f 68/68/68 54/54/54 69/69/69
f 85/85/85 84/84/84 47/47/47
f 85/85/85 47/47/47 87/87/87
f 87/87/87 47/47/47 48/48/48
f 87/87/87 48/48/48 88/88/88
f 88/88/88 48/48/48 65/65/65
f 88/88/88 65/65/65 95/95/95
f 107/107/107 108/108/108 96/96/96
f 107/107/107 96/96/96 106/106/106
f 106/106/106 96/96/96 98/98/98
f 106/106/106 98/98/98 105/105/105
f 102/102/102 103/103/103 96/96/96
f 102/102/102 96/96/96 97/97/97
f 97/97/97 96/96/96 108/108/108
f 97/97/97 108/108/108 109/109/109
f 135/135/135 134/134/134 110/110/110
f 135/135/135 110/110/110 137/137/137
f 137/137/137 110/110/110 111/111/111
f 137/137/137 111/111/111 133/133/133
f 133/133/133 111/111/111 119/119/119
f 133/133/133 119/119/119 132/132/132
f 118/118/118 129/129/129 115/115/115
f 118/118/118 115/115/115 117/117/117
f 117/117/117 115/115/115 112/112/112
f 117/117/117 112/112/112 116/116/116
f 116/116/116 112/112/112 139/139/139
f 116/116/116 139/139/139 140/140/140
f 165/165/165 164/164/164 141/141/141
f 165/165/165 141/141/141 167/167/167
f 167/167/167 141/141/141 142/142/142
f 167/167/167 142/142/142 163/163/163
f 163/163/163 142/142/142 150/150/150
f 163/163/163 150/150/150 162/162/162
f 141/141/141 164/164/164 166/166/166
f 141/141/141 166/166/166 145/145/145
f 145/145/145 166/166/166 168/168/168
f 145/145/145 168/168/168 169/169/169
f 153/153/153 152/152/152 143/143/143
f 143/143/143 152/152/152 142/142/142
f 143/143/143 142/142/142 156/156/156
f 156/156/156 142/142/142 144/144/144
f 156/156/156 144/144/144 158/158/158
f 158/158/158 144/144/144 149/149/149
f 158/158/158 149/149/149 160/160/160
f 160/160/160 149/149/149 161/161/161
f 191/191/191 190/190/190 177/177/177
f 191/191/191 177/177/177 192/192/192
f 192/192/192 177/177/177 178/178/178
f 192/192/192 178/178/178 193/193/193
f 189/189/189 194/194/194 174/174/174
f 189/189/189 174/174/174 187/187/187
f 187/187/187 174/174/174 171/171/171
f 187/187/187 171/171/171 186/186/186
f 186/186/186 171/171/171 170/170/170
f 186/186/186 170/170/170 176/176/176
f 176/176/176 170/170/170 175/175/175
f 180/180/180 179/179/179 170/170/170
f 170/170/170 179/179/179 181/181/181
f 170/170/170 181/181/181 175/175/175
f 175/175/175 181/181/181 182/182/182
f 172/172/172 185/185/185 184/184/184
f 172/172/172 184/184/184 171/171/171
f 171/171/171 184/184/184 183/183/183
f 171/171/171 183/183/183 170/170/170
f 170/170/170 183/183/183 180/180/180
f 29/29/29 28/28/28 1/1/1
f 29/29/29 1/1/1 32/32/32
f 32/32/32 1/1/1 2/2/2
f 32/32/32 2/2/2 33/33/33
f 33/33/33 2/2/2 34/34/34
f 5/5/5 9/9/9 6/6/6
f 5/5/5 6/6/6 2/2/2
f 2/2/2 6/6/6 3/3/3
f 2/2/2 3/3/3 34/34/34
f 34/34/34 3/3/3 35/35/35
f 35/35/35 3/3/3 36/36/36
f 24/24/24 25/25/25 7/7/7
f 24/24/24 7/7/7 23/23/23
f 23/23/23 7/7/7 4/4/4
f 23/23/23 4/4/4 22/22/22
f 22/22/22 4/4/4 21/21/21
f 16/16/16 6/6/6 9/9/9
f 16/16/16 9/9/9 17/17/17
f 17/17/17 9/9/9 18/18/18
f 8/8/8 4/4/4 7/7/7
f 8/8/8 7/7/7 11/11/11
f 11/11/11 7/7/7 10/10/10
f 11/11/11 10/10/10 40/40/40
f 40/40/40 10/10/10 39/39/39
f 12/12/12 20/20/20 19/19/19
f 1/1/1 28/28/28 30/30/30
f 10/10/10 38/38/38 39/39/39
f 90/90/90 89/89/89 49/49/49
f 90/90/90 49/49/49 92/92/92
f 92/92/92 49/49/49 50/50/50
f 92/92/92 50/50/50 86/86/86
f 86/86/86 50/50/50 47/47/47
f 86/86/86 47/47/47 84/84/84
f 51/51/51 68/68/68 67/67/67
f 51/51/51 67/67/67 48/48/48
f 48/48/48 67/67/67 66/66/66
f 48/48/48 66/66/66 65/65/65
f 91/91/91 93/93/93 49/49/49
f 91/91/91 49/49/49 89/89/89
f 69/69/69 54/54/54 70/70/70
f 64/64/64 81/81/81 58/58/58
f 64/64/64 58/58/58 63/63/63
f 63/63/63 58/58/58 55/55/55
f 63/63/63 55/55/55 62/62/62
f 62/62/62 55/55/55 61/61/61
f 74/74/74 72/72/72 57/57/57
f 74/74/74 57/57/57 80/80/80
f 80/80/80 57/57/57 78/78/78
f 57/57/57 56/56/56 77/77/77
f 77/77/77 56/56/56 58/58/58
f 77/77/77 58/58/58 79/79/79
f 79/79/79 58/58/58 83/83/83
f 82/82/82 83/83/83 58/58/58
f 82/82/82 58/58/58 81/81/81
f 52/52/52 59/59/59 60/60/60
f 57/57/57 77/77/77 78/78/78
f 100/100/100 99/99/99 96/96/96
f 100/100/100 96/96/96 101/101/101
f 101/101/101 96/96/96 104/104/104
f 96/96/96 103/103/103 104/104/104
f 96/96/96 99/99/99 98/98/98
f 127/127/127 125/125/125 115/115/115
f 115/115/115 125/125/125 113/113/113
f 115/115/115 113/113/113 112/112/112
f 112/112/112 113/113/113 110/110/110
f 112/112/112 110/110/110 136/136/136
f 136/136/136 110/110/110 134/134/134
f 120/120/120 119/119/119 111/111/111
f 120/120/120 111/111/111 121/121/121
f 121/121/121 111/111/111 114/114/114
f 121/121/121 114/114/114 122/122/122
f 122/122/122 114/114/114 123/123/123
f 138/138/138 139/139/139 112/112/112
f 138/138/138 112/112/112 136/136/136
f 124/124/124 123/123/123 114/114/114
f 124/124/124 114/114/114 128/128/128
f 128/128/128 114/114/114 126/126/126
f 131/131/131 127/127/127 115/115/115
f 131/131/131 115/115/115 130/130/130
f 130/130/130 115/115/115 129/129/129
f 111/111/111 110/110/110 113/113/113
f 111/111/111 113/113/113 114/114/114
f 114/114/114 113/113/113 125/125/125
f 114/114/114 125/125/125 126/126/126
f 154/154/154 153/153/153 143/143/143
f 154/154/154 143/143/143 155/155/155
f 155/155/155 143/143/143 159/159/159
f 157/157/157 159/159/159 143/143/143
f 157/157/157 143/143/143 156/156/156
f 141/141/141 145/145/145 146/146/146
f 141/141/141 146/146/146 144/144/144
f 144/144/144 146/146/146 147/147/147
f 144/144/144 147/147/147 148/148/148
f 144/144/144 148/148/148 149/149/149
f 151/151/151 150/150/150 142/142/142
f 151/151/151 142/142/142 152/152/152
f 171/171/171 174/174/174 173/173/173
f 171/171/171 173/173/173 172/172/172
f 188/188/188 186/186/186 176/176/176
f 188/188/188 176/176/176 190/190/190
f 190/190/190 176/176/176 177/177/177
f 1/1/1 5/5/5 2/2/2
f 25/25/25 10/10/10 7/7/7
f 8/8/8 11/11/11 12/12/12
f 51/51/51 48/48/48 47/47/47
f 51/51/51 47/47/47 50/50/50
f 55/55/55 58/58/58 56/56/56
f 141/141/141 144/144/144 142/142/142

