g NewMesh_tris_44
v -0.8458505 9.470621 -0.9219288
v -0.8188648 -1.130209 -0.7225682
v -0.7714656 9.292413 -1.959449
v -0.9738775 -0.8048486 1.180719
v -0.911505 -0.7652075 1.416855
v -0.7824879 9.510347 -0.6859714
v 0.9177296 9.519523 -0.5092488
v 0.7848986 -0.7429581 1.612163
v 0.8735799 -0.773748 1.392779
v 1.007573 9.48735 -0.7288383
v 1.070514 9.330662 -1.840606
v 0.954802 -1.095602 -0.882273
v 0.8835763 -1.130455 -1.106319
v 1.001632 9.297358 -2.068153
v -0.6732004 9.255429 -2.184768
v -0.7198001 -1.16687 -0.9508271
v -0.8188648 -1.130209 -0.7225682
v -0.7714656 9.292413 -1.959449
v -0.7628319 9.71912 -0.9644182
v 0.9923309 9.580919 -1.868785
v 0.9332307 9.730864 -0.7882761
v -0.6888433 9.541581 -1.983206
v 1.007573 9.48735 -0.7288383
v 0.9177296 9.519523 -0.5092488
v 1.070514 9.330662 -1.840606
v 1.001632 9.297358 -2.068153
v -0.7714656 9.292413 -1.959449
v -0.6732004 9.255429 -2.184768
v -0.8458505 9.470621 -0.9219288
v -0.7824879 9.510347 -0.6859714
v -0.8961906 -1.04671 1.240288
v 0.8722464 -1.344546 -0.8529889
v -0.7387195 -1.380194 -0.7002469
v 0.7894487 -1.022672 1.433799
v -0.7198001 -1.16687 -0.9508271
v -0.8188648 -1.130209 -0.7225682
v 0.8835763 -1.130455 -1.106319
v 0.954802 -1.095602 -0.882273
v 0.8735799 -0.773748 1.392779
v 0.7848986 -0.7429581 1.612163
v -0.911505 -0.7652075 1.416855
v -0.9738775 -0.8048486 1.180719

vn -0.980745 0.1869377 0.0565116
vn -0.961858 -0.1806031 -0.2054544
vn -0.9565672 0.1371817 -0.2572166
vn -0.9853088 -0.1320918 0.1082515
vn -0.5908147 -0.159965 0.7907902
vn -0.5819673 0.4583472 0.671738
vn 0.4568443 0.4640717 0.7589011
vn 0.4488924 -0.1587767 0.8793666
vn 0.9650026 -0.1324729 0.2263206
vn 0.9647728 0.1877398 0.1843021
vn 0.9804859 0.1389171 -0.1391025
vn 0.9779493 -0.1816833 -0.1029881
vn 0.5181436 -0.3995984 -0.7562065
vn 0.540593 0.2256998 -0.8104436
vn -0.4797679 0.2110616 -0.8516312
vn -0.4979966 -0.4080615 -0.76517
vn -0.961858 -0.1806031 -0.2054544
vn -0.9565672 0.1371817 -0.2572166
vn -0.5353284 0.8340625 0.1332794
vn 0.5358877 0.7467362 -0.3939661
vn 0.4982504 0.8401435 0.2142554
vn -0.4921794 0.7371058 -0.4630707
vn 0.9647728 0.1877398 0.1843021
vn 0.4568443 0.4640717 0.7589011
vn 0.9804859 0.1389171 -0.1391025
vn 0.540593 0.2256998 -0.8104436
vn -0.9565672 0.1371817 -0.2572166
vn -0.4797679 0.2110616 -0.8516312
vn -0.980745 0.1869377 0.0565116
vn -0.5819673 0.4583472 0.671738
vn -0.5448879 -0.736545 0.4007476
vn 0.5086071 -0.8351975 -0.2091982
vn -0.5087764 -0.8334392 -0.2156979
vn 0.4856659 -0.7335482 0.4754319
vn -0.4979966 -0.4080615 -0.76517
vn -0.961858 -0.1806031 -0.2054544
vn 0.5181436 -0.3995984 -0.7562065
vn 0.9779493 -0.1816833 -0.1029881
vn 0.9650026 -0.1324729 0.2263206
vn 0.4488924 -0.1587767 0.8793666
vn -0.5908147 -0.159965 0.7907902
vn -0.9853088 -0.1320918 0.1082515

vt 0.096941 0.746124
vt -0.066877 -0.136289
vt 0.016771 0.752922
vt 0.080304 -0.148907
vt 0.105149 -0.150655
vt 0.121391 0.74434
vt 0.397735 0.736878
vt 0.399012 -0.13948
vt 0.430379 -0.138781
vt 0.458269 0.738856
vt 0.796011 0.746428
vt 0.80814 -0.135932
vt 0.833572 -0.136119
vt 0.835188 0.745772
vt 1.002462 0.765234
vt 1.050459 -0.128332
vt 1.074094 -0.125482
vt 1.022151 0.768462
vt 0.392388 0.67028
vt 0.714365 0.742701
vt 0.719155 0.670311
vt 0.39127 0.73898
vt 0.740436 0.666159
vt 0.723856 0.648404
vt 0.735488 0.747695
vt 0.716626 0.764673
vt 0.369363 0.742892
vt 0.387295 0.761114
vt 0.370928 0.666056
vt 0.388874 0.648404
vt 0.021876 0.822471
vt 0.328818 0.669243
vt 0.023288 0.690767
vt 0.347166 0.82307
vt 0.019241 0.670486
vt 0.001688 0.689034
vt 0.330801 0.648404
vt 0.350077 0.664916
vt 0.369107 0.82517
vt 0.353129 0.843209
vt 0.01788 0.843209
vt 0.000128 0.825352




usemtl TI_StoneWall_Dif
usemap TI_StoneWall_Dif
f 4/4/4 5/5/5 1/1/1
f 4/4/4 1/1/1 2/2/2
f 2/2/2 1/1/1 3/3/3
f 17/17/17 18/18/18 15/15/15
f 17/17/17 15/15/15 16/16/16
f 16/16/16 15/15/15 13/13/13
f 8/8/8 9/9/9 7/7/7
f 8/8/8 7/7/7 5/5/5
f 5/5/5 7/7/7 6/6/6
f 5/5/5 6/6/6 1/1/1
f 12/12/12 13/13/13 11/11/11
f 12/12/12 11/11/11 9/9/9
f 9/9/9 11/11/11 10/10/10
f 9/9/9 10/10/10 7/7/7
f 14/14/14 11/11/11 13/13/13
f 14/14/14 13/13/13 15/15/15
f 28/28/28 27/27/27 22/22/22
f 22/22/22 27/27/27 19/19/19
f 22/22/22 19/19/19 20/20/20
f 20/20/20 19/19/19 21/21/21
f 20/20/20 21/21/21 23/23/23
f 23/23/23 21/21/21 24/24/24
f 28/28/28 22/22/22 26/26/26
f 26/26/26 22/22/22 20/20/20
f 26/26/26 20/20/20 25/25/25
f 25/25/25 20/20/20 23/23/23
f 24/24/24 21/21/21 30/30/30
f 30/30/30 21/21/21 19/19/19
f 30/30/30 19/19/19 29/29/29
f 29/29/29 19/19/19 27/27/27
f 39/39/39 40/40/40 34/34/34
f 34/34/34 40/40/40 31/31/31
f 34/34/34 31/31/31 32/32/32
f 32/32/32 31/31/31 33/33/33
f 32/32/32 33/33/33 35/35/35
f 35/35/35 33/33/33 36/36/36
f 39/39/39 34/34/34 38/38/38
f 38/38/38 34/34/34 32/32/32
f 38/38/38 32/32/32 37/37/37
f 37/37/37 32/32/32 35/35/35
f 36/36/36 33/33/33 42/42/42
f 42/42/42 33/33/33 31/31/31
f 42/42/42 31/31/31 41/41/41
f 41/41/41 31/31/31 40/40/40

