g NewMesh_tris_158
v -0.6374046 1.304842 6.394949
v -0.4591695 1.686753 6.943145
v -0.4719814 1.588281 7.024499
v -0.5998835 1.445651 6.407632
v 1.671337 -1.696698 7.940292
v 1.79338 -1.605043 7.983434
v -0.3499389 1.679936 7.06764
v 1.505914 -1.980137 7.310743
v 2.526724 -1.227653 7.620826
v 0.3834054 2.057326 6.705033
v 2.590179 -1.219767 7.500605
v 0.4468607 2.065212 6.584812
v 2.421351 -1.509039 6.858098
v 0.2780327 1.775939 5.942305
v 0.3224241 2.092444 6.569134
v 0.2684472 2.085735 6.671397
v -0.3553565 1.764717 6.979841
v 0.1788142 1.84638 6.022599
v 0.2780327 1.775939 5.942305
v -0.6374046 1.304842 6.394949
v 2.421351 -1.509039 6.858098
v 0.1788142 1.84638 6.022599
v -0.5998835 1.445651 6.407632
v -0.3553565 1.764717 6.979841
v -0.4591695 1.686753 6.943145
v 0.1788142 1.84638 6.022599
v 0.2684472 2.085735 6.671397
v 0.3224241 2.092444 6.569134
v 12.26192 -0.4893426 11.8754
v 7.132457 -0.3068416 8.9888
v 7.243635 -0.2223112 8.813933
v 12.15075 -0.5738729 12.05027
v 12.30367 -0.5452899 11.8021
v 7.285376 -0.2782585 8.740631
v 7.115214 -0.4222981 9.006993
v 12.1335 -0.6893295 12.06846
v 7.33428 -0.9983748 8.369807
v 7.192475 -0.2815892 8.735445
v 12.55121 -1.283656 11.56308
v 7.055331 -0.375549 8.952053
v 12.34603 -0.5683917 11.89441
v 12.23713 -0.651195 12.06571
v 12.34832 -1.437919 11.8822
v 7.120155 -1.161177 8.706595
v 7.192475 -0.2815892 8.735445
v 7.120155 -1.161177 8.706595
v 7.33428 -0.9983748 8.369807
v 7.055331 -0.375549 8.952053
v 12.23713 -0.651195 12.06571
v 12.55121 -1.283656 11.56308
v 12.34832 -1.437919 11.8822
v 12.34603 -0.5683917 11.89441
v 3.779566 3.448341 0.7240687
v 0.7272562 3.57825 -0.5175163
v 0.8897208 3.475858 -0.8228439
v 3.617423 3.550729 1.029569
v 3.68277 0.9903502 2.025759
v 3.808104 1.779506 1.799107
v 5.811138 -0.5122319 3.70613
v 5.004321 1.461988 2.548022
v 4.103293 1.960469 1.885968
v 5.924716 0.2029025 3.500738
v 2.799115 0.9951437 1.553788
v 0.08335607 -0.4811617 0.6468434
v 2.965953 2.046249 1.25209
v 0.7272562 3.57825 -0.5175163
v 3.165999 2.331062 1.252751
v 3.365991 2.475953 1.304955
v 3.403742 2.416402 1.347496
v 3.604651 2.585876 1.396976
v 3.864132 3.130036 1.320854
v 3.617423 3.550729 1.029569
v 3.370198 2.202367 0.8689883
v 3.523774 2.36769 0.9017384
v 0.8897208 3.475858 -0.8228439
v 3.580582 2.280017 0.9577371
v 3.178027 1.91259 0.8535274
v 3.040051 0.8432956 1.100986
v 0.3568824 -0.6535498 0.1327922
v 3.923837 0.8384193 1.57271
v 6.085517 -0.6851574 3.190477
v 6.174092 0.002324105 3.031629
v 5.179373 1.345225 2.094382
v 4.021784 1.598033 1.397049
v 3.80587 2.459059 1.018815
v 4.070883 2.970188 1.014911
v 3.779566 3.448341 0.7240687
v 4.070883 2.970188 1.014911
v 4.315319 1.826849 1.487497
v 3.040051 0.8432956 1.100986
v 3.68277 0.9903502 2.025759
v 2.799115 0.9951437 1.553788
v 3.923837 0.8384193 1.57271
v 0.08335607 -0.4811617 0.6468434
v 6.085517 -0.6851574 3.190477
v 0.3568824 -0.6535498 0.1327922
v 5.811138 -0.5122319 3.70613
v 3.864132 3.130036 1.320854
v 3.779566 3.448341 0.7240687
v 4.070883 2.970188 1.014911
v 3.617423 3.550729 1.029569
v 3.604651 2.585876 1.396976
v 3.80587 2.459059 1.018815
v 3.040051 0.8432956 1.100986
v 2.965953 2.046249 1.25209
v 3.178027 1.91259 0.8535274
v 2.799115 0.9951437 1.553788
v 3.370198 2.202367 0.8689883
v 3.165999 2.331062 1.252751
v 3.403742 2.416402 1.347496
v 3.580582 2.280017 0.9577371
v 3.604651 2.585876 1.396976
v 3.80587 2.459059 1.018815
v 6.174092 0.002324105 3.031629
v 5.811138 -0.5122319 3.70613
v 5.924716 0.2029025 3.500738
v 6.085517 -0.6851574 3.190477
v 5.004321 1.461988 2.548022
v 5.179373 1.345225 2.094382
v 4.315319 1.826849 1.487497
v 4.103293 1.960469 1.885968
v 4.021784 1.598033 1.397049
v 3.808104 1.779506 1.799107
v 3.923837 0.8384193 1.57271
v 3.808104 1.779506 1.799107
v 3.68277 0.9903502 2.025759
v 4.021784 1.598033 1.397049
v 0.8897208 3.475858 -0.8228439
v 0.08335607 -0.4811617 0.6468434
v 0.3568824 -0.6535498 0.1327922
v 0.7272562 3.57825 -0.5175163
v 0.8503522 3.472263 -1.381629
v 0.4092591 -0.5167804 0.03542289
v 1.209919 3.453773 -1.100319
v -0.2462867 -0.4861238 -0.4867743
v -0.3457483 -0.4708181 -0.5235018
v 0.7507396 3.487751 -1.417989
v 0.3087455 3.730097 -0.876105
v -0.7932957 -0.2247831 0.01113949
v -0.7332155 -0.2155748 0.09467471
v 0.3685964 3.73896 -0.7919364
v 0.7587836 3.729614 -0.500935
v 0.0757533 -0.2420235 0.6740268
v 0.1728894 -0.2572467 0.7043684
v 0.8567423 3.715439 -0.4692217
v 1.269847 3.462252 -1.011328
v 0.4701042 -0.5079578 0.1252996
v 0.4092591 -0.5167804 0.03542289
v 1.209919 3.453773 -1.100319
v 0.8560618 3.57922 -1.377751
v 0.7950471 3.81345 -0.5557225
v 0.415291 3.821953 -0.8375121
v 1.208839 3.560242 -1.100846
v 0.3685964 3.73896 -0.7919364
v 0.3087455 3.730097 -0.876105
v 0.7587836 3.729614 -0.500935
v 0.8567423 3.715439 -0.4692217
v 1.209919 3.453773 -1.100319
v 1.269847 3.462252 -1.011328
v 0.8503522 3.472263 -1.381629
v 0.7507396 3.487751 -1.417989
v -0.2937155 -0.5680175 -0.4403083
v 0.07478971 -0.3485994 0.6733129
v 0.3747273 -0.6000174 0.09215207
v -0.7381518 -0.322798 0.09080049
v 0.4701042 -0.5079578 0.1252996
v 0.4092591 -0.5167804 0.03542289
v 0.1728894 -0.2572467 0.7043684
v 0.0757533 -0.2420235 0.6740268
v -0.7332155 -0.2155748 0.09467471
v -0.7932957 -0.2247831 0.01113949
v -0.3457483 -0.4708181 -0.5235018
v -0.2462867 -0.4861238 -0.4867743

vn -0.8859527 -0.2365071 -0.398939
vn -0.7665277 0.6232756 0.1547997
vn -0.7889946 0.07793749 0.609437
vn -0.8069021 0.4557228 -0.3758005
vn -0.6422824 -0.2138736 0.7360241
vn -0.06408934 0.228971 0.9713213
vn -0.2433676 0.4450788 0.8617871
vn -0.7403255 -0.5784968 -0.342432
vn 0.5011125 0.5198321 0.6918533
vn 0.3391099 0.7471014 0.5717028
vn 0.8369005 0.5473356 0.004631834
vn 0.602346 0.7944746 -0.07739108
vn 0.410806 0.0138923 -0.9116169
vn 0.1882833 0.3151676 -0.9301715
vn -0.07472809 0.9788198 -0.1905976
vn -0.2113259 0.9502312 0.2289146
vn -0.430359 0.8370219 0.3379132
vn -0.2924499 0.7197804 -0.6295945
vn 0.1882833 0.3151676 -0.9301715
vn -0.8859527 -0.2365071 -0.398939
vn 0.410806 0.0138923 -0.9116169
vn -0.2924499 0.7197804 -0.6295945
vn -0.8069021 0.4557228 -0.3758005
vn -0.430359 0.8370219 0.3379132
vn -0.7665277 0.6232756 0.1547997
vn -0.2924499 0.7197804 -0.6295945
vn -0.2113259 0.9502312 0.2289146
vn -0.07472809 0.9788198 -0.1905976
vn 0.3459823 0.9289986 0.1313692
vn -0.5599019 0.6770022 0.47768
vn -0.1780791 0.9682436 -0.1754765
vn -0.07221808 0.6126408 0.7870553
vn 0.6251969 0.6199594 -0.4741087
vn 0.2441473 0.6464612 -0.7228278
vn -0.6135246 -0.08201382 0.7854053
vn -0.2727812 -0.07652586 0.9590277
vn -0.2588185 0.3608512 -0.8959908
vn -0.513474 0.5843121 -0.6284295
vn 0.9422039 0.2946386 -0.1594986
vn -0.9472732 0.2541533 0.1951401
vn 0.8460177 0.4644402 0.2618193
vn 0.4621249 0.1815732 0.8680275
vn 0.2425277 -0.2363503 0.9409139
vn -0.9621001 -0.1741426 0.209852
vn -0.513474 0.5843121 -0.6284295
vn -0.9621001 -0.1741426 0.209852
vn -0.2588185 0.3608512 -0.8959908
vn -0.9472732 0.2541533 0.1951401
vn 0.4621249 0.1815732 0.8680275
vn 0.9422039 0.2946386 -0.1594986
vn 0.2425277 -0.2363503 0.9409139
vn 0.8460177 0.4644402 0.2618193
vn 0.141044 0.9588258 -0.2464948
vn 0.141044 0.9588258 -0.2464948
vn 0.141044 0.9588258 -0.2464948
vn 0.141044 0.9588258 -0.2464948
vn -0.4454866 0.3087594 0.8403627
vn -0.4432611 0.3120861 0.8403106
vn -0.4445574 0.3102064 0.8403218
vn -0.4432064 0.3122598 0.8402748
vn -0.4432064 0.3122598 0.8402748
vn -0.4432064 0.3122598 0.8402748
vn -0.4479369 0.3085985 0.8391183
vn -0.4483636 0.3098208 0.8384396
vn -0.4485299 0.3119994 0.8375424
vn -0.447928 0.3132444 0.8373998
vn -0.4472242 0.3141116 0.8374512
vn -0.4513742 0.3157234 0.8346137
vn -0.4549003 0.3083921 0.8354401
vn -0.4690986 0.334232 0.8174567
vn -0.4479597 0.3208667 0.8344919
vn -0.4450022 0.3185356 0.8369636
vn 0.4531762 -0.2529622 -0.8547757
vn 0.4501148 -0.2511375 -0.8569286
vn 0.4522206 -0.254109 -0.8549416
vn 0.4465693 -0.257908 -0.8567727
vn 0.4517881 -0.2553766 -0.8547926
vn 0.4524612 -0.2591309 -0.8533054
vn 0.4519835 -0.2578287 -0.8539527
vn 0.455065 -0.2589977 -0.8519602
vn 0.4558988 -0.2577617 -0.8518892
vn 0.4571992 -0.255819 -0.8517778
vn 0.4573024 -0.2554358 -0.8518375
vn 0.4577146 -0.2541086 -0.852013
vn 0.4368944 -0.23701 -0.8677267
vn 0.4520468 -0.2460588 -0.8573849
vn 0.4546852 -0.2482666 -0.8553509
vn 0.4520468 -0.2460588 -0.8573849
vn 0.458548 -0.2513632 -0.8523793
vn 0.1377874 0.9588501 -0.2482358
vn 0.1377874 0.9588501 -0.2482358
vn 0.1377874 0.9588501 -0.2482358
vn 0.1377874 0.9588501 -0.2482358
vn -0.1377874 -0.9588501 0.2482358
vn -0.1377874 -0.9588501 0.2482358
vn -0.1377874 -0.9588501 0.2482358
vn -0.1377874 -0.9588501 0.2482358
vn 0.876332 0.1848249 0.4448391
vn 0.7731117 0.5985907 0.2097322
vn 0.8729451 0.1045392 0.4764855
vn 0.7731117 0.5985907 0.2097322
vn 0.6278188 -0.5508045 0.5499618
vn 0.6279803 -0.5505486 0.5500337
vn 0.8821226 -0.004826091 0.4709952
vn 0.8172285 -0.2507115 0.5189233
vn 0.8172285 -0.2507115 0.5189233
vn 0.8821226 -0.004826091 0.4709952
vn 0.4609481 -0.7380389 0.492773
vn 0.4608974 -0.7380796 0.4927597
vn 0.3322355 -0.8299814 0.4480518
vn 0.3199339 -0.8367877 0.4443294
vn 0.6278188 -0.5508045 0.5499618
vn 0.6279803 -0.5505486 0.5500337
vn 0.8854227 0.3259687 0.3313172
vn 0.8821226 -0.004826091 0.4709952
vn 0.8800677 0.3539757 0.3165154
vn 0.8821226 -0.004826091 0.4709952
vn 0.6489996 0.7586955 0.05639853
vn 0.628954 0.7761749 0.04437677
vn 0.06511889 0.9481407 -0.3111089
vn 0.06540561 0.9481786 -0.310933
vn -0.7292073 0.4088741 -0.5487064
vn -0.7037683 0.4486687 -0.5508235
vn -0.8821226 0.004826091 -0.4709952
vn -0.7037683 0.4486687 -0.5508235
vn -0.8821226 0.004826091 -0.4709952
vn -0.7292073 0.4088741 -0.5487064
vn -0.8821226 0.004826091 -0.4709952
vn -0.8821226 0.004826091 -0.4709952
vn -0.8821226 0.004826091 -0.4709952
vn -0.8821226 0.004826091 -0.4709952
vn 0.4720388 -0.1576325 -0.8673704
vn 0.6508403 -0.4709637 -0.5954829
vn 0.7226644 -0.1662554 -0.6709064
vn 0.3997425 -0.463263 -0.7909446
vn -0.3875512 -0.4228351 -0.8191547
vn -0.2314104 0.1713022 -0.957656
vn -0.8374167 0.5152724 -0.1822847
vn -0.9956559 -0.08295464 -0.0422841
vn -0.7001664 0.1764386 0.6918356
vn -0.6335985 0.4806494 0.6062418
vn -0.3702888 0.470999 0.8006537
vn -0.4304374 0.1660645 0.8872127
vn 0.3418108 -0.1294595 0.9308091
vn 0.4363319 0.4695816 0.7675335
vn 0.9927953 0.119024 -0.01381472
vn 0.8691989 -0.4758944 0.1342305
vn 0.6508403 -0.4709637 -0.5954829
vn 0.7226644 -0.1662554 -0.6709064
vn 0.2401566 0.5906214 -0.7703838
vn 0.1330537 0.9168317 0.3764524
vn -0.3578545 0.9337692 0.003897456
vn 0.71777 0.5710624 -0.3983641
vn -0.6335985 0.4806494 0.6062418
vn -0.8374167 0.5152724 -0.1822847
vn -0.3702888 0.470999 0.8006537
vn 0.4363319 0.4695816 0.7675335
vn 0.7226644 -0.1662554 -0.6709064
vn 0.9927953 0.119024 -0.01381472
vn 0.4720388 -0.1576325 -0.8673704
vn -0.2314104 0.1713022 -0.957656
vn -0.1332576 -0.9109284 -0.3904511
vn -0.1617803 -0.5933596 0.7885123
vn 0.3651183 -0.9308599 -0.01372591
vn -0.7246436 -0.5710821 0.38569
vn 0.8691989 -0.4758944 0.1342305
vn 0.6508403 -0.4709637 -0.5954829
vn 0.3418108 -0.1294595 0.9308091
vn -0.4304374 0.1660645 0.8872127
vn -0.7001664 0.1764386 0.6918356
vn -0.9956559 -0.08295464 -0.0422841
vn -0.3875512 -0.4228351 -0.8191547
vn 0.3997425 -0.463263 -0.7909446

vt 0.524861 0.839124
vt 0.675057 0.867723
vt 0.674836 0.840406
vt 0.525582 0.865066
vt 0.673411 -0.025492
vt 0.705046 -0.02524
vt 0.703718 0.841652
vt 0.520656 -0.024558
vt 0.871578 -0.024736
vt 0.86949 0.841829
vt 0.898741 -0.024527
vt 0.893287 0.841231
vt 1.054679 -0.023464
vt 1.048766 0.843392
vt 0.892569 0.866719
vt 0.862768 0.866427
vt 0.710197 0.866952
vt 1.03157 0.869382
vt 0.319155 0.842216
vt 0.524861 0.839124
vt 0.313323 -0.023161
vt 0.336317 0.869382
vt 0.22147 -0.025492
vt 0.313079 0.092771
vt 0.313079 0.066117
vt 0.096949 0.099029
vt 0.213327 0.192523
vt 0.190443 0.192523
vt -0.141084 0.689205
vt 1.128039 0.746624
vt 1.124392 0.696912
vt -0.142555 0.737392
vt -0.145924 0.666939
vt 1.128707 0.673426
vt 1.131957 0.773037
vt -0.147168 0.762864
vt 1.199868 0.476839
vt 1.151734 0.686524
vt -0.225262 0.476839
vt 1.152246 0.758887
vt -0.171418 0.682317
vt -0.170683 0.744777
vt -0.220555 0.940581
vt 1.182367 0.960336
vt -0.038335 1.038652
vt -0.225262 0.960554
vt -0.225259 1.057956
vt -0.036073 0.976989
vt 0.150361 1.030581
vt -0.035852 0.960554
vt -0.035852 1.052847
vt 0.150361 0.981041
vt -0.992493 1.295879
vt -1.844177 1.202164
vt -1.844177 1.295882
vt -0.992399 1.202161
vt -0.686083 0.314551
vt -0.680101 0.53027
vt -8.4E-05 -0.119125
vt -0.315211 0.431393
vt -0.678115 0.601859
vt 0.005336 0.076359
vt -0.946276 0.321768
vt -1.686645 -0.07235
vt -0.938309 0.609074
vt -1.655878 1.037167
vt -0.890589 0.685889
vt -0.837382 0.724067
vt -0.823981 0.707722
vt -0.808188 0.712899
vt -0.715843 0.895997
vt -0.804518 1.010387
vt 1.046487 0.688847
vt 1.006013 0.731827
vt 1.810423 1.042465
vt 0.986882 0.708184
vt 1.094443 0.612179
vt 1.103289 0.324902
vt 1.844587 -0.06694
vt 0.843121 0.316889
vt 0.158193 -0.118882
vt 0.152506 0.065799
vt 0.432535 0.378935
vt 0.836837 0.520957
vt 0.964005 0.715605
vt 0.879455 0.867268
vt 0.959251 1.013085
vt 0.876768 0.905874
vt 0.834275 0.604169
vt -0.911498 1.296588
vt -0.772476 1.556882
vt -0.772514 1.296588
vt -0.911536 1.556882
vt -1.844177 1.201205
vt -0.156973 1.043175
vt -1.844177 1.043421
vt -0.156973 1.201452
vt 0.601862 0.339873
vt 0.47099 0.109545
vt 0.446077 0.353487
vt 0.610835 0.119281
vt 0.612738 0.575782
vt 0.439119 0.577146
vt -0.912243 1.435586
vt -1.199542 1.30497
vt -1.199536 1.427306
vt -0.912249 1.296603
vt -1.28994 1.425026
vt -1.289945 1.307233
vt -1.360035 1.307926
vt -1.352601 1.424403
vt -1.376654 1.30809
vt -1.376651 1.424163
vt 0.46242 0.169281
vt 0.354589 0.030963
vt 0.354589 0.17402
vt 0.470322 0.034349
vt 0.358083 0.521368
vt 0.452374 0.533321
vt 0.450398 0.75389
vt 0.360929 0.754028
vt 0.452536 0.826656
vt 0.359501 0.82186
vt -1.844177 1.435648
vt -1.628468 1.3029
vt -1.844177 1.296588
vt -1.640097 1.429719
vt -1.749447 1.042469
vt -1.686645 -0.07235
vt -1.844177 -0.063426
vt -1.655878 1.037167
vt 0.096941 0.746124
vt -0.066877 -0.136289
vt 0.016771 0.752922
vt 0.080304 -0.148907
vt 0.105149 -0.150655
vt 0.121391 0.74434
vt 0.397735 0.736878
vt 0.399012 -0.13948
vt 0.430379 -0.138781
vt 0.458269 0.738856
vt 0.796011 0.746428
vt 0.80814 -0.135932
vt 0.833572 -0.136119
vt 0.835188 0.745772
vt 1.002462 0.765234
vt 1.050459 -0.128332
vt 1.074094 -0.125482
vt 1.022151 0.768462
vt 0.392388 0.67028
vt 0.714365 0.742701
vt 0.719155 0.670311
vt 0.39127 0.73898
vt 0.740436 0.666159
vt 0.723856 0.648404
vt 0.735488 0.747695
vt 0.716626 0.764673
vt 0.369363 0.742892
vt 0.387295 0.761114
vt 0.370928 0.666056
vt 0.388874 0.648404
vt 0.021876 0.822471
vt 0.328818 0.669243
vt 0.023288 0.690767
vt 0.347166 0.82307
vt 0.019241 0.670486
vt 0.001688 0.689034
vt 0.330801 0.648404
vt 0.350077 0.664916
vt 0.369107 0.82517
vt 0.353129 0.843209
vt 0.01788 0.843209
vt 0.000128 0.825352




usemtl TI_StoneWall_Dif
usemap TI_StoneWall_Dif
f 14/14/14 18/18/18 12/12/12
f 12/12/12 18/18/18 15/15/15
f 12/12/12 15/15/15 10/10/10
f 10/10/10 15/15/15 16/16/16
f 10/10/10 16/16/16 7/7/7
f 7/7/7 16/16/16 17/17/17
f 7/7/7 17/17/17 3/3/3
f 3/3/3 17/17/17 2/2/2
f 3/3/3 2/2/2 1/1/1
f 1/1/1 2/2/2 4/4/4
f 13/13/13 14/14/14 12/12/12
f 13/13/13 12/12/12 11/11/11
f 11/11/11 12/12/12 10/10/10
f 11/11/11 10/10/10 9/9/9
f 9/9/9 10/10/10 7/7/7
f 9/9/9 7/7/7 6/6/6
f 6/6/6 7/7/7 3/3/3
f 6/6/6 3/3/3 5/5/5
f 5/5/5 3/3/3 1/1/1
f 5/5/5 1/1/1 8/8/8
f 20/20/20 4/4/4 19/19/19
f 20/20/20 19/19/19 8/8/8
f 8/8/8 19/19/19 21/21/21
f 19/19/19 4/4/4 22/22/22
f 27/27/27 28/28/28 26/26/26
f 27/27/27 26/26/26 24/24/24
f 24/24/24 26/26/26 23/23/23
f 24/24/24 23/23/23 25/25/25
f 45/45/45 47/47/47 46/46/46
f 45/45/45 46/46/46 48/48/48
f 49/49/49 51/51/51 50/50/50
f 49/49/49 50/50/50 52/52/52
f 53/53/53 55/55/55 54/54/54
f 53/53/53 54/54/54 56/56/56
f 57/57/57 63/63/63 59/59/59
f 57/57/57 59/59/59 58/58/58
f 58/58/58 59/59/59 60/60/60
f 58/58/58 60/60/60 61/61/61
f 59/59/59 62/62/62 60/60/60
f 76/76/76 73/73/73 74/74/74
f 76/76/76 74/74/74 85/85/85
f 85/85/85 74/74/74 86/86/86
f 73/73/73 77/77/77 75/75/75
f 73/73/73 75/75/75 74/74/74
f 74/74/74 75/75/75 87/87/87
f 74/74/74 87/87/87 88/88/88
f 82/82/82 81/81/81 80/80/80
f 82/82/82 80/80/80 83/83/83
f 83/83/83 80/80/80 84/84/84
f 83/83/83 84/84/84 89/89/89
f 90/90/90 92/92/92 91/91/91
f 90/90/90 91/91/91 93/93/93
f 94/94/94 96/96/96 95/95/95
f 94/94/94 95/95/95 97/97/97
f 102/102/102 103/103/103 100/100/100
f 102/102/102 100/100/100 98/98/98
f 98/98/98 100/100/100 99/99/99
f 98/98/98 99/99/99 101/101/101
f 106/106/106 108/108/108 105/105/105
f 106/106/106 105/105/105 104/104/104
f 104/104/104 105/105/105 107/107/107
f 109/109/109 105/105/105 108/108/108
f 109/109/109 108/108/108 110/110/110
f 110/110/110 108/108/108 111/111/111
f 110/110/110 111/111/111 112/112/112
f 112/112/112 111/111/111 113/113/113
f 115/115/115 117/117/117 114/114/114
f 115/115/115 114/114/114 116/116/116
f 116/116/116 114/114/114 118/118/118
f 122/122/122 123/123/123 121/121/121
f 122/122/122 121/121/121 120/120/120
f 120/120/120 121/121/121 118/118/118
f 120/120/120 118/118/118 119/119/119
f 119/119/119 118/118/118 114/114/114
f 124/124/124 126/126/126 125/125/125
f 124/124/124 125/125/125 127/127/127
f 128/128/128 130/130/130 129/129/129
f 128/128/128 129/129/129 131/131/131
f 135/135/135 136/136/136 132/132/132
f 135/135/135 132/132/132 133/133/133
f 133/133/133 132/132/132 134/134/134
f 148/148/148 149/149/149 146/146/146
f 148/148/148 146/146/146 147/147/147
f 147/147/147 146/146/146 144/144/144
f 41/41/41 39/39/39 33/33/33
f 33/33/33 39/39/39 37/37/37
f 33/33/33 37/37/37 34/34/34
f 34/34/34 37/37/37 38/38/38
f 34/34/34 38/38/38 31/31/31
f 31/31/31 38/38/38 30/30/30
f 31/31/31 30/30/30 29/29/29
f 29/29/29 30/30/30 32/32/32
f 29/29/29 32/32/32 42/42/42
f 42/42/42 32/32/32 36/36/36
f 42/42/42 36/36/36 43/43/43
f 43/43/43 36/36/36 35/35/35
f 43/43/43 35/35/35 44/44/44
f 44/44/44 35/35/35 40/40/40
f 36/36/36 32/32/32 35/35/35
f 35/35/35 32/32/32 30/30/30
f 35/35/35 30/30/30 40/40/40
f 40/40/40 30/30/30 38/38/38
f 34/34/34 31/31/31 33/33/33
f 33/33/33 31/31/31 29/29/29
f 33/33/33 29/29/29 41/41/41
f 41/41/41 29/29/29 42/42/42
f 69/69/69 70/70/70 68/68/68
f 69/69/69 68/68/68 67/67/67
f 67/67/67 68/68/68 66/66/66
f 67/67/67 66/66/66 65/65/65
f 65/65/65 66/66/66 64/64/64
f 65/65/65 64/64/64 63/63/63
f 63/63/63 64/64/64 59/59/59
f 72/72/72 66/66/66 68/68/68
f 72/72/72 68/68/68 71/71/71
f 71/71/71 68/68/68 70/70/70
f 80/80/80 81/81/81 79/79/79
f 80/80/80 79/79/79 78/78/78
f 78/78/78 79/79/79 75/75/75
f 78/78/78 75/75/75 77/77/77
f 139/139/139 140/140/140 138/138/138
f 139/139/139 138/138/138 136/136/136
f 136/136/136 138/138/138 137/137/137
f 136/136/136 137/137/137 132/132/132
f 143/143/143 144/144/144 142/142/142
f 143/143/143 142/142/142 140/140/140
f 140/140/140 142/142/142 141/141/141
f 140/140/140 141/141/141 138/138/138
f 145/145/145 142/142/142 144/144/144
f 145/145/145 144/144/144 146/146/146
f 159/159/159 158/158/158 153/153/153
f 153/153/153 158/158/158 150/150/150
f 153/153/153 150/150/150 151/151/151
f 151/151/151 150/150/150 152/152/152
f 151/151/151 152/152/152 154/154/154
f 154/154/154 152/152/152 155/155/155
f 159/159/159 153/153/153 157/157/157
f 157/157/157 153/153/153 151/151/151
f 157/157/157 151/151/151 156/156/156
f 156/156/156 151/151/151 154/154/154
f 155/155/155 152/152/152 161/161/161
f 161/161/161 152/152/152 150/150/150
f 161/161/161 150/150/150 160/160/160
f 160/160/160 150/150/150 158/158/158
f 170/170/170 171/171/171 165/165/165
f 165/165/165 171/171/171 162/162/162
f 165/165/165 162/162/162 163/163/163
f 163/163/163 162/162/162 164/164/164
f 163/163/163 164/164/164 166/166/166
f 166/166/166 164/164/164 167/167/167
f 170/170/170 165/165/165 169/169/169
f 169/169/169 165/165/165 163/163/163
f 169/169/169 163/163/163 168/168/168
f 168/168/168 163/163/163 166/166/166
f 167/167/167 164/164/164 173/173/173
f 173/173/173 164/164/164 162/162/162
f 173/173/173 162/162/162 172/172/172
f 172/172/172 162/162/162 171/171/171

