g NewMesh_tris_96
v -1.293592 1.998418 -4.189484
v -4.813031 2.699583 -0.1691611
v -4.834803 3.393275 -3.920989
v -1.433595 0.9633805 -0.5197441
v -3.877671 3.433201 -5.236244
v -5.446867 3.25587 -0.821218
v -6.679229 4.343913 -3.705463
v -2.79661 2.052007 -2.41755
v -3.881225 2.976969 -2.799474
v -3.684173 3.456977 -8.009032
v -1.486467 1.9466 -5.43445
v -6.236242 4.14838 -5.411239
v -3.420983 2.27037 -1.264533
v 0.5022826 1.018834 -3.617634
v -0.5932063 0.6450536 -0.4653569
v -2.461815 2.339327 -4.481969
v -2.236207 1.981737 -2.096052
v -4.349977 1.254994 2.101597
v -5.213745 2.807826 -0.7584602
v -1.525348 0.1508267 0.6388625
v -7.481248 3.880113 0.6274548
v -3.590505 2.450168 -1.932665
v -4.8617 1.706585 1.186646
v -6.389589 4.348562 -2.611031
v 0.4721954 1.096929 -2.444823
v -3.821143 1.547872 0.70533
v -3.030032 2.461233 -2.880257
v -0.4528201 -0.1493524 1.005923
v -3.327076 2.685611 -3.781821
v 1.366638 0.7905131 -4.672568
v -0.7260005 1.190438 -1.722519
v -1.377194 1.94732 -6.764229
v -1.144564 1.810503 -4.376606
v -4.693269 3.781359 -6.914816
v -1.798616 2.192579 -7.680508
v -4.192961 3.093059 -3.63374
v -4.678189 2.017201 0.7720749
v -8.014088 3.795947 4.497089
v -8.012898 3.748918 0.7397014
v -4.871466 1.735895 4.514225
v -9.289751 4.464307 4.117033
v -7.564487 4.302176 -1.048252
v -6.419712 2.678813 2.258388
v -10.64769 5.765864 0.7492979
v -11.77729 6.971695 1.070254
v -7.930175 4.050249 0.642141
v -10.02313 4.94242 3.213718
v -9.895929 5.808909 -1.556126
v -7.354105 4.910716 -5.682199
v -10.57277 7.28002 -1.930019
v -10.77832 6.736166 -5.767567
v -7.350737 5.119463 -1.806478
v -8.038473 5.34605 -7.250484
v -7.976962 5.547522 -1.678716
v -10.43204 6.837593 -4.488126
v -5.806702 3.724485 -4.426621
v -9.071228 6.226897 -2.325629
v -6.971565 4.626064 -6.601799
v -6.320999 4.121264 -3.140171
v -9.923068 6.432909 -5.774232
v -3.365158 3.447223 -9.252645
v -2.469859 2.424665 -4.315423
v -5.217785 3.894702 -6.16834
v -0.7902637 1.6551 -7.43506
v 2.943475 0.3325759 -9.328002
v -2.113487 2.717416 -9.013545
v 0.300491 1.651655 -11.97273
v 0.3569965 1.037575 -6.406864
v 2.194345 1.752177 -13.4822
v 5.293613 -0.3924798 -9.353625
v 1.466999 0.5184035 -9.79248
v 5.925661 0.4710031 -13.16416
v 0.3333003 2.526061 -13.81914
v 5.572357 1.66229 -14.98321
v 3.195189 0.553181 -12.16694
v 2.615179 3.304644 -16.81903
v 2.923816 1.786214 -13.45126
v -0.9698493 4.230476 -15.82662
v 2.369176 3.100953 -16.82572
v -0.5423156 2.590624 -12.57835
v -2.50249 3.663526 -14.77841
v -2.632169 3.336146 -9.198983
v -5.347571 3.849127 -12.03282
v 0.1350617 2.757945 -11.96942
v -3.355605 3.693392 -11.72951
v -5.374997 5.228515 -16.37127
v -2.200665 3.561165 -15.28969
v -6.671803 5.012891 -12.86442
v -3.958719 3.842037 -9.62537
v -3.883227 4.148721 -15.09719
v -1.584556 2.550536 -12.41003
v -6.439736 5.092608 -12.33453
v 3.42027 -0.101734 -3.153176
v 4.137019 -1.865151 1.4082
v 1.488653 -0.2796011 -0.2405486
v 5.920303 -1.994792 -1.600001
v -3.86567 3.441826 -7.109861
v -7.679782 5.451622 -9.967514
v -4.443088 3.901519 -10.6968
v -7.251431 4.654359 -6.419027
v -0.2060673 1.237081 -3.481064
v 2.591848 -0.652912 0.4592148
v -0.8786287 0.4814437 0.05084928
v 3.14149 -0.2400379 -3.149825
v -3.439348 1.662215 5.636864
v -2.098623 0.5109371 1.191125
v -0.7046286 0.210167 4.263509
v -4.957626 1.64623 2.609026
v -6.656119 2.867081 4.480122
v -4.240495 1.888284 0.3056752
v -3.786525 1.068135 3.661575
v -7.287633 3.383755 1.092639
v -11.39153 7.37651 -1.537903
v -7.360306 4.767307 -2.012121
v -9.478209 5.48767 0.5699953
v -9.463856 6.371982 -4.17357
v 0.9079545 0.6485704 -5.633489
v 4.201371 -0.1025138 -9.155045
v 4.002127 -0.8800884 -5.794636
v 0.9681031 1.111158 -9.0568
v -11.79721 7.845837 -2.530486
v -8.000562 4.99537 -0.8911476
v -10.89133 6.429489 0.6030976
v -9.104444 6.115932 -4.080472
v -8.466221 5.930813 -2.700833
v -5.545934 2.75983 0.3963343
v -8.861693 4.493442 0.7490415
v -5.343906 3.894889 -3.180661
v -6.681185 4.630242 -1.599007
v -7.802026 5.188477 -6.113214
v -5.474741 3.489642 -4.470373
v -9.196088 6.05056 -3.229705
v 2.271662 -0.187185 -1.560643
v -0.7814324 1.901105 -4.511928
v 2.264012 0.541475 -4.830812
v -0.8993468 0.868756 -1.326748
v -1.872787 0.2805579 1.20746
v 1.761207 -0.02443158 4.431951
v -1.596658 0.7308718 4.613276
v 1.396272 -0.8053567 1.094947
v -3.040299 1.996905 7.784461
v -7.384762 3.21716 5.451308
v -4.302424 1.668674 4.432448
v -6.249755 3.20937 8.864282
v -6.623705 2.925547 4.643317
v -8.013615 4.164362 8.975229
v -9.476928 4.031597 5.977618
v -5.277488 2.745292 7.692873
v -9.993784 5.151976 2.260346
v -7.565614 3.429598 6.879291
v -10.88984 5.27085 6.044578
v -6.874707 2.974598 3.077569
v 3.896296 -0.7465508 -5.796926
v 5.600626 0.1215214 -10.32365
v 6.939929 -1.231719 -7.411462
v 2.474937 0.2770419 -8.803221
v 8.334412 -1.21199 -8.250769
v 3.390058 -0.4500577 -6.298999
v 5.023823 -0.04015739 -9.707544
v 6.601772 -1.976976 -4.954082
v 4.712332 -0.5579658 -7.44371
v 9.351888 -1.987762 -6.42176
v 6.27796 -2.144972 -4.729126
v 7.713538 -0.7259776 -9.261207
v 5.244025 -1.456647 -4.424359
v 1.931558 0.9419842 -6.971859
v 4.792739 -0.7532422 -7.731811
v 2.213257 -0.05697852 -3.722183
v 3.302167 -0.06993327 -4.336166
v 7.728745 -2.73545 -3.611981
v 4.942592 -1.664339 -1.435493
v 5.902538 -1.462463 -6.560116
v 8.234766 -3.15748 -2.169726
v 4.093106 -1.091402 -0.6298785
v 5.602007 -1.532933 -3.704851
v 6.554111 -3.014554 0.8439354
v 0.4279096 2.743213 -13.93442
v 2.06047 0.6231642 -9.499077
v -1.039844 2.235643 -10.61197
v 3.372788 0.8075621 -12.91878
v -0.9208604 4.537262 -17.52193
v 1.637028 2.638701 -13.88871
v -1.661511 3.400858 -14.38126
v 2.30283 3.456406 -17.14323
v 0.5641695 0.3835321 3.778113
v 4.856203 -1.523866 4.12844
v 2.660277 -0.2528724 6.292288
v 2.621016 -1.188971 1.676595
v 8.065818 -2.953965 0.5241138
v 3.925685 -1.499675 2.490911
v 5.022549 -2.027081 -0.688783
v 6.852528 -2.751214 3.698786

vn 0.4185037 0.8830399 0.2123565
vn 0.4185037 0.8830399 0.2123565
vn 0.3722955 0.9130254 0.1666757
vn 0.4625688 0.8485323 0.2569499
vn 0.4498457 0.8715823 0.1948923
vn 0.4498457 0.8715823 0.1948923
vn 0.3894763 0.9043067 0.17475
vn 0.5079116 0.8343946 0.2140365
vn 0.4188974 0.9026193 0.09901211
vn 0.4188974 0.9026193 0.09901211
vn 0.4827077 0.8702313 0.09844151
vn 0.3529418 0.9303849 0.09907566
vn 0.4006916 0.8959711 0.1915256
vn 0.4006916 0.8959711 0.1915256
vn 0.4278412 0.8681301 0.2515992
vn 0.37149 0.9192239 0.1304711
vn 0.448243 0.8151689 0.3668484
vn 0.448243 0.8151689 0.3668484
vn 0.3916292 0.8530377 0.3448962
vn 0.5025614 0.7731257 0.3869221
vn 0.5137267 0.7872726 0.3410083
vn 0.5137267 0.7872726 0.3410083
vn 0.5348389 0.7464757 0.3958805
vn 0.4899837 0.8240378 0.2843898
vn 0.3493115 0.8684759 0.3517542
vn 0.3493115 0.8684759 0.3517542
vn 0.3139285 0.9011875 0.2988481
vn 0.3829058 0.8313169 0.4028591
vn 0.3872204 0.9177999 0.08777001
vn 0.3872204 0.9177999 0.08777001
vn 0.3952901 0.9049182 0.1576986
vn 0.3771679 0.9259816 0.01739193
vn 0.4476951 0.8917127 0.06646454
vn 0.4476951 0.8917127 0.06646454
vn 0.4823156 0.8759781 0.005843524
vn 0.4107819 0.9028809 0.1267452
vn 0.5045624 0.862447 0.04002542
vn 0.5045624 0.862447 0.04002542
vn 0.46094 0.8873639 -0.01093833
vn 0.5456009 0.8331134 0.0907842
vn 0.5454358 0.8234434 0.1563351
vn 0.5454358 0.8234434 0.1563351
vn 0.5995377 0.7808129 0.1757438
vn 0.4885409 0.8618571 0.1361257
vn 0.6082812 0.77793 0.1575404
vn 0.6082812 0.77793 0.1575404
vn 0.6048478 0.7631602 0.2274771
vn 0.6085995 0.7887161 0.08679704
vn 0.5141435 0.8521929 -0.09707602
vn 0.5141435 0.8521929 -0.09707602
vn 0.4681123 0.8711017 -0.1485022
vn 0.5575419 0.82892 -0.04515275
vn 0.5583301 0.8288316 -0.03613408
vn 0.5583301 0.8288316 -0.03613408
vn 0.4975749 0.8666388 -0.03683044
vn 0.6162261 0.7867799 -0.03525268
vn 0.5583301 0.8288316 -0.03613414
vn 0.5583301 0.8288316 -0.03613414
vn 0.6081588 0.7938141 0.001441697
vn 0.5056422 0.8596047 -0.07352493
vn 0.4710577 0.8768427 0.09618461
vn 0.4710577 0.8768427 0.09618461
vn 0.4080188 0.9058748 0.1136288
vn 0.5316843 0.8433203 0.07824788
vn 0.4294374 0.8981146 0.09472886
vn 0.4294374 0.8981146 0.09472886
vn 0.4276162 0.9036573 0.02340544
vn 0.4290595 0.8879727 0.1655672
vn 0.2376563 0.923441 0.301291
vn 0.2376563 0.923441 0.301291
vn 0.1800077 0.921683 0.3436539
vn 0.2940879 0.9204701 0.2573853
vn 0.2443826 0.8476709 0.4708835
vn 0.2443826 0.8476709 0.4708835
vn 0.2513876 0.8093015 0.5308818
vn 0.2361261 0.8816993 0.4084739
vn 0.3424338 0.8758763 0.3399703
vn 0.3424338 0.8758763 0.3399703
vn 0.3817948 0.8806865 0.2803998
vn 0.3013192 0.8665807 0.3977998
vn 0.1941325 0.9790168 0.06195719
vn 0.1941325 0.9790168 0.06195719
vn 0.1234998 0.9904688 0.06098748
vn 0.2637711 0.9625512 0.06260961
vn 0.3738908 0.9167642 0.1405314
vn 0.3738908 0.9167642 0.1405314
vn 0.4333829 0.8947896 0.107382
vn 0.3124841 0.9340441 0.1729611
vn 0.463803 0.8841696 0.05595476
vn 0.463803 0.8841696 0.05595476
vn 0.5259664 0.8487365 0.05482643
vn 0.3992645 0.9150749 0.05679655
vn 0.4183838 0.8673446 0.2695709
vn 0.4183838 0.8673446 0.2695709
vn 0.35319 0.8899412 0.2885509
vn 0.481435 0.8403063 0.2492104
vn 0.401781 0.9098516 0.1036441
vn 0.401781 0.9098516 0.1036441
vn 0.4395821 0.8971127 0.04423153
vn 0.3619223 0.9179312 0.162526
vn 0.3302393 0.9208726 0.207209
vn 0.3302393 0.9208726 0.207209
vn 0.2739882 0.9284583 0.2507903
vn 0.3847993 0.9085712 0.1625665
vn 0.3621672 0.9230301 -0.1298091
vn 0.3621672 0.9230301 -0.1298091
vn 0.4248165 0.8991994 -0.1047444
vn 0.2976633 0.9421338 -0.154209
vn 0.502942 0.8596774 0.0894656
vn 0.502942 0.8596774 0.0894656
vn 0.5525319 0.8238259 0.126568
vn 0.4507766 0.8911265 0.05190509
vn 0.5495829 0.8209885 0.1547146
vn 0.5495829 0.8209885 0.1547146
vn 0.547963 0.80578 0.2246227
vn 0.5483884 0.8319927 0.08401414
vn 0.3973801 0.8998858 0.1797069
vn 0.3973801 0.8998858 0.1797069
vn 0.440828 0.8683988 0.2270557
vn 0.3518972 0.9267645 0.1314378
vn 0.5495829 0.8209885 0.1547145
vn 0.5495829 0.8209885 0.1547145
vn 0.5227329 0.823351 0.221006
vn 0.5736185 0.8144218 0.0876307
vn 0.5080571 0.7939845 0.3338661
vn 0.5080571 0.7939845 0.3338661
vn 0.459361 0.8000158 0.3859562
vn 0.5541514 0.7838871 0.2800663
vn 0.55833 0.8288316 -0.03613406
vn 0.55833 0.8288316 -0.03613406
vn 0.6137104 0.7876145 -0.05498155
vn 0.5000904 0.8658043 -0.01710153
vn 0.3699199 0.8946871 0.250388
vn 0.3699199 0.8946871 0.250388
vn 0.4167807 0.88745 0.1967898
vn 0.3211648 0.8973425 0.3027039
vn 0.2543273 0.9468268 -0.1970704
vn 0.2543273 0.9468268 -0.1970704
vn 0.2097059 0.9669717 -0.1448767
vn 0.2976463 0.9218331 -0.2482548
vn 0.3488453 0.9221285 -0.1672901
vn 0.3488453 0.9221285 -0.1672901
vn 0.3753662 0.8980778 -0.229252
vn 0.320538 0.9414569 -0.1044715
vn 0.3462152 0.9254981 -0.1535842
vn 0.3462152 0.9254981 -0.1535842
vn 0.2816339 0.9426384 -0.1792071
vn 0.4090236 0.9036184 -0.1271749
vn 0.5204637 0.8527302 0.04437134
vn 0.5204637 0.8527302 0.04437134
vn 0.4668771 0.8804307 0.08287106
vn 0.571385 0.8206628 0.005644394
vn 0.2327829 0.935166 0.266977
vn 0.2327829 0.935166 0.266977
vn 0.2971652 0.9108148 0.2865475
vn 0.1672086 0.9547283 0.2460394
vn 0.2566893 0.9218355 0.290396
vn 0.2566893 0.9218355 0.290396
vn 0.2350173 0.9452692 0.2263471
vn 0.2770467 0.8936812 0.3529577
vn 0.204346 0.9138607 0.3508582
vn 0.204346 0.9138607 0.3508582
vn 0.1831291 0.8910662 0.415289
vn 0.2245163 0.9319753 0.2846307
vn 0.490676 0.8551564 0.1671666
vn 0.490676 0.8551564 0.1671666
vn 0.527706 0.8426324 0.107225
vn 0.4511333 0.8633012 0.2262521
vn 0.4963843 0.8587904 0.1268135
vn 0.4963843 0.8587904 0.1268135
vn 0.4819558 0.8538244 0.1967294
vn 0.5082708 0.8593585 0.05624826
vn 0.4908814 0.8534226 0.1752291
vn 0.4908814 0.8534226 0.1752291
vn 0.4756653 0.8729601 0.1080887
vn 0.5035837 0.8295147 0.2414721
vn 0.4183264 0.8697613 0.2617598
vn 0.4183264 0.8697613 0.2617598
vn 0.3563335 0.8872507 0.2929379
vn 0.478177 0.8478179 0.2292413
vn 0.2159523 0.9195011 0.3284544
vn 0.2159523 0.9195011 0.3284544
vn 0.1567246 0.9163246 0.3684925
vn 0.2740742 0.9179688 0.2867343
vn 0.4116725 0.8924604 -0.1844995
vn 0.4116725 0.8924604 -0.1844995
vn 0.4112146 0.9043893 -0.1139406
vn 0.4100223 0.8759612 -0.2541136
vn 0.3375299 0.9412022 0.01456011
vn 0.3375299 0.9412022 0.01456011
vn 0.3094501 0.9495616 -0.05072935
vn 0.3638812 0.9280229 0.07977501

vt 0.001209 0.003301
vt 0.502845 0.499311
vt 0.502845 0.003301
vt 0.001209 0.499311
vt 0.001209 0.003301
vt 0.502845 0.499311
vt 0.502845 0.003301
vt 0.001209 0.499311
vt 0.001209 0.003301
vt 0.502845 0.499311
vt 0.502845 0.003301
vt 0.001209 0.499311
vt 0.001209 0.003301
vt 0.502845 0.499311
vt 0.502845 0.003301
vt 0.001209 0.499311
vt 0.001209 0.003301
vt 0.502845 0.499311
vt 0.502845 0.003301
vt 0.001209 0.499311
vt 0.001209 0.003301
vt 0.502845 0.499311
vt 0.502845 0.003301
vt 0.001209 0.499311
vt 0.001209 0.003301
vt 0.502845 0.499311
vt 0.502845 0.003301
vt 0.001209 0.499311
vt 0.001209 0.003301
vt 0.502845 0.499311
vt 0.502845 0.003301
vt 0.001209 0.499311
vt 0.001209 0.003301
vt 0.502845 0.499311
vt 0.502845 0.003301
vt 0.001209 0.499311
vt 0.001209 0.003301
vt 0.502845 0.499311
vt 0.502845 0.003301
vt 0.001209 0.499311
vt 0.001209 0.003301
vt 0.502845 0.499311
vt 0.502845 0.003301
vt 0.001209 0.499311
vt 0.001209 0.003301
vt 0.502845 0.499311
vt 0.502845 0.003301
vt 0.001209 0.499311
vt 0.001209 0.003301
vt 0.502845 0.499311
vt 0.502845 0.003301
vt 0.001209 0.499311
vt 0.001209 0.003301
vt 0.502845 0.499311
vt 0.502845 0.003301
vt 0.001209 0.499311
vt 0.001209 0.003301
vt 0.502845 0.499311
vt 0.502845 0.003301
vt 0.001209 0.499311
vt 0.001209 0.003301
vt 0.502845 0.499311
vt 0.502845 0.003301
vt 0.001209 0.499311
vt 0.001209 0.003301
vt 0.502845 0.499311
vt 0.502845 0.003301
vt 0.001209 0.499311
vt 0.001209 0.003301
vt 0.502845 0.499311
vt 0.502845 0.003301
vt 0.001209 0.499311
vt 0.001209 0.003301
vt 0.502845 0.499311
vt 0.502845 0.003301
vt 0.001209 0.499311
vt 0.001209 0.003301
vt 0.502845 0.499311
vt 0.502845 0.003301
vt 0.001209 0.499311
vt 0.001209 0.003301
vt 0.502845 0.499311
vt 0.502845 0.003301
vt 0.001209 0.499311
vt 0.001209 0.003301
vt 0.502845 0.499311
vt 0.502845 0.003301
vt 0.001209 0.499311
vt 0.001209 0.003301
vt 0.502845 0.499311
vt 0.502845 0.003301
vt 0.001209 0.499311
vt 0.001209 0.003301
vt 0.502845 0.499311
vt 0.502845 0.003301
vt 0.001209 0.499311
vt 0.001209 0.003301
vt 0.502845 0.499311
vt 0.502845 0.003301
vt 0.001209 0.499311
vt 0.001209 0.003301
vt 0.502845 0.499311
vt 0.502845 0.003301
vt 0.001209 0.499311
vt 0.001209 0.003301
vt 0.502845 0.499311
vt 0.502845 0.003301
vt 0.001209 0.499311
vt 0.001209 0.003301
vt 0.502845 0.499311
vt 0.502845 0.003301
vt 0.001209 0.499311
vt 0.001209 0.003301
vt 0.502845 0.499311
vt 0.502845 0.003301
vt 0.001209 0.499311
vt 0.001209 0.003301
vt 0.502845 0.499311
vt 0.502845 0.003301
vt 0.001209 0.499311
vt 0.001209 0.003301
vt 0.502845 0.499311
vt 0.502845 0.003301
vt 0.001209 0.499311
vt 0.001209 0.003301
vt 0.502845 0.499311
vt 0.502845 0.003301
vt 0.001209 0.499311
vt 0.001209 0.003301
vt 0.502845 0.499311
vt 0.502845 0.003301
vt 0.001209 0.499311
vt 0.001209 0.003301
vt 0.502845 0.499311
vt 0.502845 0.003301
vt 0.001209 0.499311
vt 0.001209 0.003301
vt 0.502845 0.499311
vt 0.502845 0.003301
vt 0.001209 0.499311
vt 0.001209 0.003301
vt 0.502845 0.499311
vt 0.502845 0.003301
vt 0.001209 0.499311
vt 0.001209 0.003301
vt 0.502845 0.499311
vt 0.502845 0.003301
vt 0.001209 0.499311
vt 0.001209 0.003301
vt 0.502845 0.499311
vt 0.502845 0.003301
vt 0.001209 0.499311
vt 0.001209 0.003301
vt 0.502845 0.499311
vt 0.502845 0.003301
vt 0.001209 0.499311
vt 0.001209 0.003301
vt 0.502845 0.499311
vt 0.502845 0.003301
vt 0.001209 0.499311
vt 0.001209 0.003301
vt 0.502845 0.499311
vt 0.502845 0.003301
vt 0.001209 0.499311
vt 0.001209 0.003301
vt 0.502845 0.499311
vt 0.502845 0.003301
vt 0.001209 0.499311
vt 0.001209 0.003301
vt 0.502845 0.499311
vt 0.502845 0.003301
vt 0.001209 0.499311
vt 0.001209 0.003301
vt 0.502845 0.499311
vt 0.502845 0.003301
vt 0.001209 0.499311
vt 0.001209 0.003301
vt 0.502845 0.499311
vt 0.502845 0.003301
vt 0.001209 0.499311
vt 0.001209 0.003301
vt 0.502845 0.499311
vt 0.502845 0.003301
vt 0.001209 0.499311
vt 0.001209 0.003301
vt 0.502845 0.499311
vt 0.502845 0.003301
vt 0.001209 0.499311
vt 0.001209 0.003301
vt 0.502845 0.499311
vt 0.502845 0.003301
vt 0.001209 0.499311




usemtl TI_OrgGround_01_Dif
usemap TI_OrgGround_01_Dif
f 1/1/1 3/3/3 2/2/2
f 1/1/1 2/2/2 4/4/4
f 5/5/5 7/7/7 6/6/6
f 5/5/5 6/6/6 8/8/8
f 9/9/9 11/11/11 10/10/10
f 9/9/9 10/10/10 12/12/12
f 13/13/13 15/15/15 14/14/14
f 13/13/13 14/14/14 16/16/16
f 17/17/17 19/19/19 18/18/18
f 17/17/17 18/18/18 20/20/20
f 21/21/21 23/23/23 22/22/22
f 21/21/21 22/22/22 24/24/24
f 25/25/25 27/27/27 26/26/26
f 25/25/25 26/26/26 28/28/28
f 29/29/29 31/31/31 30/30/30
f 29/29/29 30/30/30 32/32/32
f 33/33/33 35/35/35 34/34/34
f 33/33/33 34/34/34 36/36/36
f 37/37/37 39/39/39 38/38/38
f 37/37/37 38/38/38 40/40/40
f 41/41/41 43/43/43 42/42/42
f 41/41/41 42/42/42 44/44/44
f 45/45/45 47/47/47 46/46/46
f 45/45/45 46/46/46 48/48/48
f 49/49/49 51/51/51 50/50/50
f 49/49/49 50/50/50 52/52/52
f 53/53/53 55/55/55 54/54/54
f 53/53/53 54/54/54 56/56/56
f 57/57/57 59/59/59 58/58/58
f 57/57/57 58/58/58 60/60/60
f 61/61/61 63/63/63 62/62/62
f 61/61/61 62/62/62 64/64/64
f 65/65/65 67/67/67 66/66/66
f 65/65/65 66/66/66 68/68/68
f 69/69/69 71/71/71 70/70/70
f 69/69/69 70/70/70 72/72/72
f 73/73/73 75/75/75 74/74/74
f 73/73/73 74/74/74 76/76/76
f 77/77/77 79/79/79 78/78/78
f 77/77/77 78/78/78 80/80/80
f 81/81/81 83/83/83 82/82/82
f 81/81/81 82/82/82 84/84/84
f 85/85/85 87/87/87 86/86/86
f 85/85/85 86/86/86 88/88/88
f 89/89/89 91/91/91 90/90/90
f 89/89/89 90/90/90 92/92/92
f 93/93/93 95/95/95 94/94/94
f 93/93/93 94/94/94 96/96/96
f 97/97/97 99/99/99 98/98/98
f 97/97/97 98/98/98 100/100/100
f 101/101/101 103/103/103 102/102/102
f 101/101/101 102/102/102 104/104/104
f 105/105/105 107/107/107 106/106/106
f 105/105/105 106/106/106 108/108/108
f 109/109/109 111/111/111 110/110/110
f 109/109/109 110/110/110 112/112/112
f 113/113/113 115/115/115 114/114/114
f 113/113/113 114/114/114 116/116/116
f 117/117/117 119/119/119 118/118/118
f 117/117/117 118/118/118 120/120/120
f 121/121/121 123/123/123 122/122/122
f 121/121/121 122/122/122 124/124/124
f 125/125/125 127/127/127 126/126/126
f 125/125/125 126/126/126 128/128/128
f 129/129/129 131/131/131 130/130/130
f 129/129/129 130/130/130 132/132/132
f 133/133/133 135/135/135 134/134/134
f 133/133/133 134/134/134 136/136/136
f 137/137/137 139/139/139 138/138/138
f 137/137/137 138/138/138 140/140/140
f 141/141/141 143/143/143 142/142/142
f 141/141/141 142/142/142 144/144/144
f 145/145/145 147/147/147 146/146/146
f 145/145/145 146/146/146 148/148/148
f 149/149/149 151/151/151 150/150/150
f 149/149/149 150/150/150 152/152/152
f 153/153/153 155/155/155 154/154/154
f 153/153/153 154/154/154 156/156/156
f 157/157/157 159/159/159 158/158/158
f 157/157/157 158/158/158 160/160/160
f 161/161/161 163/163/163 162/162/162
f 161/161/161 162/162/162 164/164/164
f 165/165/165 167/167/167 166/166/166
f 165/165/165 166/166/166 168/168/168
f 169/169/169 171/171/171 170/170/170
f 169/169/169 170/170/170 172/172/172
f 173/173/173 175/175/175 174/174/174
f 173/173/173 174/174/174 176/176/176
f 177/177/177 179/179/179 178/178/178
f 177/177/177 178/178/178 180/180/180
f 181/181/181 183/183/183 182/182/182
f 181/181/181 182/182/182 184/184/184
f 185/185/185 187/187/187 186/186/186
f 185/185/185 186/186/186 188/188/188
f 189/189/189 191/191/191 190/190/190
f 189/189/189 190/190/190 192/192/192

