g NewMesh_tris_100
v -0.008075 -0.1202953 0.2250949
v 0.05464022 -0.5845297 0.6323813
v -0.02088205 -0.4112075 0.1712144
v -0.198552 0.5491223 -0.5629108
v 0.01776321 -0.7793745 0.4701011
v 0.04564494 -0.6922488 0.596469
v -0.1796278 0.6712407 -0.3838038
v 0.1695691 -0.4312395 0.12261
v -0.001480274 0.5406844 -0.6307753
v -0.02088205 -0.4112075 0.1712144
v -0.198552 0.5491223 -0.5629108
v 0.01776321 -0.7793745 0.4701011
v 0.2205808 -0.781916 0.4351569
v 0.1695691 -0.4312395 0.12261
v 0.1966691 -0.1184488 0.2010131
v -0.001480274 0.5406844 -0.6307753
v 0.2574642 -0.587077 0.597429
v 0.04054451 0.6904012 -0.4191626
v 0.2205808 -0.781916 0.4351569
v 0.2484625 -0.6947903 0.5615247
v 0.04054451 0.6904012 -0.4191626
v -0.008075 -0.1202953 0.2250949
v -0.1796278 0.6712407 -0.3838038
v 0.1966691 -0.1184488 0.2010131
v 0.05464022 -0.5845297 0.6323813
v 0.2574642 -0.587077 0.597429
v -0.001480274 0.5406844 -0.6307753
v -0.1796278 0.6712407 -0.3838038
v -0.198552 0.5491223 -0.5629108
v 0.04054451 0.6904012 -0.4191626
v 0.2484625 -0.6947903 0.5615247
v 0.01776321 -0.7793745 0.4701011
v 0.04564494 -0.6922488 0.596469
v 0.2205808 -0.781916 0.4351569
v 0.05464022 -0.5845297 0.6323813
v 0.2574642 -0.587077 0.597429
v -0.6259457 -0.3370878 0.2486397
v -0.5091905 -0.7735711 0.5779355
v -0.5518305 -0.3171604 0.522651
v -0.7305948 0.4968186 -0.1964009
v -0.4524665 -0.6389415 0.7875821
v -0.4802091 -0.7507098 0.6825566
v -0.7499599 0.3425975 -0.3484169
v -0.7361287 -0.3151228 0.5938048
v -0.9270425 0.5163351 -0.1294072
v -0.5518305 -0.3171604 0.522651
v -0.7305948 0.4968186 -0.1964009
v -0.4524665 -0.6389415 0.7875821
v -0.6506293 -0.6500704 0.8420811
v -0.7361287 -0.3151228 0.5938048
v -0.8252949 -0.3580663 0.2968142
v -0.9270425 0.5163351 -0.1294072
v -0.7073594 -0.7846946 0.6324431
v -0.9699779 0.3305747 -0.3097283
v -0.6506293 -0.6500704 0.8420811
v -0.678372 -0.7618387 0.7370556
v -0.9699779 0.3305747 -0.3097283
v -0.6259457 -0.3370878 0.2486397
v -0.7499599 0.3425975 -0.3484169
v -0.8252949 -0.3580663 0.2968142
v -0.5091905 -0.7735711 0.5779355
v -0.7073594 -0.7846946 0.6324431
v -0.9270425 0.5163351 -0.1294072
v -0.7499599 0.3425975 -0.3484169
v -0.7305948 0.4968186 -0.1964009
v -0.9699779 0.3305747 -0.3097283
v -0.678372 -0.7618387 0.7370556
v -0.4524665 -0.6389415 0.7875821
v -0.4802091 -0.7507098 0.6825566
v -0.6506293 -0.6500704 0.8420811
v -0.5091905 -0.7735711 0.5779355
v -0.7073594 -0.7846946 0.6324431
v -0.04979031 -0.7932715 0.5195076
v 0.5437257 -0.7719655 0.3389144
v 0.1699998 -0.6345858 0.6387058
v -1.023051 -0.6746079 0.8990312
v 0.6268475 -0.6005107 0.5102423
v 0.616814 -0.7044043 0.3943003
v -1.041905 -0.8041348 0.7251988
v 0.219027 -0.7678366 0.7760952
v -0.9905835 -0.8121942 1.052426
v 0.1699998 -0.6345858 0.6387058
v -1.023051 -0.6746079 0.8990312
v 0.6268475 -0.6005107 0.5102423
v 0.670559 -0.7563786 0.6373528
v 0.219027 -0.7678366 0.7760952
v -0.004436684 -0.9562907 0.6372842
v -0.9905835 -0.8121942 1.052426
v 0.5874404 -0.9278334 0.4660361
v -1.011945 -0.9840047 0.8549773
v 0.670559 -0.7563786 0.6373528
v 0.6605255 -0.8602722 0.5214106
v -1.011945 -0.9840047 0.8549773
v -0.04979031 -0.7932715 0.5195076
v -1.041905 -0.8041348 0.7251988
v -0.004436684 -0.9562907 0.6372842
v 0.5437257 -0.7719655 0.3389144
v 0.5874404 -0.9278334 0.4660361
v -0.9905835 -0.8121942 1.052426
v -1.041905 -0.8041348 0.7251988
v -1.023051 -0.6746079 0.8990312
v -1.011945 -0.9840047 0.8549773
v 0.6605255 -0.8602722 0.5214106
v 0.6268475 -0.6005107 0.5102423
v 0.616814 -0.7044043 0.3943003
v 0.670559 -0.7563786 0.6373528
v 0.5437257 -0.7719655 0.3389144
v 0.5874404 -0.9278334 0.4660361
v 2.33522 -5.55617 2.253156
v 2.261286 -5.640729 2.155818
v 2.057483 -4.755446 1.778165
v 2.04375 -4.799124 1.69337
v 2.395844 -5.632496 2.092451
v 2.260859 -4.711672 1.810904
v 2.241023 -4.733443 1.71466
v 2.464562 -5.551244 2.269964
v 2.529956 -6.445811 2.624234
v 2.612911 -6.38668 2.711451
v 2.651955 -6.483527 2.544557
v 2.709504 -6.409933 2.649894
v 2.818813 -7.260181 3.146833
v 2.826373 -7.313275 2.979809
v 2.931873 -7.289564 2.973197
v 2.937763 -7.200939 3.139833
v 2.612911 -6.38668 2.711451
v 2.818813 -7.260181 3.146833
v 2.33522 -5.55617 2.253156
v 2.260859 -4.711672 1.810904
v 2.057483 -4.755446 1.778165
v 2.241023 -4.733443 1.71466
v 2.260859 -4.711672 1.810904
v 2.04375 -4.799124 1.69337
v 2.931873 -7.289564 2.973197
v 2.818813 -7.260181 3.146833
v 2.937763 -7.200939 3.139833
v 2.826373 -7.313275 2.979809

vn -0.9798205 0.006444055 0.1997752
vn -0.9836083 0.02459514 0.1786334
vn -0.9836233 0.01407534 0.1796865
vn -0.985278 -0.04781761 0.1641366
vn -0.9832145 0.02798977 0.1802941
vn -0.9804789 0.01560098 0.1960039
vn -0.9859705 -0.05518353 0.1575339
vn -0.2752321 -0.6254463 -0.7301125
vn -0.3179163 -0.6139011 -0.7225335
vn -0.2886223 -0.6212598 -0.7285145
vn -0.3200364 -0.6134929 -0.7219441
vn -0.1595651 -0.6582456 -0.7356982
vn -0.1351054 -0.6634725 -0.7359014
vn 0.9798455 -0.02814885 -0.1977635
vn 0.9765527 -0.02442045 -0.2138887
vn 0.979694 0.00525807 -0.2004293
vn 0.9818544 -0.0236263 -0.1881585
vn 0.9804246 0.009797093 -0.1966508
vn 0.9819974 -0.02229585 -0.1875739
vn 0.980486 -0.01564797 -0.1959656
vn 0.0521747 0.6213418 0.7818006
vn 0.06702047 0.6388614 0.7663969
vn 0.05063869 0.621368 0.7818809
vn 0.07228807 0.6394076 0.7654622
vn 0.128315 0.6490476 0.7498483
vn 0.1372866 0.6475686 0.7495381
vn -0.1965042 0.8328301 -0.5174748
vn -0.1989018 0.831813 -0.5181941
vn -0.1916684 0.8348831 -0.515978
vn -0.2026533 0.8301809 -0.5193565
vn 0.1325403 -0.5702062 0.8107393
vn 0.08091792 -0.8435004 0.5309984
vn 0.1315956 -0.5774089 0.8057802
vn 0.08091792 -0.8435004 0.5309984
vn 0.163116 -0.2167793 0.9624969
vn 0.163147 -0.2167614 0.9624956
vn 0.9641307 0.02302442 -0.2644275
vn 0.9594318 0.04722427 -0.277958
vn 0.9623428 0.04444795 -0.2681808
vn 0.9772429 0.04936013 -0.2063008
vn 0.9584645 0.04611208 -0.28146
vn 0.9617475 0.02833181 -0.2724685
vn 0.9786754 0.0546211 -0.1980182
vn 0.298459 0.6568936 0.6923966
vn 0.3373585 0.6608693 0.6704035
vn 0.3103829 0.6589851 0.6851285
vn 0.3393697 0.6608343 0.6694223
vn 0.1959937 0.6314926 0.7502024
vn 0.1740516 0.6254681 0.7605891
vn -0.9582053 -0.02860981 0.2846473
vn -0.9587928 -0.01176329 0.2838625
vn -0.9671443 -0.02040217 0.2534082
vn -0.9596421 -0.03752208 0.2787099
vn -0.9683654 -0.02343151 0.2484337
vn -0.9600218 -0.03789178 0.2773492
vn -0.9617354 -0.02837806 0.2725065
vn -0.07647347 -0.6585568 -0.7486352
vn -0.09774625 -0.6440484 -0.7587141
vn -0.07500603 -0.658294 -0.7490148
vn -0.1030557 -0.6442085 -0.7578752
vn -0.1614864 -0.6398154 -0.751371
vn -0.169688 -0.641725 -0.7479272
vn -0.116666 0.680265 -0.723622
vn -0.1142465 0.6813092 -0.7230251
vn -0.1215385 0.678115 -0.7248368
vn -0.1104565 0.6829718 -0.722045
vn 0.1597774 -0.9040915 0.3963455
vn 0.231637 -0.6698146 0.7054734
vn 0.1616884 -0.900328 0.4040623
vn 0.231637 -0.6698146 0.7054734
vn 0.06536464 -0.9972813 0.03402288
vn 0.06533036 -0.9972838 0.03401295
vn -0.1924437 0.7453976 -0.638238
vn -0.2183458 0.7473967 -0.6274738
vn -0.2089369 0.7517719 -0.6254475
vn -0.1636917 0.7859927 -0.5961716
vn -0.2203828 0.7450013 -0.6296067
vn -0.2020922 0.7430896 -0.6379471
vn -0.1605599 0.7920458 -0.5889685
vn 0.1296283 0.7497678 0.6488797
vn 0.111167 0.777567 0.6188954
vn 0.12301 0.7584929 0.6399664
vn 0.1104852 0.7789514 0.6172745
vn 0.1875919 0.6701788 0.7181015
vn 0.198831 0.6522604 0.7314525
vn 0.2118006 -0.7363639 0.6425796
vn 0.2005321 -0.7299743 0.6533945
vn 0.1821671 -0.7503163 0.6354845
vn 0.2127923 -0.7432289 0.634295
vn 0.1801937 -0.754203 0.6314332
vn 0.2119612 -0.7441365 0.6335088
vn 0.2021512 -0.743087 0.6379315
vn -0.1659396 -0.5796319 -0.7978038
vn -0.1835077 -0.5947285 -0.7827022
vn -0.1663586 -0.5783937 -0.7986148
vn -0.182905 -0.5990419 -0.7795476
vn -0.1822747 -0.6447625 -0.7423323
vn -0.1786296 -0.6514532 -0.7373604
vn -0.9935905 -0.0387966 0.1061741
vn -0.9937204 -0.03611136 0.105904
vn -0.9933093 -0.04422848 0.1066801
vn -0.9939057 -0.03187938 0.1055233
vn 0.8827041 -0.1224451 -0.4536969
vn 0.9761411 0.135162 -0.1699405
vn 0.8863571 -0.116798 -0.4480284
vn 0.9761411 0.135162 -0.1699405
vn 0.6582894 -0.3561962 -0.6631587
vn 0.6582823 -0.3562295 -0.6631477
vn -0.5103345 0.2691797 0.8167625
vn -0.9066176 -0.3879452 -0.1659607
vn -0.7504945 0.1711899 0.6383196
vn -0.6694131 -0.4166916 -0.6150237
vn 0.4089166 -0.3682181 -0.8349865
vn 0.7161739 0.4684524 0.5173462
vn 0.7015626 -0.149141 -0.6968263
vn 0.7363835 0.423988 0.527232
vn -0.9618551 -0.2735531 -0.001904864
vn -0.1474156 0.4601945 0.8754939
vn 0.2337811 -0.3524201 -0.9061713
vn 0.9195091 0.3825284 0.09041572
vn -0.7486434 0.07509849 0.6587057
vn -0.6345068 -0.5256314 -0.5666682
vn 0.695322 -0.17238 -0.6977194
vn 0.6023905 0.4868123 0.6325658
vn -0.1474156 0.4601945 0.8754939
vn -0.7486434 0.07509849 0.6587057
vn -0.5103345 0.2691797 0.8167625
vn 0.7161739 0.4684524 0.5173462
vn -0.233303 0.8980582 -0.372909
vn -0.2050284 0.9387588 -0.276939
vn -0.1905344 0.9544758 -0.2295048
vn -0.2462071 0.8741906 -0.4185367
vn 0.2975579 -0.8804682 0.3691003
vn 0.3408305 -0.8541515 0.3927591
vn 0.3937569 -0.817227 0.4208272
vn 0.2296673 -0.9153557 0.3307217

vt 0.6212 0.349379
vt 1.052653 0.364116
vt 0.753215 0.216466
vt -0.095778 0.22998
vt 1.084128 0.216466
vt 1.094295 0.307438
vt -0.082381 0.356871
vt 0.767291 0.470103
vt -0.095778 0.475854
vt 0.762704 0.559332
vt -0.086328 0.570313
vt 1.093435 0.570311
vt 1.095778 0.477727
vt 0.765572 0.129306
vt 0.617251 -0.008242
vt -0.093141 0.216079
vt 1.042636 -0.06397
vt -0.095778 0.062065
vt 1.090315 0.079265
vt 1.090315 -0.012273
vt -0.095778 0.465425
vt 0.615437 0.376981
vt -0.088074 0.364509
vt 0.620698 0.469715
vt 1.04696 0.364503
vt 1.04953 0.457084
vt 0.005006 0.724736
vt -0.095778 0.579982
vt -0.088321 0.707359
vt 0.005006 0.570701
vt 0.006039 0.641025
vt 0.100872 0.73254
vt 0.098652 0.641029
vt 0.00826 0.732535
vt 0.098009 0.570701
vt 0.005393 0.570701
vt 0.6212 0.349379
vt 1.052653 0.364116
vt 0.753215 0.216466
vt -0.095778 0.22998
vt 1.084128 0.216466
vt 1.094295 0.307438
vt -0.082381 0.356871
vt 0.767291 0.470103
vt -0.095778 0.475854
vt 0.762704 0.559332
vt -0.086328 0.570313
vt 1.093435 0.570311
vt 1.095778 0.477727
vt 0.765572 0.129306
vt 0.617251 -0.008242
vt -0.093141 0.216079
vt 1.042636 -0.06397
vt -0.095778 0.062065
vt 1.090315 0.079265
vt 1.090315 -0.012273
vt -0.095778 0.465425
vt 0.615437 0.376981
vt -0.088074 0.364509
vt 0.620698 0.469715
vt 1.04696 0.364503
vt 1.04953 0.457084
vt 0.005006 0.724736
vt -0.095778 0.579982
vt -0.088321 0.707359
vt 0.005006 0.570701
vt 0.006039 0.641025
vt 0.100872 0.73254
vt 0.098652 0.641029
vt 0.00826 0.732535
vt 0.098009 0.570701
vt 0.005393 0.570701
vt 0.6212 0.349379
vt 1.052653 0.364116
vt 0.753215 0.216466
vt -0.095778 0.22998
vt 1.084128 0.216466
vt 1.094295 0.307438
vt -0.082381 0.356871
vt 0.767291 0.470103
vt -0.095778 0.475854
vt 0.762704 0.559332
vt -0.086328 0.570313
vt 1.093435 0.570311
vt 1.095778 0.477727
vt 0.765572 0.129306
vt 0.617251 -0.008242
vt -0.093141 0.216079
vt 1.042636 -0.06397
vt -0.095778 0.062065
vt 1.090315 0.079265
vt 1.090315 -0.012273
vt -0.095778 0.465425
vt 0.615437 0.376981
vt -0.088074 0.364509
vt 0.620698 0.469715
vt 1.04696 0.364503
vt 1.04953 0.457084
vt 0.005006 0.724736
vt -0.095778 0.579982
vt -0.088321 0.707359
vt 0.005006 0.570701
vt 0.006039 0.641025
vt 0.100872 0.73254
vt 0.098652 0.641029
vt 0.00826 0.732535
vt 0.098009 0.570701
vt 0.005393 0.570701
vt 0.450693 0.149308
vt 0.434528 0.306358
vt 1.089199 0.352002
vt 1.073034 0.509052
vt 0.418363 0.463408
vt 1.105364 0.194952
vt 1.05687 0.666102
vt 0.402198 0.620458
vt -0.220143 0.260713
vt -0.203978 0.103664
vt -0.236308 0.417763
vt -0.252473 0.574813
vt -0.85865 0.058019
vt -0.874815 0.215069
vt -0.890979 0.372119
vt -0.907144 0.529169
vt -0.268638 0.731863
vt -0.923309 0.686219
vt 0.386033 0.777508
vt 1.040704 0.823152
vt 0.319064 0.338026
vt 0.09787 0.365875
vt 0.222391 0.462547
vt 0.194542 0.241354
vt 0.343324 0.078995
vt 0.328766 0.301459
vt 0.447277 0.197506
vt 0.224813 0.182948




usemtl TI_Wood_Dif
usemap TI_Wood_Dif
f 5/5/5 6/6/6 2/2/2
f 5/5/5 2/2/2 3/3/3
f 3/3/3 2/2/2 1/1/1
f 3/3/3 1/1/1 4/4/4
f 4/4/4 1/1/1 7/7/7
f 13/13/13 12/12/12 8/8/8
f 8/8/8 12/12/12 10/10/10
f 8/8/8 10/10/10 9/9/9
f 9/9/9 10/10/10 11/11/11
f 16/16/16 18/18/18 15/15/15
f 16/16/16 15/15/15 14/14/14
f 14/14/14 15/15/15 17/17/17
f 14/14/14 17/17/17 19/19/19
f 19/19/19 17/17/17 20/20/20
f 25/25/25 26/26/26 24/24/24
f 25/25/25 24/24/24 22/22/22
f 22/22/22 24/24/24 21/21/21
f 22/22/22 21/21/21 23/23/23
f 27/27/27 29/29/29 28/28/28
f 27/27/27 28/28/28 30/30/30
f 32/32/32 34/34/34 31/31/31
f 32/32/32 31/31/31 33/33/33
f 33/33/33 31/31/31 35/35/35
f 36/36/36 35/35/35 31/31/31
f 41/41/41 42/42/42 38/38/38
f 41/41/41 38/38/38 39/39/39
f 39/39/39 38/38/38 37/37/37
f 39/39/39 37/37/37 40/40/40
f 40/40/40 37/37/37 43/43/43
f 49/49/49 48/48/48 44/44/44
f 44/44/44 48/48/48 46/46/46
f 44/44/44 46/46/46 45/45/45
f 45/45/45 46/46/46 47/47/47
f 52/52/52 54/54/54 51/51/51
f 52/52/52 51/51/51 50/50/50
f 50/50/50 51/51/51 53/53/53
f 50/50/50 53/53/53 55/55/55
f 55/55/55 53/53/53 56/56/56
f 61/61/61 62/62/62 60/60/60
f 61/61/61 60/60/60 58/58/58
f 58/58/58 60/60/60 57/57/57
f 58/58/58 57/57/57 59/59/59
f 63/63/63 65/65/65 64/64/64
f 63/63/63 64/64/64 66/66/66
f 68/68/68 70/70/70 67/67/67
f 68/68/68 67/67/67 69/69/69
f 69/69/69 67/67/67 71/71/71
f 72/72/72 71/71/71 67/67/67
f 77/77/77 78/78/78 74/74/74
f 77/77/77 74/74/74 75/75/75
f 75/75/75 74/74/74 73/73/73
f 75/75/75 73/73/73 76/76/76
f 76/76/76 73/73/73 79/79/79
f 85/85/85 84/84/84 80/80/80
f 80/80/80 84/84/84 82/82/82
f 80/80/80 82/82/82 81/81/81
f 81/81/81 82/82/82 83/83/83
f 88/88/88 90/90/90 87/87/87
f 88/88/88 87/87/87 86/86/86
f 86/86/86 87/87/87 89/89/89
f 86/86/86 89/89/89 91/91/91
f 91/91/91 89/89/89 92/92/92
f 97/97/97 98/98/98 96/96/96
f 97/97/97 96/96/96 94/94/94
f 94/94/94 96/96/96 93/93/93
f 94/94/94 93/93/93 95/95/95
f 99/99/99 101/101/101 100/100/100
f 99/99/99 100/100/100 102/102/102
f 104/104/104 106/106/106 103/103/103
f 104/104/104 103/103/103 105/105/105
f 105/105/105 103/103/103 107/107/107
f 108/108/108 107/107/107 103/103/103
f 127/127/127 125/125/125 120/120/120
f 127/127/127 120/120/120 116/116/116
f 116/116/116 120/120/120 119/119/119
f 116/116/116 119/119/119 113/113/113
f 113/113/113 119/119/119 117/117/117
f 113/113/113 117/117/117 110/110/110
f 110/110/110 117/117/117 109/109/109
f 110/110/110 109/109/109 111/111/111
f 111/111/111 109/109/109 114/114/114
f 121/121/121 118/118/118 117/117/117
f 121/121/121 117/117/117 122/122/122
f 122/122/122 117/117/117 119/119/119
f 122/122/122 119/119/119 123/123/123
f 123/123/123 119/119/119 120/120/120
f 123/123/123 120/120/120 124/124/124
f 124/124/124 120/120/120 125/125/125
f 124/124/124 125/125/125 126/126/126
f 129/129/129 131/131/131 130/130/130
f 129/129/129 130/130/130 132/132/132
f 133/133/133 135/135/135 134/134/134
f 133/133/133 134/134/134 136/136/136
f 128/128/128 127/127/127 116/116/116
f 128/128/128 116/116/116 115/115/115
f 115/115/115 116/116/116 113/113/113
f 115/115/115 113/113/113 112/112/112
f 112/112/112 113/113/113 110/110/110
f 112/112/112 110/110/110 111/111/111
f 117/117/117 118/118/118 109/109/109

