g NewMesh_tris_144
v -0.0571629 -0.5035433 -0.4628738
v 0.3472814 0.3046789 -0.6690495
v -0.003157478 -0.01084028 -0.0003394614
v -0.2296787 -0.5906428 0.09201865
v -0.6332223 -1.3877 -0.5438278
v -0.1224189 -0.05139077 0.7394906
v -0.08059182 0.5684162 -0.1733061
v -0.2509613 0.4527566 0.3770128
v -0.5097333 1.254735 0.4665837
v 0.1173355 -1.4951 -0.8831047
v -0.151484 -2.316762 -1.217639
v 0.498604 -1.832843 -1.330513
v 0.6467844 -1.294503 -1.040263
v 0.09226763 -0.4974493 -0.5306898
v 1.209126 -1.699136 -1.531752
v 0.2262576 -2.133666 -1.785249
v 0.7560984 -1.917189 -1.918141
v 0.6774036 -2.207956 -2.710238
v 0.3628699 1.336972 -2.39082
v 1.594668 1.279078 -2.561723
v 0.742317 1.605681 -3.17363
v -0.07371379 1.66336 -2.961417
v -0.9587314 1.010942 -1.981678
v 0.3200187 2.123631 -3.928106
v 1.371967 1.18041 -3.478018
v 0.9083422 1.515111 -4.021841
v 1.540871 1.053085 -4.847516
v 11.48461 -0.420805 -3.406448
v 12.34 -0.9256381 -4.458649
v 11.99667 0.2374541 -4.057851
v 11.44851 0.4871575 -3.28193
v 10.22112 -0.2625869 -2.353949
v 12.14088 1.395458 -3.95541
v 12.07618 0.00972337 -4.978096
v 12.02789 0.9101828 -4.810628
v 12.07037 1.155754 -6.109729
v 2.997573 -1.221982 -1.462426
v 2.267884 -1.688166 -1.261982
v 2.892745 -1.809212 -1.720665
v 3.384748 -1.466954 -1.790257
v 3.615332 -0.4470542 -1.680563
v 3.352996 -2.225613 -2.084724
v 2.349871 -1.958511 -1.877093
v 2.756155 -2.186644 -2.193758
v 2.194116 -2.542796 -2.660085
v 3.077064 -1.089172 -1.452986
v 2.979856 -0.3349757 -0.9928883
v 2.545385 -0.9801444 -1.095291
v 2.681338 -1.485924 -1.39488
v 3.31832 -1.742505 -2.191007
v 2.030876 -1.446361 -0.9063953
v 2.317372 -0.4422988 -1.081014
v 1.940577 -0.8580388 -1.030286
v 1.339776 -0.3116612 -1.003781
v 2.487074 1.380598 -1.719663
v 1.85922 1.213684 -0.6332663
v 2.654997 0.6490855 -1.177712
v 3.073057 0.8621939 -1.897601
v 2.785791 1.716806 -3.093126
v 3.429893 -0.01922738 -1.233409
v 2.01898 0.2762626 -0.7915547
v 2.621479 -0.2141795 -0.9921633
v 2.029983 -1.115348 -0.5712742
v 4.36669 -1.274689 -1.630821
v 4.410808 -2.364815 -2.324605
v 5.19149 -1.684814 -1.844383
v 5.071898 -0.980248 -1.334804
v 3.967506 0.06045423 -1.143891
v 6.140051 -1.479046 -1.452531
v 5.293011 -2.035286 -2.612152
v 5.977095 -1.722222 -2.287094
v 6.576141 -2.013542 -3.263489
v 4.487949 1.481233 -6.78125
v 5.498441 0.8974756 -6.815475
v 4.516087 0.6394558 -6.641049
v 3.866463 1.091463 -6.683897
v 3.587056 2.438188 -6.559019
v 3.797169 0.02719529 -6.600189
v 5.102108 0.3464937 -6.24111
v 4.462229 -0.0163489 -6.160216
v 4.925646 -0.6815503 -5.466032
v -0.7054405 1.335848 -0.3843735
v -0.4274358 1.449159 -1.261403
v -0.7962534 1.925007 -0.7072594
v -0.9267319 1.802389 -0.1039742
v -1.10243 0.9008251 0.4949936
v -0.9964381 2.588254 -0.418735
v -0.9526495 1.919614 -1.296295
v -1.166254 2.373816 -0.9907987
v -1.571218 2.649765 -1.682183
v 3.693576 -1.199033 -1.53784
v 3.021028 -2.214403 -1.971845
v 4.107949 -1.875797 -2.052032
v 4.501499 -1.18786 -1.674874
v 4.056787 0.1783144 -1.150481
v 5.129955 -2.037842 -2.209836
v 3.682149 -2.221437 -2.701519
v 4.494157 -2.185911 -2.806512
v 4.376467 -2.652442 -3.886127
v 1.277115 -1.504695 -1.217265
v 1.252113 -2.369784 -1.419617
v 1.815212 -1.824155 -1.393081
v 1.779867 -1.250605 -1.209122
v 1.021423 -0.5255098 -1.142813
v 2.499534 -1.607273 -1.343844
v 1.782068 -2.226487 -1.815575
v 2.274265 -1.953596 -1.789872
v 2.538897 -2.367862 -2.436824
v 2.856922 -2.172549 -2.093496
v 3.557957 -1.605045 -1.404187
v 2.56388 -1.714935 -1.465826
v 2.153913 -2.162815 -1.940389
v 2.337137 -2.695955 -3.159175
v 1.711954 -1.697932 -1.1215
v 2.891281 -1.063208 -1.307371
v 2.184907 -1.08413 -1.171883
v 2.211166 -0.09018943 -0.8746036
v 2.920217 0.7654034 -1.403788
v 3.095606 -0.2605417 -0.6833766
v 3.75534 0.3739272 -1.3242
v 3.565204 1.098047 -1.746017
v 2.32598 1.713213 -2.31878
v 4.663328 0.7469901 -1.618461
v 3.813041 -0.4558682 -1.296951
v 4.43838 -0.08886372 -1.640521
v 4.921315 -1.116707 -1.862851
v 4.369295 -0.2725575 -1.212232
v 3.514137 -0.3048052 -0.9722021
v 3.998835 -0.7865072 -1.357592
v 4.59037 -0.7272908 -1.46069
v 5.265802 0.07483255 -1.536763
v 4.205152 -1.430492 -1.603508
v 3.443058 -0.7008665 -1.516492
v 3.689184 -1.147423 -1.756069
v 3.011524 -1.295126 -2.179335
v -1.136549 -1.886869 -0.4335794
v -0.3743643 -1.373276 -0.5544191
v -0.8205602 -1.59971 0.09301414
v -1.314606 -1.988753 0.1170285
v -2.092119 -2.316513 -0.5833245
v -0.9240758 -1.728576 0.8250619
v -0.5877519 -1.039973 0.0301911
v -0.7790515 -1.165853 0.5713124
v -0.5772285 -0.3831567 0.8258904
v 1.692682 -1.835039 -1.863888
v 1.770591 -1.165181 -1.227863
v 1.272393 -1.805752 -1.332747
v 1.293491 -2.256222 -1.77166
v 1.682239 -2.340843 -2.793504
v 0.7893404 -2.327076 -1.091713
v 1.077045 -1.262112 -1.138463
v 0.6936002 -1.700904 -1.063063
v 0.1297975 -1.154756 -0.7436808
v 1.364525 0.08788685 -1.086878
v 1.202422 -0.8362238 -0.9515539
v 1.869988 -0.3373803 -0.8764838
v 1.908208 0.3012494 -0.9457593
v 1.335142 1.084895 -1.506907
v 2.562886 -0.1544503 -0.6019304
v 1.901539 -0.9124642 -1.114616
v 2.432963 -0.6723446 -0.9698363
v 2.834947 -1.380428 -1.266479

vn -0.8744931 0.4289311 -0.2264505
vn -0.8939417 0.04858651 -0.4455419
vn -0.9528965 0.06987556 -0.2951366
vn -0.8927817 0.4123138 -0.1814886
vn -0.8187619 0.5488828 -0.1683938
vn -0.9860943 -0.04043547 -0.1611924
vn -0.8734173 -0.2510152 -0.4172934
vn -0.9181156 -0.2799373 -0.2805333
vn -0.907144 -0.2553461 -0.334497
vn -0.420229 0.4172675 -0.8057886
vn -0.5765809 0.6633013 -0.4770595
vn -0.4420273 0.6994926 -0.5615354
vn -0.3764579 0.4428187 -0.8137512
vn -0.3742534 0.3004844 -0.8772933
vn -0.2987866 0.7964867 -0.5256763
vn -0.4983827 0.8329973 -0.2402712
vn -0.367037 0.8887591 -0.2745743
vn -0.4219558 0.8638444 -0.2751838
vn -0.05973984 -0.8966904 -0.4386084
vn -0.3067588 -0.9485054 -0.07897225
vn -0.3658001 -0.903342 -0.2239724
vn -0.09595566 -0.8776653 -0.4695702
vn 0.04788952 -0.8507951 -0.5233108
vn -0.510519 -0.815109 -0.2738024
vn -0.5415752 -0.8373635 0.07428939
vn -0.6287664 -0.7771175 -0.02722851
vn -0.5874748 -0.8092378 0.002779436
vn -0.7349195 0.04270837 -0.676808
vn -0.9281756 -0.1578564 -0.3370034
vn -0.9322758 0.003147339 -0.3617346
vn -0.7435458 0.09119786 -0.6624367
vn -0.631973 0.08058255 -0.7707894
vn -0.9565656 0.1416535 -0.2547874
vn -0.9899331 -0.1349569 -0.04265317
vn -0.9998226 0.009110616 -0.01648992
vn -0.9980952 -0.04583316 -0.04129684
vn -0.4911574 0.342881 -0.8007477
vn -0.3225862 0.7093812 -0.6266709
vn -0.2489618 0.6217152 -0.7426225
vn -0.4509103 0.3293947 -0.8295655
vn -0.5502945 0.2112829 -0.8077966
vn -0.08046556 0.6041985 -0.7927607
vn -0.06722444 0.8416907 -0.5357591
vn 0.03818793 0.7837836 -0.6198588
vn -0.01396956 0.8027012 -0.5962177
vn -0.5149373 0.4347703 -0.7387925
vn -0.1690032 0.2645056 -0.9494602
vn -0.3114324 0.1873963 -0.9316075
vn -0.5452991 0.3934371 -0.740173
vn -0.5919836 0.4975957 -0.6339984
vn -0.3581315 0.01702257 -0.933516
vn -0.01434987 0.01048904 -0.9998421
vn -0.113084 -0.09752548 -0.9887876
vn -0.08462507 -0.04476696 -0.9954067
vn -0.6813728 -0.589078 -0.4344171
vn -0.6603681 -0.2468856 -0.7091978
vn -0.5715335 -0.3824457 -0.7260062
vn -0.6429377 -0.6166587 -0.4542722
vn -0.6809998 -0.6632195 -0.3104499
vn -0.4183026 -0.4177732 -0.8065289
vn -0.4739629 -0.07929428 -0.8769674
vn -0.3649678 -0.1697345 -0.9154173
vn -0.4170201 -0.1453206 -0.8972047
vn 0.1270013 0.4996921 -0.8568422
vn -0.2087159 0.7126276 -0.6697758
vn -0.05262945 0.7560504 -0.6523941
vn 0.1652887 0.5255595 -0.8345459
vn 0.2130047 0.3903352 -0.8956938
vn 0.03469851 0.8477753 -0.5292194
vn -0.2980337 0.8569737 -0.4204429
vn -0.175745 0.9148399 -0.3635681
vn -0.2177967 0.8905594 -0.3993353
vn 0.1292076 0.08011402 0.988376
vn 0.02576603 0.4906695 0.8709648
vn -0.08318409 0.3803608 0.9210896
vn 0.08155649 0.06219135 0.9947265
vn 0.1864754 -0.05229418 0.9810669
vn -0.2570845 0.3617004 0.8961476
vn -0.1799881 0.6598795 0.7294953
vn -0.3071785 0.5889226 0.747537
vn -0.2507764 0.6098475 0.7517961
vn -0.9018313 -0.2364451 -0.3616543
vn -0.8269461 -0.5577222 -0.07145689
vn -0.9067438 -0.4201384 -0.03604959
vn -0.9222882 -0.2021942 -0.3293963
vn -0.8756517 -0.1370066 -0.4631017
vn -0.9361891 -0.3323553 0.1144122
vn -0.7576096 -0.6158313 0.2162864
vn -0.8129656 -0.5034143 0.2926795
vn -0.7999539 -0.5450351 0.2510191
vn -0.1764771 0.4389625 -0.8810037
vn -0.2789709 0.754966 -0.5934657
vn -0.1318384 0.7382923 -0.6614705
vn -0.1262314 0.4486293 -0.8847584
vn -0.1632812 0.306755 -0.9376783
vn 0.0303892 0.7891555 -0.6134412
vn -0.1756651 0.9161225 -0.3603629
vn -0.03052572 0.924273 -0.3805097
vn -0.09015544 0.9177621 -0.3867619
vn -0.1021086 0.1874932 -0.9769442
vn -0.4015743 0.4531454 -0.7958626
vn -0.2489288 0.4985295 -0.830363
vn -0.06169744 0.2189436 -0.9737849
vn -0.01957831 0.07070637 -0.9973049
vn -0.1428969 0.6250396 -0.7674021
vn -0.4428209 0.6725122 -0.59299
vn -0.3152335 0.7448645 -0.5880517
vn -0.3624181 0.7104943 -0.6032007
vn -0.08390255 0.8401299 -0.5358564
vn -0.006977551 0.5364405 -0.8439093
vn -0.1560744 0.5829027 -0.7974116
vn -0.134896 0.8350908 -0.5333164
vn -0.07653547 0.9092208 -0.4092185
vn -0.3146644 0.5052922 -0.8035336
vn -0.1017513 0.273179 -0.9565668
vn -0.2462015 0.2700643 -0.930833
vn -0.1886751 0.2859753 -0.9394785
vn -0.1188515 -0.6185332 -0.776718
vn -0.4610461 -0.3459382 -0.8171676
vn -0.317718 -0.3234021 -0.8913284
vn -0.08433243 -0.5906717 -0.8024929
vn -0.01763954 -0.7001441 -0.7137835
vn -0.2352625 -0.1807112 -0.9549842
vn -0.5412359 -0.05598456 -0.839005
vn -0.4276651 0.01058334 -0.9038753
vn -0.4682091 -0.02895837 -0.883143
vn -0.3055636 0.3589356 -0.8819274
vn 0.01770649 0.6354228 -0.7719613
vn 0.03918013 0.502481 -0.8637
vn -0.2769259 0.32312 -0.9049339
vn -0.4185881 0.2702293 -0.8670409
vn 0.1792129 0.4005668 -0.8985706
vn 0.3081303 0.6524956 -0.6923188
vn 0.3725132 0.5373557 -0.756626
vn 0.3356115 0.582251 -0.7405057
vn -0.5260667 0.8497245 -0.0349567
vn -0.7474605 0.5877716 -0.3095596
vn -0.7826023 0.6038643 -0.1512664
vn -0.5491695 0.8356663 0.008641494
vn -0.4142942 0.9094957 0.03432029
vn -0.865135 0.500367 -0.03426917
vn -0.8860967 0.3210367 -0.3343174
vn -0.9357402 0.2908013 -0.1995616
vn -0.9149286 0.3171276 -0.2496714
vn -0.679835 0.5729495 -0.4577698
vn -0.4164282 0.4529417 -0.7883092
vn -0.5517353 0.3725036 -0.7462099
vn -0.7113971 0.5325112 -0.458635
vn -0.7209181 0.6121185 -0.3249431
vn -0.6056056 0.2057593 -0.7687035
vn -0.2952843 0.2161929 -0.9306277
vn -0.3922054 0.1073168 -0.9135962
vn -0.364147 0.160566 -0.9173961
vn 0.308008 -0.2330087 -0.9224087
vn 0.03456123 0.1033489 -0.9940444
vn 0.1953476 0.1198294 -0.9733859
vn 0.3506601 -0.2058944 -0.913589
vn 0.3623674 -0.3527755 -0.862693
vn 0.2976703 0.2537225 -0.9203354
vn -0.02500593 0.3897654 -0.9205747
vn 0.1051631 0.4488637 -0.8873906
vn 0.06009021 0.4145297 -0.9080497

vt 0.5 0.9999
vt 0.969382 0.957175
vt 0.469482 0.406921
vt 0.0001 0.5
vt 0.107064 0.883399
vt 0.10119 0.045876
vt 0.951072 0.445068
vt 0.384033 0.036111
vt 0.8805 0.105767
vt 0.5 0.9999
vt 0.969382 0.957175
vt 0.469482 0.406921
vt 0.0001 0.5
vt 0.107064 0.883399
vt 0.10119 0.045876
vt 0.951072 0.445068
vt 0.384033 0.036111
vt 0.8805 0.105767
vt 0.5 0.9999
vt 0.969382 0.957175
vt 0.469482 0.406921
vt 0.0001 0.5
vt 0.107064 0.883399
vt 0.10119 0.045876
vt 0.951072 0.445068
vt 0.384033 0.036111
vt 0.8805 0.105767
vt 0.5 0.9999
vt 0.969382 0.957175
vt 0.469482 0.406921
vt 0.0001 0.5
vt 0.107064 0.883399
vt 0.10119 0.045876
vt 0.951072 0.445068
vt 0.384033 0.036111
vt 0.8805 0.105767
vt 0.5 0.9999
vt 0.969382 0.957175
vt 0.469482 0.406921
vt 0.0001 0.5
vt 0.107064 0.883399
vt 0.10119 0.045876
vt 0.951072 0.445068
vt 0.384033 0.036111
vt 0.8805 0.105767
vt 0.5 0.9999
vt 0.969382 0.957175
vt 0.469482 0.406921
vt 0.0001 0.5
vt 0.107064 0.883399
vt 0.10119 0.045876
vt 0.951072 0.445068
vt 0.384033 0.036111
vt 0.8805 0.105767
vt 0.5 0.9999
vt 0.969382 0.957175
vt 0.469482 0.406921
vt 0.0001 0.5
vt 0.107064 0.883399
vt 0.10119 0.045876
vt 0.951072 0.445068
vt 0.384033 0.036111
vt 0.8805 0.105767
vt 0.5 0.9999
vt 0.969382 0.957175
vt 0.469482 0.406921
vt 0.0001 0.5
vt 0.107064 0.883399
vt 0.10119 0.045876
vt 0.951072 0.445068
vt 0.384033 0.036111
vt 0.8805 0.105767
vt 0.5 0.9999
vt 0.969382 0.957175
vt 0.469482 0.406921
vt 0.0001 0.5
vt 0.107064 0.883399
vt 0.10119 0.045876
vt 0.951072 0.445068
vt 0.384033 0.036111
vt 0.8805 0.105767
vt 0.5 0.9999
vt 0.969382 0.957175
vt 0.469482 0.406921
vt 0.0001 0.5
vt 0.107064 0.883399
vt 0.10119 0.045876
vt 0.951072 0.445068
vt 0.384033 0.036111
vt 0.8805 0.105767
vt 0.5 0.9999
vt 0.969382 0.957175
vt 0.469482 0.406921
vt 0.0001 0.5
vt 0.107064 0.883399
vt 0.10119 0.045876
vt 0.951072 0.445068
vt 0.384033 0.036111
vt 0.8805 0.105767
vt 0.5 0.9999
vt 0.969382 0.957175
vt 0.469482 0.406921
vt 0.0001 0.5
vt 0.107064 0.883399
vt 0.10119 0.045876
vt 0.951072 0.445068
vt 0.384033 0.036111
vt 0.8805 0.105767
vt 0.5 0.9999
vt 0.969382 0.957175
vt 0.469482 0.406921
vt 0.0001 0.5
vt 0.107064 0.883399
vt 0.10119 0.045876
vt 0.951072 0.445068
vt 0.384033 0.036111
vt 0.8805 0.105767
vt 0.5 0.9999
vt 0.969382 0.957175
vt 0.469482 0.406921
vt 0.0001 0.5
vt 0.107064 0.883399
vt 0.10119 0.045876
vt 0.951072 0.445068
vt 0.384033 0.036111
vt 0.8805 0.105767
vt 0.5 0.9999
vt 0.969382 0.957175
vt 0.469482 0.406921
vt 0.0001 0.5
vt 0.107064 0.883399
vt 0.10119 0.045876
vt 0.951072 0.445068
vt 0.384033 0.036111
vt 0.8805 0.105767
vt 0.5 0.9999
vt 0.969382 0.957175
vt 0.469482 0.406921
vt 0.0001 0.5
vt 0.107064 0.883399
vt 0.10119 0.045876
vt 0.951072 0.445068
vt 0.384033 0.036111
vt 0.8805 0.105767
vt 0.5 0.9999
vt 0.969382 0.957175
vt 0.469482 0.406921
vt 0.0001 0.5
vt 0.107064 0.883399
vt 0.10119 0.045876
vt 0.951072 0.445068
vt 0.384033 0.036111
vt 0.8805 0.105767
vt 0.5 0.9999
vt 0.969382 0.957175
vt 0.469482 0.406921
vt 0.0001 0.5
vt 0.107064 0.883399
vt 0.10119 0.045876
vt 0.951072 0.445068
vt 0.384033 0.036111
vt 0.8805 0.105767



vc 1 1 1 1
vc 1 1 1 1
vc 1 1 1 1
vc 1 1 1 1
vc 1 1 1 1
vc 1 1 1 1
vc 1 1 1 1
vc 1 1 1 1
vc 1 1 1 1
vc 1 1 1 1
vc 1 1 1 1
vc 1 1 1 1
vc 1 1 1 1
vc 1 1 1 1
vc 1 1 1 1
vc 1 1 1 1
vc 1 1 1 1
vc 1 1 1 1
vc 1 1 1 1
vc 1 1 1 1
vc 1 1 1 1
vc 1 1 1 1
vc 1 1 1 1
vc 1 1 1 1
vc 1 1 1 1
vc 1 1 1 1
vc 1 1 1 1
vc 1 1 1 1
vc 1 1 1 1
vc 1 1 1 1
vc 1 1 1 1
vc 1 1 1 1
vc 1 1 1 1
vc 1 1 1 1
vc 1 1 1 1
vc 1 1 1 1
vc 1 1 1 1
vc 1 1 1 1
vc 1 1 1 1
vc 1 1 1 1
vc 1 1 1 1
vc 1 1 1 1
vc 1 1 1 1
vc 1 1 1 1
vc 1 1 1 1
vc 1 1 1 1
vc 1 1 1 1
vc 1 1 1 1
vc 1 1 1 1
vc 1 1 1 1
vc 1 1 1 1
vc 1 1 1 1
vc 1 1 1 1
vc 1 1 1 1
vc 1 1 1 1
vc 1 1 1 1
vc 1 1 1 1
vc 1 1 1 1
vc 1 1 1 1
vc 1 1 1 1
vc 1 1 1 1
vc 1 1 1 1
vc 1 1 1 1
vc 1 1 1 1
vc 1 1 1 1
vc 1 1 1 1
vc 1 1 1 1
vc 1 1 1 1
vc 1 1 1 1
vc 1 1 1 1
vc 1 1 1 1
vc 1 1 1 1
vc 1 1 1 1
vc 1 1 1 1
vc 1 1 1 1
vc 1 1 1 1
vc 1 1 1 1
vc 1 1 1 1
vc 1 1 1 1
vc 1 1 1 1
vc 1 1 1 1
vc 1 1 1 1
vc 1 1 1 1
vc 1 1 1 1
vc 1 1 1 1
vc 1 1 1 1
vc 1 1 1 1
vc 1 1 1 1
vc 1 1 1 1
vc 1 1 1 1
vc 1 1 1 1
vc 1 1 1 1
vc 1 1 1 1
vc 1 1 1 1
vc 1 1 1 1
vc 1 1 1 1
vc 1 1 1 1
vc 1 1 1 1
vc 1 1 1 1
vc 1 1 1 1
vc 1 1 1 1
vc 1 1 1 1
vc 1 1 1 1
vc 1 1 1 1
vc 1 1 1 1
vc 1 1 1 1
vc 1 1 1 1
vc 1 1 1 1
vc 1 1 1 1
vc 1 1 1 1
vc 1 1 1 1
vc 1 1 1 1
vc 1 1 1 1
vc 1 1 1 1
vc 1 1 1 1
vc 1 1 1 1
vc 1 1 1 1
vc 1 1 1 1
vc 1 1 1 1
vc 1 1 1 1
vc 1 1 1 1
vc 1 1 1 1
vc 1 1 1 1
vc 1 1 1 1
vc 1 1 1 1
vc 1 1 1 1
vc 1 1 1 1
vc 1 1 1 1
vc 1 1 1 1
vc 1 1 1 1
vc 1 1 1 1
vc 1 1 1 1
vc 1 1 1 1
vc 1 1 1 1
vc 1 1 1 1
vc 1 1 1 1
vc 1 1 1 1
vc 1 1 1 1
vc 1 1 1 1
vc 1 1 1 1
vc 1 1 1 1
vc 1 1 1 1
vc 1 1 1 1
vc 1 1 1 1
vc 1 1 1 1
vc 1 1 1 1
vc 1 1 1 1
vc 1 1 1 1
vc 1 1 1 1
vc 1 1 1 1
vc 1 1 1 1
vc 1 1 1 1
vc 1 1 1 1
vc 1 1 1 1
vc 1 1 1 1
vc 1 1 1 1
vc 1 1 1 1
vc 1 1 1 1
vc 1 1 1 1
vc 1 1 1 1
vc 1 1 1 1
vc 1 1 1 1

usemtl TI_Spider_Web_02
usemap TI_Spider_Web_02
f 6/6/6 8/8/8 3/3/3
f 6/6/6 3/3/3 4/4/4
f 4/4/4 3/3/3 1/1/1
f 4/4/4 1/1/1 5/5/5
f 2/2/2 1/1/1 3/3/3
f 2/2/2 3/3/3 7/7/7
f 7/7/7 3/3/3 8/8/8
f 7/7/7 8/8/8 9/9/9
f 15/15/15 17/17/17 12/12/12
f 15/15/15 12/12/12 13/13/13
f 13/13/13 12/12/12 10/10/10
f 13/13/13 10/10/10 14/14/14
f 11/11/11 10/10/10 12/12/12
f 11/11/11 12/12/12 16/16/16
f 16/16/16 12/12/12 17/17/17
f 16/16/16 17/17/17 18/18/18
f 24/24/24 26/26/26 21/21/21
f 24/24/24 21/21/21 22/22/22
f 22/22/22 21/21/21 19/19/19
f 22/22/22 19/19/19 23/23/23
f 20/20/20 19/19/19 21/21/21
f 20/20/20 21/21/21 25/25/25
f 25/25/25 21/21/21 26/26/26
f 25/25/25 26/26/26 27/27/27
f 33/33/33 35/35/35 30/30/30
f 33/33/33 30/30/30 31/31/31
f 31/31/31 30/30/30 28/28/28
f 31/31/31 28/28/28 32/32/32
f 29/29/29 28/28/28 30/30/30
f 29/29/29 30/30/30 34/34/34
f 34/34/34 30/30/30 35/35/35
f 34/34/34 35/35/35 36/36/36
f 42/42/42 44/44/44 39/39/39
f 42/42/42 39/39/39 40/40/40
f 40/40/40 39/39/39 37/37/37
f 40/40/40 37/37/37 41/41/41
f 38/38/38 37/37/37 39/39/39
f 38/38/38 39/39/39 43/43/43
f 43/43/43 39/39/39 44/44/44
f 43/43/43 44/44/44 45/45/45
f 51/51/51 53/53/53 48/48/48
f 51/51/51 48/48/48 49/49/49
f 49/49/49 48/48/48 46/46/46
f 49/49/49 46/46/46 50/50/50
f 47/47/47 46/46/46 48/48/48
f 47/47/47 48/48/48 52/52/52
f 52/52/52 48/48/48 53/53/53
f 52/52/52 53/53/53 54/54/54
f 60/60/60 62/62/62 57/57/57
f 60/60/60 57/57/57 58/58/58
f 58/58/58 57/57/57 55/55/55
f 58/58/58 55/55/55 59/59/59
f 56/56/56 55/55/55 57/57/57
f 56/56/56 57/57/57 61/61/61
f 61/61/61 57/57/57 62/62/62
f 61/61/61 62/62/62 63/63/63
f 69/69/69 71/71/71 66/66/66
f 69/69/69 66/66/66 67/67/67
f 67/67/67 66/66/66 64/64/64
f 67/67/67 64/64/64 68/68/68
f 65/65/65 64/64/64 66/66/66
f 65/65/65 66/66/66 70/70/70
f 70/70/70 66/66/66 71/71/71
f 70/70/70 71/71/71 72/72/72
f 78/78/78 80/80/80 75/75/75
f 78/78/78 75/75/75 76/76/76
f 76/76/76 75/75/75 73/73/73
f 76/76/76 73/73/73 77/77/77
f 74/74/74 73/73/73 75/75/75
f 74/74/74 75/75/75 79/79/79
f 79/79/79 75/75/75 80/80/80
f 79/79/79 80/80/80 81/81/81
f 87/87/87 89/89/89 84/84/84
f 87/87/87 84/84/84 85/85/85
f 85/85/85 84/84/84 82/82/82
f 85/85/85 82/82/82 86/86/86
f 83/83/83 82/82/82 84/84/84
f 83/83/83 84/84/84 88/88/88
f 88/88/88 84/84/84 89/89/89
f 88/88/88 89/89/89 90/90/90
f 96/96/96 98/98/98 93/93/93
f 96/96/96 93/93/93 94/94/94
f 94/94/94 93/93/93 91/91/91
f 94/94/94 91/91/91 95/95/95
f 92/92/92 91/91/91 93/93/93
f 92/92/92 93/93/93 97/97/97
f 97/97/97 93/93/93 98/98/98
f 97/97/97 98/98/98 99/99/99
f 105/105/105 107/107/107 102/102/102
f 105/105/105 102/102/102 103/103/103
f 103/103/103 102/102/102 100/100/100
f 103/103/103 100/100/100 104/104/104
f 101/101/101 100/100/100 102/102/102
f 101/101/101 102/102/102 106/106/106
f 106/106/106 102/102/102 107/107/107
f 106/106/106 107/107/107 108/108/108
f 114/114/114 116/116/116 111/111/111
f 114/114/114 111/111/111 112/112/112
f 112/112/112 111/111/111 109/109/109
f 112/112/112 109/109/109 113/113/113
f 110/110/110 109/109/109 111/111/111
f 110/110/110 111/111/111 115/115/115
f 115/115/115 111/111/111 116/116/116
f 115/115/115 116/116/116 117/117/117
f 123/123/123 125/125/125 120/120/120
f 123/123/123 120/120/120 121/121/121
f 121/121/121 120/120/120 118/118/118
f 121/121/121 118/118/118 122/122/122
f 119/119/119 118/118/118 120/120/120
f 119/119/119 120/120/120 124/124/124
f 124/124/124 120/120/120 125/125/125
f 124/124/124 125/125/125 126/126/126
f 132/132/132 134/134/134 129/129/129
f 132/132/132 129/129/129 130/130/130
f 130/130/130 129/129/129 127/127/127
f 130/130/130 127/127/127 131/131/131
f 128/128/128 127/127/127 129/129/129
f 128/128/128 129/129/129 133/133/133
f 133/133/133 129/129/129 134/134/134
f 133/133/133 134/134/134 135/135/135
f 141/141/141 143/143/143 138/138/138
f 141/141/141 138/138/138 139/139/139
f 139/139/139 138/138/138 136/136/136
f 139/139/139 136/136/136 140/140/140
f 137/137/137 136/136/136 138/138/138
f 137/137/137 138/138/138 142/142/142
f 142/142/142 138/138/138 143/143/143
f 142/142/142 143/143/143 144/144/144
f 150/150/150 152/152/152 147/147/147
f 150/150/150 147/147/147 148/148/148
f 148/148/148 147/147/147 145/145/145
f 148/148/148 145/145/145 149/149/149
f 146/146/146 145/145/145 147/147/147
f 146/146/146 147/147/147 151/151/151
f 151/151/151 147/147/147 152/152/152
f 151/151/151 152/152/152 153/153/153
f 159/159/159 161/161/161 156/156/156
f 159/159/159 156/156/156 157/157/157
f 157/157/157 156/156/156 154/154/154
f 157/157/157 154/154/154 158/158/158
f 155/155/155 154/154/154 156/156/156
f 155/155/155 156/156/156 160/160/160
f 160/160/160 156/156/156 161/161/161
f 160/160/160 161/161/161 162/162/162

