g NewMesh_tris_54
v 0.257609 -0.07115746 -0.9305626
v -0.8680364 0.06669102 -0.2957369
v -0.8917358 -0.3193606 -0.276458
v 0.1951807 0.2962947 -0.9008253
v 0.8199175 0.3062563 0.2502323
v 0.1130766 0.1512077 0.7196014
v 0.1951807 0.2962947 -0.9008253
v 0.9311572 -0.05305998 0.2598142
v -0.5105681 0.06152052 0.5185977
v -0.1919491 -0.2659234 0.7667421
v -0.8680364 0.06669102 -0.2957369
v -0.1919491 -0.2659234 0.7667421
v -0.8680364 0.06669102 -0.2957369
v -0.5105681 0.06152052 0.5185977
v -0.8917358 -0.3193606 -0.276458
v -0.1919491 -0.2659234 0.7667421
v 0.257609 -0.07115746 -0.9305626
v 0.9311572 -0.05305998 0.2598142
v 0.1951807 0.2962947 -0.9008253
v 0.8199175 0.3062563 0.2502323
v 0.257609 -0.07115746 -0.9305626
v -0.8917358 -0.3193606 -0.276458
v 0.9311572 -0.05305998 0.2598142
v -0.1919491 -0.2659234 0.7667421
v 2.002912 -0.5099837 0.3715066
v 0.6208013 -0.3108372 0.5546568
v 1.958192 -0.8862991 1.916609
v 0.5390149 -0.5862183 1.811269
v 0.6859134 -0.2811971 0.3891106
v 2.005559 -0.4528297 1.953664
v 1.018203 -0.2942867 2.03359
v 2.076549 -0.09405649 0.4749385
v 1.958192 -0.8862991 1.916609
v 0.5390149 -0.5862183 1.811269
v 0.5390217 -0.5861805 1.811278
v 0.5166171 -0.07147028 1.494682
v 2.076549 -0.09405649 0.4749385
v 0.8674178 0.1159915 0.4911007
v 0.6218715 0.1057387 0.7071426
v 0.5390217 -0.5861805 1.811278
v 0.5390149 -0.5862183 1.811269
v 2.076549 -0.09405649 0.4749385
v 0.8475077 0.05696006 0.4761471
v 2.002912 -0.5099837 0.3715066
v 0.6859134 -0.2811971 0.3891106
v 0.8674178 0.1159915 0.4911007
v 2.002912 -0.5099837 0.3715066
v 1.958192 -0.8862991 1.916609
v 2.076549 -0.09405649 0.4749385
v 2.005559 -0.4528297 1.953664
v 0.4729957 -0.2058022 0.6269568
v 0.5166171 -0.07147028 1.494682
v 0.4738533 -0.2981396 0.6230208
v 0.6218715 0.1057387 0.7071426
v 0.8475077 0.05696006 0.4761471
v 0.8674178 0.1159915 0.4911007
v 0.5390149 -0.5862183 1.811269
v 0.5390217 -0.5861805 1.811278
v 0.6208013 -0.3108372 0.5546568
v 0.6859134 -0.2811971 0.3891106
v 1.289349 -0.4327956 2.739794
v 0.7842466 0.01997066 3.272568
v 0.3088455 -0.8367329 1.971171
v 1.306883 -0.7278666 2.972604
v 0.3230377 -0.0156426 3.136066
v 0.3864765 -0.003158664 3.429071
v 0.5389898 -0.1988277 3.537715
v 0.5389898 -0.1988277 3.537715
v 1.306883 -0.7278666 2.972604
v 0.2662553 -1.139672 2.186153
v 1.306883 -0.7278666 2.972604
v 0.3088455 -0.8367329 1.971171
v 1.289349 -0.4327956 2.739794
v 0.2662553 -1.139672 2.186153
v 0.3230377 -0.0156426 3.136066
v 0.4117421 -0.213452 3.490686
v 0.3088455 -0.8367329 1.971171
v 0.3864765 -0.003158664 3.429071
v 0.5389898 -0.1988277 3.537715
v 0.2662553 -1.139672 2.186153
v 0.4117421 -0.213452 3.490686
v 1.306883 -0.7278666 2.972604
v 0.5389898 -0.1988277 3.537715

vn 0.3052694 -0.4685288 -0.8290303
vn -0.8017687 0.5376427 -0.2609737
vn -0.7380441 -0.6339683 -0.2310307
vn 0.1136976 0.6670778 -0.7362609
vn 0.6381843 0.7385845 0.2172874
vn 0.10569 0.5819032 0.8063613
vn 0.1136976 0.6670778 -0.7362609
vn 0.889661 -0.4067165 0.2075692
vn -0.6650147 0.4914317 0.5623613
vn -0.154099 -0.5975441 0.7868892
vn -0.8017687 0.5376427 -0.2609737
vn -0.154099 -0.5975441 0.7868892
vn -0.8017687 0.5376427 -0.2609737
vn -0.6650147 0.4914317 0.5623613
vn -0.7380441 -0.6339683 -0.2310307
vn -0.154099 -0.5975441 0.7868892
vn 0.3052694 -0.4685288 -0.8290303
vn 0.889661 -0.4067165 0.2075692
vn 0.1136976 0.6670778 -0.7362609
vn 0.6381843 0.7385845 0.2172874
vn 0.3052694 -0.4685288 -0.8290303
vn -0.7380441 -0.6339683 -0.2310307
vn 0.889661 -0.4067165 0.2075692
vn -0.154099 -0.5975441 0.7868892
vn 0.487249 -0.5144348 -0.7056524
vn -0.3794215 -0.8540715 -0.3558107
vn 0.4680667 -0.7535957 0.4615267
vn -0.6811768 -0.616588 0.3947372
vn -0.4301225 -0.3449689 -0.8342609
vn 0.6605675 0.3889277 0.6421728
vn -0.1081876 0.444589 0.8891773
vn 0.6835788 0.5901425 -0.4294787
vn 0.4680667 -0.7535957 0.4615267
vn -0.6811768 -0.616588 0.3947372
vn -0.7127421 0.07815257 0.6970589
vn -0.6362038 0.6995468 0.3253902
vn 0.6835788 0.5901425 -0.4294787
vn -0.11504 0.8360145 -0.5365121
vn -0.4687813 0.870499 -0.1499181
vn -0.7127421 0.07815257 0.6970589
vn -0.6811768 -0.616588 0.3947372
vn 0.6835788 0.5901425 -0.4294787
vn -0.2972901 0.3482493 -0.8890113
vn 0.487249 -0.5144348 -0.7056524
vn -0.4301225 -0.3449689 -0.8342609
vn -0.11504 0.8360145 -0.5365121
vn 0.487249 -0.5144348 -0.7056524
vn 0.4680667 -0.7535957 0.4615267
vn 0.6835788 0.5901425 -0.4294787
vn 0.6605675 0.3889277 0.6421728
vn -0.8897179 0.1889095 -0.4155901
vn -0.6362038 0.6995468 0.3253902
vn -0.7376682 -0.4701998 -0.4845182
vn -0.4687813 0.870499 -0.1499181
vn -0.2972901 0.3482493 -0.8890113
vn -0.11504 0.8360145 -0.5365121
vn -0.6811768 -0.616588 0.3947372
vn -0.7127421 0.07815257 0.6970589
vn -0.3794215 -0.8540715 -0.3558107
vn -0.4301225 -0.3449689 -0.8342609
vn 0.830747 0.3806851 -0.4061261
vn 0.4891709 0.8453016 0.2148889
vn -0.2902424 0.04193607 -0.9560339
vn 0.7771105 -0.5419618 0.3199635
vn -0.6935787 0.6935629 -0.194728
vn -0.532876 0.660866 0.5284879
vn 0.114291 -0.1188411 0.9863136
vn 0.114291 -0.1188411 0.9863136
vn 0.7771105 -0.5419618 0.3199635
vn -0.4211644 -0.8507079 -0.3145099
vn 0.7771105 -0.5419618 0.3199635
vn -0.2902424 0.04193607 -0.9560339
vn 0.830747 0.3806851 -0.4061261
vn -0.4211644 -0.8507079 -0.3145099
vn -0.6935787 0.6935629 -0.194728
vn -0.6250359 -0.3255782 0.7094569
vn -0.2902424 0.04193607 -0.9560339
vn -0.532876 0.660866 0.5284879
vn 0.114291 -0.1188411 0.9863136
vn -0.4211644 -0.8507079 -0.3145099
vn -0.6250359 -0.3255782 0.7094569
vn 0.7771105 -0.5419618 0.3199635
vn 0.114291 -0.1188411 0.9863136

vt 0.381045 0.404082
vt 0.500195 0.000327
vt 0.381045 -0.031805
vt 0.500195 0.404081
vt 0.93228 0.380589
vt 0.896547 0.1387
vt 0.500195 0.404081
vt 1.0564 0.363815
vt 0.782099 -0.021714
vt 0.960079 -0.000539
vt 0.500195 0.000327
vt 0.963979 -0.001625
vt -0.054843 0.642054
vt 0.221592 0.636443
vt -0.054843 0.521385
vt 0.337543 0.523291
vt -0.054843 0.521158
vt 0.37262 0.521158
vt -0.054843 0.40431
vt 0.358604 0.404987
vt 0.381045 0.404082
vt 0.381045 -0.031805
vt -0.054843 0.404082
vt -0.018342 0.007276
vt 0.589822 0.38873
vt 0.588871 0.736756
vt 0.979969 0.437147
vt 0.903222 0.78826
vt 0.549137 0.716572
vt 0.097541 0.348898
vt 0.099631 0.568871
vt 0.483175 0.375495
vt -0.015949 0.349209
vt 0.022967 0.686249
vt 0.026581 0.685743
vt 0.183555 0.725297
vt 0.483175 0.375495
vt 0.445822 0.676486
vt 0.384682 0.729406
vt 0.026581 0.685743
vt 0.022967 0.686249
vt 0.483175 0.375495
vt 0.461084 0.680699
vt 0.589822 0.38873
vt 0.549137 0.716572
vt 0.445822 0.676486
vt 0.219582 0.352225
vt 0.253136 -0.031296
vt 0.114746 0.343053
vt 0.147478 -0.024114
vt 0.04398 0.22518
vt 0.139737 0.055021
vt 0.027774 0.214598
vt 0.121985 0.2528
vt 0.086212 0.336496
vt 0.103186 0.342042
vt 0.019582 -0.056907
vt 0.023443 -0.057164
vt -0.002521 0.24043
vt -0.010628 0.288398
vt 0.549372 0.000111
vt 0.546581 0.250599
vt 0.999889 0.042955
vt 0.417427 0.000111
vt 0.647418 0.35097
vt 0.544342 0.376922
vt 0.455609 0.337695
vt 0.455609 0.337695
vt 0.417427 0.000111
vt 0.859284 0.749269
vt 0.859284 0.321106
vt 0.742245 0.749269
vt 0.74292 0.339305
vt -0.111477 0.34717
vt 0.447456 0.553635
vt 0.535409 0.410312
vt -0.126458 0.497701
vt 0.555029 0.497374
vt 0.587763 0.392804
vt 0.000111 0.086651
vt 0.419427 0.36002
vt 0.417427 0.000111
vt 0.455609 0.337695




usemtl TI_StoneWall_Dif
usemap TI_StoneWall_Dif
f 40/40/40 41/41/41 31/31/31
f 68/68/68 69/69/69 62/62/62
f 1/1/1 3/3/3 2/2/2
f 1/1/1 2/2/2 4/4/4
f 7/7/7 11/11/11 9/9/9
f 7/7/7 9/9/9 6/6/6
f 6/6/6 9/9/9 10/10/10
f 5/5/5 7/7/7 6/6/6
f 5/5/5 6/6/6 8/8/8
f 8/8/8 6/6/6 12/12/12
f 15/15/15 16/16/16 14/14/14
f 15/15/15 14/14/14 13/13/13
f 19/19/19 20/20/20 18/18/18
f 19/19/19 18/18/18 17/17/17
f 23/23/23 24/24/24 22/22/22
f 23/23/23 22/22/22 21/21/21
f 27/27/27 28/28/28 26/26/26
f 27/27/27 26/26/26 25/25/25
f 25/25/25 26/26/26 29/29/29
f 30/30/30 32/32/32 31/31/31
f 30/30/30 31/31/31 33/33/33
f 33/33/33 31/31/31 34/34/34
f 36/36/36 35/35/35 31/31/31
f 36/36/36 31/31/31 37/37/37
f 38/38/38 39/39/39 36/36/36
f 38/38/38 36/36/36 32/32/32
f 44/44/44 45/45/45 43/43/43
f 44/44/44 43/43/43 42/42/42
f 42/42/42 43/43/43 46/46/46
f 49/49/49 50/50/50 48/48/48
f 49/49/49 48/48/48 47/47/47
f 59/59/59 57/57/57 53/53/53
f 53/53/53 57/57/57 52/52/52
f 53/53/53 52/52/52 51/51/51
f 51/51/51 52/52/52 54/54/54
f 51/51/51 54/54/54 55/55/55
f 55/55/55 54/54/54 56/56/56
f 57/57/57 58/58/58 52/52/52
f 63/63/63 65/65/65 62/62/62
f 63/63/63 62/62/62 61/61/61
f 61/61/61 62/62/62 64/64/64
f 62/62/62 65/65/65 66/66/66
f 62/62/62 66/66/66 67/67/67
f 72/72/72 73/73/73 71/71/71
f 72/72/72 71/71/71 70/70/70
f 79/79/79 78/78/78 76/76/76
f 76/76/76 78/78/78 75/75/75
f 76/76/76 75/75/75 74/74/74
f 74/74/74 75/75/75 77/77/77
f 82/82/82 83/83/83 81/81/81
f 82/82/82 81/81/81 80/80/80
f 59/59/59 53/53/53 51/51/51
f 59/59/59 51/51/51 60/60/60
f 60/60/60 51/51/51 55/55/55

