g NewMesh_tris_141
v -0.111179 0.1246636 0.0482723
v -0.2005496 0.05748381 0.1578405
v -0.2967157 0.09503051 0.08993632
v -0.3621283 0.05018902 0.0685254
v -0.02904513 0.09855576 0.2420748
v -0.01527769 0.093176 0.1468484
v -0.08732679 0.06427554 0.2651657
v -0.02285961 0.158117 -0.02045108
v -0.1439523 0.1426873 -0.05874178
v 0.04657001 0.02786976 0.2758223
v 0.06574036 0.08827029 0.1949837
v 0.2611838 0.02939019 0.2216251
v 0.2860199 -0.03809685 0.1820342
v 0.4060851 -0.05604991 0.1009713
v 0.1733847 0.1177494 -0.04066361
v 0.3200181 0.06812057 0.05051511
v 0.2932499 0.0622855 0.1497227
v 0.06159059 0.1287596 0.003785852
v 0.401778 0.00512647 0.1096812
v 0.03323811 0.1246068 -0.1099622
v -0.2010084 0.1370014 -0.1874089
v -0.252198 0.1380616 -0.009446218
v -0.3559352 0.1014875 0.01470642
v -0.3502488 0.03496581 -0.2086651
v -0.2005496 0.05748381 0.1578405
v -0.06798043 0.006329095 0.2586502
v -0.1581939 -0.01362588 0.1501344
v -0.3621283 0.05018902 0.0685254
v -0.3545446 -0.01346807 -0.02750655
v -0.3502488 0.03496581 -0.2086651
v -0.08732679 0.06427554 0.2651657
v 0.04657001 0.02786976 0.2758223
v 0.2860199 -0.03809685 0.1820342
v -0.1185692 -0.1351894 -0.1193521
v 0.1692391 -0.1256399 0.0218888
v 0.4060851 -0.05604991 0.1009713
v -0.133147 -0.06498449 0.3037473
v -0.1289661 -0.1100719 0.4087476
v -0.4700814 -0.07558936 0.3266022
v 0.1773196 -0.1745369 0.2633083
v -0.3576808 -0.02594772 0.1858209
v -0.1469414 -0.02876828 0.1459977
v -0.3230284 -0.06973004 -0.0310897
v -0.1570846 -0.07611313 -0.02078161
v 0.09681846 -0.1237294 0.01773683
v 0.2460146 -0.2495927 0.002440594
v -0.424208 -0.04667408 0.04758639
v -0.5144295 -0.1000249 -0.04477619
v -0.01009588 -0.07222496 0.2015385
v 0.102374 -0.1390861 0.2203335
v -0.5588317 -0.06668533 0.2175368
v -0.4900824 -0.04987264 0.1188876
v -0.5958873 -0.09008078 0.05990988
v -0.6321162 -0.1249849 0.1283452
v -0.6157267 -0.1365493 -0.04836392
v -0.6221163 -0.1833563 -0.02401026
v -0.5643173 -0.1052177 0.2505506
v -0.1207414 -0.3314568 0.08067326
v -0.5034245 -0.1745583 0.2767207
v -0.1486515 -0.1893158 0.3799185
v 0.1155332 -0.2299189 0.2981277
v 0.2127584 -0.2653587 0.1440853
v 0.2460146 -0.2495927 0.002440594
v -0.1289661 -0.1100719 0.4087476
v 0.1773196 -0.1745369 0.2633083
v -0.3601106 -0.1273472 0.3708033
v -0.4700814 -0.07558936 0.3266022
v -0.3871237 -0.2967599 0.005854256
v -0.5981418 -0.1757145 0.171472
v -0.6221163 -0.1833563 -0.02401026
v -0.5643173 -0.1052177 0.2505506
v -0.6321162 -0.1249849 0.1283452
v -0.0751213 -0.2834135 0.5706187
v -0.05768045 -0.3876393 0.6919975
v -0.5446135 -0.3512874 0.6037745
v 0.3704286 -0.3720115 0.463018
v -0.4013726 -0.2105676 0.4339358
v -0.1081282 -0.1699082 0.3749287
v -0.3605736 -0.1724718 0.1236818
v -0.1266877 -0.1636942 0.131294
v 0.2369964 -0.2104665 0.1572358
v 0.4600018 -0.3525836 0.07973761
v -0.5003793 -0.1882811 0.2411412
v -0.625999 -0.2321264 0.09637582
v 0.09206001 -0.2336391 0.4279222
v 0.258668 -0.3162193 0.4221479
v -0.6765202 -0.3047085 0.4632309
v -0.5880545 -0.2314135 0.336738
v -0.7350722 -0.273908 0.2426795
v -0.7776347 -0.3542962 0.320244
v -0.7638348 -0.2926162 0.07805531
v -0.765808 -0.366298 0.0908048
v -0.6776881 -0.3708958 0.4911127
v -0.03955922 -0.5430219 0.1572593
v -0.5826166 -0.4666543 0.4952443
v -0.07762181 -0.4838116 0.6198461
v 0.2924709 -0.4688229 0.4872877
v 0.423707 -0.4380889 0.2635751
v 0.4600018 -0.3525836 0.07973761
v -0.05768045 -0.3876393 0.6919975
v 0.3704286 -0.3720115 0.463018
v -0.3817771 -0.4248036 0.6385761
v -0.5446135 -0.3512874 0.6037745
v -0.4213664 -0.4997306 0.07738501
v -0.7214685 -0.4359103 0.3556366
v -0.765808 -0.366298 0.0908048
v -0.6776881 -0.3708958 0.4911127
v -0.7776347 -0.3542962 0.320244

vn -0.122979 0.9518725 0.28074
vn -0.5001534 0.328113 0.8013666
vn -0.339367 0.710703 0.6162235
vn -0.8282653 -0.09922329 0.5514809
vn 0.03273702 0.8662899 0.4984678
vn 0.151753 0.9828061 0.1051822
vn -0.4368301 0.3420143 0.831989
vn 0.07660747 0.9966471 0.02873573
vn -0.03207191 0.9988557 0.03547782
vn 0.1739486 -0.03730151 0.984048
vn 0.1565966 0.927591 0.3391941
vn 0.3814923 0.2791813 0.8812044
vn 0.2740291 -0.6574523 0.7019007
vn 0.452833 -0.5281272 0.718348
vn 0.1447655 0.9783106 0.1481598
vn 0.3093925 0.9349534 0.1736042
vn 0.3573163 0.8711779 0.3367108
vn 0.219782 0.9587113 0.1804679
vn 0.6622619 0.3206332 0.6772027
vn 0.1356792 0.9787069 -0.1540256
vn -0.2320794 0.9628679 -0.1379297
vn -0.1023862 0.9768862 0.1876449
vn -0.7542425 0.6489694 0.09978498
vn -0.9437835 0.06617054 -0.3238735
vn -0.5001534 0.328113 0.8013666
vn -0.2899807 -0.5871465 0.7557581
vn -0.4270418 -0.7320625 0.5307728
vn -0.8282653 -0.09922329 0.5514809
vn -0.7747129 -0.6242403 0.1007168
vn -0.9437835 0.06617054 -0.3238735
vn -0.4368301 0.3420143 0.831989
vn 0.1739486 -0.03730151 0.984048
vn 0.2740291 -0.6574523 0.7019007
vn -0.3093471 -0.9215948 0.2344513
vn -0.0370342 -0.9058682 0.4219377
vn 0.452833 -0.5281272 0.718348
vn 0.170467 0.9316233 0.320966
vn 0.1596463 0.3826657 0.9099892
vn -0.4098822 0.5056555 0.7591504
vn 0.7746929 0.3693016 0.5132908
vn -0.04696053 0.9958786 0.07759276
vn 0.1406514 0.9893437 -0.0376333
vn -0.004757111 0.9630328 -0.2693422
vn 0.129512 0.9517962 -0.2780482
vn 0.4756946 0.876863 -0.06946892
vn 0.9877673 -0.153552 -0.02715655
vn -0.1128964 0.9638256 -0.2414429
vn -0.2398924 0.918957 -0.3130013
vn 0.3806342 0.906608 0.182153
vn 0.4063405 0.9050864 0.1253242
vn -0.5395163 0.8007962 0.2600917
vn -0.2327272 0.9679066 -0.09484144
vn -0.5300244 0.8335289 -0.1558964
vn -0.9697313 0.1777596 0.1673994
vn -0.7643785 0.6013871 -0.2325064
vn -0.9012221 -0.4333561 0.001227129
vn -0.7627838 0.1122571 0.6368354
vn -0.04665448 -0.9414828 0.3338166
vn -0.4467348 -0.6396729 0.625497
vn -0.02937542 -0.6542348 0.7557209
vn 0.3809581 -0.5600481 0.7356746
vn 0.7224534 -0.6432245 0.253621
vn 0.9877673 -0.153552 -0.02715655
vn 0.1596463 0.3826657 0.9099892
vn 0.7746929 0.3693016 0.5132908
vn -0.2658389 -0.1726802 0.9484257
vn -0.4098822 0.5056555 0.7591504
vn -0.2849371 -0.9218014 0.2628554
vn -0.694167 -0.6201184 0.3654934
vn -0.9012221 -0.4333561 0.001227129
vn -0.7627838 0.1122571 0.6368354
vn -0.9697313 0.1777596 0.1673994
vn 0.1051203 0.8031031 0.5864938
vn 0.1653572 0.1035818 0.9807792
vn -0.418358 0.2129099 0.8829757
vn 0.762005 0.2675886 0.589699
vn -0.1270419 0.9172744 0.3774492
vn 0.05540877 0.9632266 0.2629149
vn -0.09695905 0.9946236 0.03636862
vn 0.03728997 0.9990475 0.02266123
vn 0.39706 0.8971841 0.1934009
vn 0.9951303 -0.04584622 -0.08725809
vn -0.2035048 0.9769275 0.0647935
vn -0.329203 0.9441381 -0.01512247
vn 0.3105787 0.8407235 0.4435368
vn 0.3338926 0.8587993 0.3885608
vn -0.593318 0.6314144 0.499289
vn -0.3169399 0.9254781 0.207459
vn -0.604229 0.7887771 0.1128624
vn -0.9732674 0.02820855 0.227936
vn -0.8213079 0.5698357 -0.0272169
vn -0.8608124 -0.495243 -0.1172037
vn -0.7418619 -0.1562767 0.6520877
vn 0.04669661 -0.9983847 0.03236297
vn -0.3645899 -0.8370599 0.4079275
vn 0.05765766 -0.8514044 0.5213312
vn 0.4574213 -0.717899 0.5247731
vn 0.7839735 -0.619794 0.03523026
vn 0.9951303 -0.04584622 -0.08725809
vn 0.1653572 0.1035818 0.9807792
vn 0.762005 0.2675886 0.589699
vn -0.2100116 -0.4744862 0.8548437
vn -0.418358 0.2129099 0.8829757
vn -0.1951874 -0.9804291 -0.0256991
vn -0.6235768 -0.7630777 0.1698952
vn -0.8608124 -0.495243 -0.1172037
vn -0.7418619 -0.1562767 0.6520877
vn -0.9732674 0.02820855 0.227936

vt 0.391346 0.858963
vt 0.443784 0.948885
vt 0.509844 0.88893
vt 0.572347 0.896463
vt 0.302732 0.952759
vt 0.309664 0.90278
vt 0.33459 0.987817
vt 0.34628 0.815345
vt 0.425713 0.797134
vt 0.23573 0.987817
vt 0.25037 0.920205
vt 0.122558 0.908643
vt 0.083693 0.930092
vt 0.033869 0.868
vt 0.234777 0.804079
vt 0.123288 0.825631
vt 0.114161 0.867589
vt 0.292307 0.823967
vt 0.067966 0.854113
vt 0.327014 0.767356
vt 0.482823 0.728024
vt 0.489902 0.825773
vt 0.555068 0.845271
vt 0.616434 0.778695
vt 0.509982 0.027565
vt 0.430467 0.029616
vt 0.483917 0.056327
vt 0.596581 0.06324
vt 0.591702 0.108992
vt 0.644099 0.131618
vt 0.439413 0.004635
vt 0.379193 0.023268
vt 0.278537 0.082433
vt 0.472675 0.154217
vt 0.360659 0.110586
vt 0.23584 0.123342
vt 0.337021 0.603618
vt 0.340585 0.531104
vt 0.104351 0.61556
vt 0.558425 0.608923
vt 0.19989 0.692374
vt 0.329569 0.697796
vt 0.234777 0.804079
vt 0.327014 0.767356
vt 0.482823 0.728024
vt 0.616434 0.778695
vt 0.171315 0.773831
vt 0.123288 0.825631
vt 0.41594 0.660873
vt 0.499524 0.639159
vt 0.065811 0.704048
vt 0.124869 0.74702
vt 0.068293 0.797643
vt 0.012646 0.776114
vt 0.067966 0.854113
vt 0.033869 0.868
vt 0.038675 0.679761
vt 0.472675 0.154217
vt 0.31556 0.221242
vt 0.465896 0.254371
vt 0.566346 0.220597
vt 0.605095 0.171681
vt 0.644099 0.131618
vt 0.474585 0.292659
vt 0.604618 0.231166
vt 0.375691 0.262515
vt 0.318232 0.273839
vt 0.360659 0.110586
vt 0.269423 0.186224
vt 0.23584 0.123342
vt 0.271828 0.233172
vt 0.23584 0.182591
vt 0.337021 0.603618
vt 0.340585 0.531104
vt 0.104351 0.61556
vt 0.558425 0.608923
vt 0.19989 0.692374
vt 0.329569 0.697796
vt 0.234777 0.804079
vt 0.327014 0.767356
vt 0.482823 0.728024
vt 0.616434 0.778695
vt 0.171315 0.773831
vt 0.123288 0.825631
vt 0.41594 0.660873
vt 0.499524 0.639159
vt 0.065811 0.704048
vt 0.124869 0.74702
vt 0.068293 0.797643
vt 0.012646 0.776114
vt 0.067966 0.854113
vt 0.033869 0.868
vt 0.038675 0.679761
vt 0.472675 0.154217
vt 0.31556 0.221242
vt 0.465896 0.254371
vt 0.566346 0.220597
vt 0.605095 0.171681
vt 0.644099 0.131618
vt 0.474585 0.292659
vt 0.604618 0.231166
vt 0.375691 0.262515
vt 0.318232 0.273839
vt 0.360659 0.110586
vt 0.269423 0.186224
vt 0.23584 0.123342
vt 0.271828 0.233172
vt 0.23584 0.182591




usemtl FO_Mushrooms_Dif
usemap FO_Mushrooms_Dif
f 28/28/28 30/30/30 29/29/29
f 28/28/28 29/29/29 27/27/27
f 27/27/27 29/29/29 34/34/34
f 27/27/27 34/34/34 26/26/26
f 26/26/26 34/34/34 35/35/35
f 26/26/26 35/35/35 33/33/33
f 33/33/33 35/35/35 36/36/36
f 54/54/54 57/57/57 51/51/51
f 54/54/54 51/51/51 53/53/53
f 53/53/53 51/51/51 52/52/52
f 53/53/53 52/52/52 48/48/48
f 48/48/48 52/52/52 47/47/47
f 48/48/48 47/47/47 43/43/43
f 43/43/43 47/47/47 41/41/41
f 43/43/43 41/41/41 42/42/42
f 42/42/42 41/41/41 37/37/37
f 42/42/42 37/37/37 49/49/49
f 49/49/49 37/37/37 50/50/50
f 49/49/49 50/50/50 45/45/45
f 45/45/45 50/50/50 40/40/40
f 45/45/45 40/40/40 46/46/46
f 53/53/53 48/48/48 55/55/55
f 53/53/53 55/55/55 54/54/54
f 54/54/54 55/55/55 56/56/56
f 90/90/90 93/93/93 87/87/87
f 90/90/90 87/87/87 89/89/89
f 89/89/89 87/87/87 88/88/88
f 89/89/89 88/88/88 84/84/84
f 84/84/84 88/88/88 83/83/83
f 84/84/84 83/83/83 79/79/79
f 79/79/79 83/83/83 77/77/77
f 79/79/79 77/77/77 78/78/78
f 78/78/78 77/77/77 73/73/73
f 78/78/78 73/73/73 85/85/85
f 85/85/85 73/73/73 86/86/86
f 85/85/85 86/86/86 81/81/81
f 81/81/81 86/86/86 76/76/76
f 81/81/81 76/76/76 82/82/82
f 89/89/89 84/84/84 91/91/91
f 89/89/89 91/91/91 90/90/90
f 90/90/90 91/91/91 92/92/92
f 4/4/4 2/2/2 3/3/3
f 4/4/4 3/3/3 23/23/23
f 23/23/23 3/3/3 22/22/22
f 23/23/23 22/22/22 21/21/21
f 21/21/21 22/22/22 9/9/9
f 21/21/21 9/9/9 20/20/20
f 20/20/20 9/9/9 8/8/8
f 20/20/20 8/8/8 18/18/18
f 18/18/18 8/8/8 6/6/6
f 18/18/18 6/6/6 15/15/15
f 15/15/15 6/6/6 11/11/11
f 15/15/15 11/11/11 16/16/16
f 16/16/16 11/11/11 17/17/17
f 16/16/16 17/17/17 19/19/19
f 19/19/19 17/17/17 12/12/12
f 19/19/19 12/12/12 14/14/14
f 14/14/14 12/12/12 13/13/13
f 7/7/7 10/10/10 5/5/5
f 7/7/7 5/5/5 2/2/2
f 2/2/2 5/5/5 1/1/1
f 2/2/2 1/1/1 3/3/3
f 3/3/3 1/1/1 9/9/9
f 3/3/3 9/9/9 22/22/22
f 8/8/8 9/9/9 1/1/1
f 8/8/8 1/1/1 6/6/6
f 6/6/6 1/1/1 5/5/5
f 6/6/6 5/5/5 11/11/11
f 11/11/11 5/5/5 10/10/10
f 11/11/11 10/10/10 12/12/12
f 12/12/12 10/10/10 13/13/13
f 18/18/18 15/15/15 20/20/20
f 24/24/24 4/4/4 23/23/23
f 24/24/24 23/23/23 21/21/21
f 32/32/32 31/31/31 26/26/26
f 26/26/26 31/31/31 25/25/25
f 26/26/26 25/25/25 27/27/27
f 27/27/27 25/25/25 28/28/28
f 33/33/33 32/32/32 26/26/26
f 29/29/29 30/30/30 34/34/34
f 38/38/38 40/40/40 37/37/37
f 38/38/38 37/37/37 39/39/39
f 39/39/39 37/37/37 41/41/41
f 39/39/39 41/41/41 51/51/51
f 51/51/51 41/41/41 52/52/52
f 44/44/44 43/43/43 42/42/42
f 44/44/44 42/42/42 45/45/45
f 45/45/45 42/42/42 49/49/49
f 57/57/57 39/39/39 51/51/51
f 63/63/63 65/65/65 62/62/62
f 63/63/63 62/62/62 58/58/58
f 58/58/58 62/62/62 61/61/61
f 58/58/58 61/61/61 60/60/60
f 60/60/60 61/61/61 64/64/64
f 60/60/60 64/64/64 66/66/66
f 66/66/66 64/64/64 67/67/67
f 66/66/66 67/67/67 59/59/59
f 59/59/59 67/67/67 71/71/71
f 59/59/59 71/71/71 69/69/69
f 69/69/69 71/71/71 72/72/72
f 69/69/69 72/72/72 70/70/70
f 61/61/61 62/62/62 65/65/65
f 61/61/61 65/65/65 64/64/64
f 58/58/58 60/60/60 59/59/59
f 58/58/58 59/59/59 68/68/68
f 68/68/68 59/59/59 69/69/69
f 68/68/68 69/69/69 70/70/70
f 74/74/74 76/76/76 73/73/73
f 74/74/74 73/73/73 75/75/75
f 75/75/75 73/73/73 77/77/77
f 75/75/75 77/77/77 87/87/87
f 87/87/87 77/77/77 88/88/88
f 80/80/80 79/79/79 78/78/78
f 80/80/80 78/78/78 81/81/81
f 81/81/81 78/78/78 85/85/85
f 93/93/93 75/75/75 87/87/87
f 99/99/99 101/101/101 98/98/98
f 99/99/99 98/98/98 94/94/94
f 94/94/94 98/98/98 97/97/97
f 94/94/94 97/97/97 96/96/96
f 96/96/96 97/97/97 100/100/100
f 96/96/96 100/100/100 102/102/102
f 102/102/102 100/100/100 103/103/103
f 102/102/102 103/103/103 95/95/95
f 95/95/95 103/103/103 107/107/107
f 95/95/95 107/107/107 105/105/105
f 105/105/105 107/107/107 108/108/108
f 105/105/105 108/108/108 106/106/106
f 97/97/97 98/98/98 101/101/101
f 97/97/97 101/101/101 100/100/100
f 94/94/94 96/96/96 95/95/95
f 94/94/94 95/95/95 104/104/104
f 104/104/104 95/95/95 105/105/105
f 104/104/104 105/105/105 106/106/106
f 11/11/11 12/12/12 17/17/17
f 37/37/37 40/40/40 50/50/50
f 47/47/47 52/52/52 41/41/41
f 66/66/66 59/59/59 60/60/60
f 73/73/73 76/76/76 86/86/86
f 83/83/83 88/88/88 77/77/77
f 102/102/102 95/95/95 96/96/96

