g NewMesh_tris_90
v -1.1638 0.8615358 -0.08726936
v 1.301463 -0.6067297 0.2058212
v -0.3974343 -0.4024941 1.326594
v 0.3974343 0.4024941 -1.326594
v -3.803512 0.7280343 -3.514829
v -0.182343 1.468269 -5.236759
v -1.103908 1.046202 -2.528543
v -2.794042 0.7165275 -6.22457
v -0.9156622 1.40997 -3.169638
v 3.02858 0.3872578 -3.780091
v 1.255724 0.4636625 -1.458685
v 0.7406744 0.9031626 -5.522821
v -2.48646 1.000281 -0.253215
v 1.007948 -0.1826513 1.130299
v -1.588754 -0.0895205 2.158073
v 0.01728159 0.5045062 -1.390464
v -2.364896 1.113339 -3.751402
v -4.867317 0.1972214 -6.890632
v -2.039937 0.8852184 -6.644556
v -5.054851 0.000477965 -3.983039
v -2.743164 0.8553505 -6.614989
v -6.432591 -0.2945286 -7.002528
v -4.322746 0.07838953 -8.733429
v -4.728951 0.07993567 -4.870881
v -2.459145 1.020976 -4.733117
v -6.288984 -0.0801247 -3.04383
v -5.123459 0.01892506 -5.881745
v -3.495559 0.4704205 -1.896788
v -4.695177 0.3932372 -3.658619
v -0.9255278 1.474688 -1.838974
v -3.630447 0.4882936 -0.7849854
v -1.863755 0.9279891 -4.706256
v -3.849449 0.5840997 -5.388322
v -8.045876 -0.6925154 -4.284594
v -6.39343 -0.4817465 -7.025795
v -5.357364 -0.09558885 -2.639977
v -4.813161 0.3979287 -0.8026147
v -7.589567 -0.5768845 -4.165702
v -4.51882 0.1763636 -3.950243
v -7.733255 -0.8160693 -1.008894
v -3.276165 0.8341182 -1.504269
v -6.976216 -0.3558019 -0.2557024
v -5.667944 -0.1198095 -2.827546
v -4.451746 0.1756528 1.058168
v -8.87168 -0.9478385 -0.03703371
v -6.310027 -0.1894032 -1.465897
v -6.86607 -0.4952968 0.5868399
v -8.219501 -0.9562375 -2.084246
v -6.548201 -0.3336847 -3.181256
v -10.78268 -1.427209 -3.775968
v -8.299391 -1.114013 -5.655504
v -8.914049 -1.110821 -1.284865
v -1.65422 1.225 -4.573132
v -0.2332097 1.155395 -2.119151
v -2.154181 0.8892574 -2.65374
v 0.2907782 1.185148 -4.061134
v 0.5334563 1.151357 -0.3204749
v -2.235637 1.149701 -3.290092
v 0.6424313 1.147467 -3.197953
v -2.310217 0.7155514 -0.444442
v 3.259301 -0.6857835 -2.045255
v 0.6031713 1.029824 -2.848541
v 2.376143 0.1217297 -4.025426
v 1.315996 -0.07798275 -0.9464974
v 4.899906 -0.5532041 -5.130633
v 4.303711 -1.309248 -0.9216756
v 2.528776 -0.3109106 -3.208371
v 6.503756 -1.975913 -2.9444
v 6.689812 -1.574045 -4.034039
v 3.161229 -0.03068289 -4.716747
v 5.284626 -0.8367661 -6.309204
v 4.409832 -1.15636 -2.510315
v 3.6755 -0.6742281 -2.433377
v 2.449813 -1.311854 0.8320348
v 1.469292 -0.3460525 -1.272412
v 4.509346 -1.974668 -0.4493285
v 2.107946 -0.9879052 0.03862307
v 2.704855 -2.332716 3.123431
v 0.7569956 -1.424028 2.003192
v 3.936059 -2.226198 1.038342
v 3.754899 -2.23891 1.778043
v 1.748942 -2.285489 4.851767
v 1.248338 -1.817621 2.340382
v 4.143325 -3.080683 4.210552
v -0.2962802 -1.224478 3.377987
v 1.85426 -0.9401667 0.4506911
v 1.985312 -2.223039 2.689773
v -0.5828465 -0.27418 0.9923555
v -0.06965882 0.7974085 -1.060865
v 3.072295 -1.411762 0.03889042
v 0.5397959 -0.8368931 1.171954
v 2.272155 -0.1304074 -2.358142
v 1.33499 0.6543152 -2.744188
v -0.5677827 0.6831043 -0.5432177
v -0.6190938 1.277502 -2.518514
v 1.262343 -0.2112903 -0.872508
v -0.8622794 1.191949 -1.601726
v -3.14861 0.471611 1.665324
v -3.669094 1.374251 -1.01284
v -0.4344825 -0.1121542 0.9230576
v -9.458001 -1.29092 1.250522
v -6.702284 -0.4669734 0.9133945
v -7.813766 -1.198772 2.47769
v -8.263138 -0.8580627 -0.3628214
v -14.73833 -2.425036 1.339122
v -12.29467 -1.573094 -0.5120876
v -12.52355 -2.136719 1.6609
v -14.43189 -2.193973 -0.8845323
v -15.87176 -2.2098 -1.062019
v -18.74114 -2.239447 -3.8349
v -15.91182 -2.251067 -3.891346
v -18.67028 -2.629167 -1.032848
v -14.87579 -2.311933 1.826424
v -16.37736 -2.605149 -1.996445
v -13.73309 -2.124652 -0.8543559
v -17.39777 -3.221856 0.6692362
v -13.16052 -2.173247 1.402106
v -17.06785 -2.753932 -0.2193061
v -14.39751 -1.876312 -1.345996
v -15.70985 -3.475784 2.389362
v -17.94067 -2.3099 -1.962024
v -14.51756 -1.959841 -3.626625
v -15.3748 -2.38989 -1.091125
v -17.05392 -2.2927 -4.523652
v -11.95721 -1.73375 -0.4663421
v -15.4846 -2.245268 -0.8500047
v -13.51155 -2.09223 -2.445988
v -13.87303 -2.271269 1.116124
v -14.66242 -2.049545 -0.6500153
v -11.30736 -1.634787 1.76346
v -14.0663 -2.576546 2.18624
v -11.80223 -1.541923 -1.138938
v -11.44137 -2.497599 5.164675
v -10.56911 -1.806392 1.994393
v -9.412028 -1.885844 4.075912
v -12.48562 -2.761998 3.039231
v -12.87852 -1.538496 0.8941123
v -10.71994 -2.035138 3.131477
v -12.9352 -2.280596 2.999159
v -10.64781 -1.622709 0.9383413
v -14.05286 -2.03845 1.517938
v -11.21422 -2.583687 4.827483
v -14.15361 -3.465751 4.286262
v -10.99196 -1.583081 1.884637
v -13.99438 -2.450494 3.414741
v -15.65417 -2.605389 -0.5862704
v -12.93756 -1.796755 0.6032348
v -16.51611 -3.682241 2.160773
v -11.66935 -2.54922 8.014406
v -10.95847 -2.321081 4.410457
v -9.620046 -1.789745 6.587402
v -12.82783 -3.436802 5.850403
v -10.12109 -1.658483 7.685859
v -9.032344 -1.545595 4.44601
v -8.042409 -1.03855 6.601171
v -10.95704 -2.500715 5.570765
v -8.581904 -1.135186 6.397925
v -5.934155 -0.1915243 4.752229
v -6.443089 -0.4901426 6.985552
v -7.947597 -1.166748 4.176985
v -7.829803 -0.9417279 5.69431
v -5.937069 -0.05928781 1.667771
v -4.905596 -0.02704407 4.714516
v -8.681989 -1.432001 2.631462
v -12.89876 -3.21859 4.66292
v -9.03103 -1.26187 4.956239
v -10.99876 -2.498502 6.978965
v -10.71853 -2.402674 2.644632
v -10.09349 -1.240281 9.353508
v -10.8691 -2.407443 6.492355
v -9.067717 -1.341404 7.342926
v -11.72348 -2.597645 8.575317
v -9.194097 -0.8513827 8.907729
v -12.13428 -2.269541 10.00547
v -10.90454 -2.270739 7.895232
v -10.24298 -1.169027 11.09046
v -10.04231 -1.12574 9.905816
v -8.338184 -0.9788291 6.880197
v -7.792579 -0.3956636 9.212104
v -10.42538 -2.040707 7.649346

vn 0.4399027 0.8142311 0.3788316
vn 0.4399027 0.8142311 0.3788316
vn 0.4076122 0.7793784 0.4758376
vn 0.4670605 0.8395836 0.2774054
vn -0.1987028 0.9800538 0.003445711
vn -0.1987028 0.9800538 0.003445711
vn -0.1528356 0.983057 0.1011941
vn -0.2422515 0.9656156 -0.09434289
vn 0.2606522 0.9628121 0.07108694
vn 0.2606522 0.9628121 0.07108694
vn 0.2726147 0.9456897 0.1770647
vn 0.2456484 0.9687005 -0.03572025
vn 0.2174544 0.9418769 0.2560885
vn 0.2174544 0.9418769 0.2560885
vn 0.1722211 0.9201209 0.3517346
vn 0.2601506 0.9526435 0.1574544
vn -0.3075974 0.9509675 -0.03232
vn -0.3075974 0.9509675 -0.03232
vn -0.226832 0.9685941 -0.1018457
vn -0.3847738 0.9222453 0.03758277
vn -0.2944035 0.9551671 -0.03134334
vn -0.2944035 0.9551671 -0.03134334
vn -0.2814052 0.9495519 -0.1384278
vn -0.3039668 0.9496377 0.07610681
vn -0.2749335 0.9614573 0.003380336
vn -0.2749335 0.9614573 0.003380336
vn -0.3138964 0.9445972 -0.09594335
vn -0.2327628 0.9670994 0.1026646
vn -0.2696903 0.9628519 -0.01354093
vn -0.2696903 0.9628519 -0.01354093
vn -0.3121929 0.9462652 0.08436704
vn -0.224041 0.9682044 -0.1112909
vn -0.294517 0.9555354 -0.01455787
vn -0.294517 0.9555354 -0.01455787
vn -0.3175054 0.9407524 -0.1190594
vn -0.2680923 0.9591694 0.09011348
vn -0.3107261 0.9503109 -0.01893313
vn -0.3107261 0.9503109 -0.01893313
vn -0.2313277 0.9687209 -0.089817
vn -0.3864991 0.9208129 0.05217165
vn -0.2995819 0.9538342 0.02123901
vn -0.2995819 0.9538342 0.02123901
vn -0.3299674 0.9404632 -0.08154961
vn -0.2657009 0.9560761 0.1237798
vn -0.2924593 0.9561302 -0.016808
vn -0.2924593 0.9561302 -0.016808
vn -0.2425699 0.9669621 0.07838277
vn -0.3389363 0.9341424 -0.1118027
vn -0.2452479 0.9688212 -0.03519762
vn -0.2452479 0.9688212 -0.03519762
vn -0.2287964 0.9630913 -0.1418001
vn -0.2588379 0.9632472 0.07181549
vn -0.07806829 0.9942418 0.07340749
vn -0.07806829 0.9942418 0.07340749
vn -0.1705809 0.9771904 0.1264945
vn 0.01535521 0.9996926 0.01946397
vn -0.07807491 0.9943261 0.07224844
vn -0.07807491 0.9943261 0.07224844
vn 0.0008143528 0.9999986 -0.001316981
vn -0.1560532 0.977052 0.1449709
vn 0.4812101 0.8483627 0.2207204
vn 0.4812101 0.8483627 0.2207204
vn 0.5134519 0.8500161 0.1176413
vn 0.4433536 0.8368109 0.3212241
vn 0.3652084 0.9058877 0.2144537
vn 0.3652084 0.9058877 0.2144537
vn 0.2637799 0.9421959 0.2066084
vn 0.4623757 0.8590099 0.2197968
vn 0.3689709 0.9152208 0.1619611
vn 0.3689709 0.9152208 0.1619611
vn 0.3909414 0.9186945 0.05625963
vn 0.3426955 0.9010685 0.2657728
vn 0.3812728 0.8698741 0.3129699
vn 0.3812728 0.8698741 0.3129699
vn 0.2865705 0.9143416 0.286106
vn 0.4715265 0.8152571 0.3361822
vn 0.3229284 0.888867 0.3250118
vn 0.3229284 0.888867 0.3250118
vn 0.2207175 0.9089968 0.3535651
vn 0.4213714 0.858366 0.2926664
vn 0.2816719 0.9388487 0.1980505
vn 0.2816719 0.9388487 0.1980505
vn 0.1949624 0.9704854 0.1419421
vn 0.3650948 0.8962578 0.2518482
vn 0.3934013 0.8413081 0.370724
vn 0.3934013 0.8413081 0.370724
vn 0.4671328 0.7787069 0.4188108
vn 0.3150798 0.894093 0.3183118
vn 0.4399026 0.8142312 0.3788315
vn 0.4399026 0.8142312 0.3788315
vn 0.3905678 0.7904081 0.4719234
vn 0.4841048 0.828554 0.2813195
vn 0.3926665 0.8591151 0.3282289
vn 0.3926665 0.8591151 0.3282289
vn 0.3206304 0.9092931 0.2652962
vn 0.4601212 0.7989132 0.387332
vn 0.210822 0.9131494 0.348873
vn 0.210822 0.9131494 0.348873
vn 0.1234939 0.947387 0.2953084
vn 0.2956902 0.8682575 0.398367
vn -0.2653744 0.9514244 0.1561026
vn -0.2653744 0.9514244 0.1561026
vn -0.2470895 0.9331843 0.260986
vn -0.280563 0.9585636 0.04939784
vn -0.2246631 0.9633206 0.1467649
vn -0.2246631 0.9633206 0.1467649
vn -0.1586635 0.9596415 0.2321936
vn -0.2880414 0.9557599 0.05962367
vn -0.07116513 0.9954731 0.06299865
vn -0.07116513 0.9954731 0.06299865
vn 0.003810585 0.9998856 -0.01463341
vn -0.1453105 0.9794458 0.1398956
vn -0.2737365 0.9612108 0.0337946
vn -0.2737365 0.9612108 0.0337946
vn -0.1761461 0.9843438 -0.006311943
vn -0.3681331 0.9268628 0.07350685
vn -0.2611941 0.9171686 0.3009643
vn -0.2611941 0.9171686 0.3009643
vn -0.2265214 0.9522195 0.204856
vn -0.2928191 0.8714164 0.3935611
vn -0.07116513 0.9954731 0.06299864
vn -0.07116513 0.9954731 0.06299864
vn -0.02336995 0.9869232 0.1594874
vn -0.11813 0.992408 -0.0342252
vn -0.1471266 0.9885069 0.03475433
vn -0.1471266 0.9885069 0.03475433
vn -0.1353925 0.9881269 -0.07262225
vn -0.1571441 0.9773533 0.1417254
vn -0.2246631 0.9633206 0.1467648
vn -0.2246631 0.9633206 0.1467648
vn -0.2821434 0.9308348 0.2322531
vn -0.1645614 0.9845666 0.05956417
vn -0.3095161 0.9432296 0.1204902
vn -0.3095161 0.9432296 0.1204902
vn -0.2090443 0.9658526 0.1530661
vn -0.4063765 0.9096012 0.08650848
vn -0.04524259 0.9651164 0.2578827
vn -0.04524259 0.9651164 0.2578827
vn -0.1233427 0.9369474 0.3269801
vn 0.03338541 0.9820246 0.1857765
vn -0.2548819 0.8950037 0.3660649
vn -0.2548819 0.8950037 0.3660649
vn -0.3310013 0.84357 0.4228801
vn -0.1757885 0.9359948 0.3049786
vn -0.4143878 0.8997184 0.1370749
vn -0.4143878 0.8997184 0.1370749
vn -0.3229203 0.9413887 0.09751682
vn -0.5010204 0.8475504 0.1750336
vn -0.4506213 0.8921267 -0.03241125
vn -0.4506213 0.8921267 -0.03241125
vn -0.3539859 0.9351903 -0.01062388
vn -0.5419989 0.8386539 -0.05382046
vn -0.4150167 0.9033823 -0.107989
vn -0.4150167 0.9033823 -0.107989
vn -0.3206683 0.9442286 -0.0748601
vn -0.5045227 0.8519956 -0.139858
vn -0.3547635 0.9342993 -0.03503837
vn -0.3547635 0.9342993 -0.03503837
vn -0.3028737 0.9512538 0.05816868
vn -0.402514 0.9064437 -0.1278366
vn -0.3643058 0.9307044 0.03272207
vn -0.3643058 0.9307044 0.03272207
vn -0.2723814 0.9586833 0.08206425
vn -0.4519795 0.8918662 -0.01700189
vn -0.450838 0.8925561 -0.009414256
vn -0.450838 0.8925561 -0.009414256
vn -0.455165 0.88497 0.0982486
vn -0.4412508 0.8897282 -0.1169673
vn -0.4958314 0.842796 -0.2093949
vn -0.4958314 0.842796 -0.2093949
vn -0.403028 0.8804092 -0.2498958
vn -0.5828496 0.7953492 -0.1664507
vn -0.4840048 0.8532893 -0.1940019
vn -0.4840048 0.8532893 -0.1940019
vn -0.5019001 0.8138077 -0.2929388
vn -0.4604622 0.882815 -0.09280137
vn -0.4310313 0.8798824 -0.200048
vn -0.4310313 0.8798824 -0.200048
vn -0.3468133 0.9257997 -0.1503841
vn -0.5102201 0.8236988 -0.2473778

vt 0.494819 0.504238
vt 0.99368 0.999311
vt 0.99368 0.504238
vt 0.494819 0.999311
vt 0.494819 0.504238
vt 0.99368 0.999311
vt 0.99368 0.504238
vt 0.494819 0.999311
vt 0.494819 0.504238
vt 0.99368 0.999311
vt 0.99368 0.504238
vt 0.494819 0.999311
vt 0.494819 0.504238
vt 0.99368 0.999311
vt 0.99368 0.504238
vt 0.494819 0.999311
vt 0.494819 0.504238
vt 0.99368 0.999311
vt 0.99368 0.504238
vt 0.494819 0.999311
vt 0.494819 0.504238
vt 0.99368 0.999311
vt 0.99368 0.504238
vt 0.494819 0.999311
vt 0.494819 0.504238
vt 0.99368 0.999311
vt 0.99368 0.504238
vt 0.494819 0.999311
vt 0.494819 0.504238
vt 0.99368 0.999311
vt 0.99368 0.504238
vt 0.494819 0.999311
vt 0.494819 0.504238
vt 0.99368 0.999311
vt 0.99368 0.504238
vt 0.494819 0.999311
vt 0.494819 0.504238
vt 0.99368 0.999311
vt 0.99368 0.504238
vt 0.494819 0.999311
vt 0.494819 0.504238
vt 0.99368 0.999311
vt 0.99368 0.504238
vt 0.494819 0.999311
vt 0.494819 0.504238
vt 0.99368 0.999311
vt 0.99368 0.504238
vt 0.494819 0.999311
vt 0.494819 0.504238
vt 0.99368 0.999311
vt 0.99368 0.504238
vt 0.494819 0.999311
vt 0.494819 0.504238
vt 0.99368 0.999311
vt 0.99368 0.504238
vt 0.494819 0.999311
vt 0.494819 0.504238
vt 0.99368 0.999311
vt 0.99368 0.504238
vt 0.494819 0.999311
vt 0.494819 0.504238
vt 0.99368 0.999311
vt 0.99368 0.504238
vt 0.494819 0.999311
vt 0.494819 0.504238
vt 0.99368 0.999311
vt 0.99368 0.504238
vt 0.494819 0.999311
vt 0.494819 0.504238
vt 0.99368 0.999311
vt 0.99368 0.504238
vt 0.494819 0.999311
vt 0.494819 0.504238
vt 0.99368 0.999311
vt 0.99368 0.504238
vt 0.494819 0.999311
vt 0.494819 0.504238
vt 0.99368 0.999311
vt 0.99368 0.504238
vt 0.494819 0.999311
vt 0.494819 0.504238
vt 0.99368 0.999311
vt 0.99368 0.504238
vt 0.494819 0.999311
vt 0.494819 0.504238
vt 0.99368 0.999311
vt 0.99368 0.504238
vt 0.494819 0.999311
vt 0.494819 0.504238
vt 0.99368 0.999311
vt 0.99368 0.504238
vt 0.494819 0.999311
vt 0.494819 0.504238
vt 0.99368 0.999311
vt 0.99368 0.504238
vt 0.494819 0.999311
vt 0.494819 0.504238
vt 0.99368 0.999311
vt 0.99368 0.504238
vt 0.494819 0.999311
vt 0.494819 0.504238
vt 0.99368 0.999311
vt 0.99368 0.504238
vt 0.494819 0.999311
vt 0.494819 0.504238
vt 0.99368 0.999311
vt 0.99368 0.504238
vt 0.494819 0.999311
vt 0.494819 0.504238
vt 0.99368 0.999311
vt 0.99368 0.504238
vt 0.494819 0.999311
vt 0.494819 0.504238
vt 0.99368 0.999311
vt 0.99368 0.504238
vt 0.494819 0.999311
vt 0.494819 0.504238
vt 0.99368 0.999311
vt 0.99368 0.504238
vt 0.494819 0.999311
vt 0.494819 0.504238
vt 0.99368 0.999311
vt 0.99368 0.504238
vt 0.494819 0.999311
vt 0.494819 0.504238
vt 0.99368 0.999311
vt 0.99368 0.504238
vt 0.494819 0.999311
vt 0.494819 0.504238
vt 0.99368 0.999311
vt 0.99368 0.504238
vt 0.494819 0.999311
vt 0.494819 0.504238
vt 0.99368 0.999311
vt 0.99368 0.504238
vt 0.494819 0.999311
vt 0.494819 0.504238
vt 0.99368 0.999311
vt 0.99368 0.504238
vt 0.494819 0.999311
vt 0.494819 0.504238
vt 0.99368 0.999311
vt 0.99368 0.504238
vt 0.494819 0.999311
vt 0.494819 0.504238
vt 0.99368 0.999311
vt 0.99368 0.504238
vt 0.494819 0.999311
vt 0.494819 0.504238
vt 0.99368 0.999311
vt 0.99368 0.504238
vt 0.494819 0.999311
vt 0.494819 0.504238
vt 0.99368 0.999311
vt 0.99368 0.504238
vt 0.494819 0.999311
vt 0.494819 0.504238
vt 0.99368 0.999311
vt 0.99368 0.504238
vt 0.494819 0.999311
vt 0.494819 0.504238
vt 0.99368 0.999311
vt 0.99368 0.504238
vt 0.494819 0.999311
vt 0.494819 0.504238
vt 0.99368 0.999311
vt 0.99368 0.504238
vt 0.494819 0.999311
vt 0.494819 0.504238
vt 0.99368 0.999311
vt 0.99368 0.504238
vt 0.494819 0.999311
vt 0.494819 0.504238
vt 0.99368 0.999311
vt 0.99368 0.504238
vt 0.494819 0.999311
vt 0.494819 0.504238
vt 0.99368 0.999311
vt 0.99368 0.504238
vt 0.494819 0.999311




usemtl TI_OrgGround_01_Dif
usemap TI_OrgGround_01_Dif
f 1/1/1 3/3/3 2/2/2
f 1/1/1 2/2/2 4/4/4
f 5/5/5 7/7/7 6/6/6
f 5/5/5 6/6/6 8/8/8
f 9/9/9 11/11/11 10/10/10
f 9/9/9 10/10/10 12/12/12
f 13/13/13 15/15/15 14/14/14
f 13/13/13 14/14/14 16/16/16
f 17/17/17 19/19/19 18/18/18
f 17/17/17 18/18/18 20/20/20
f 21/21/21 23/23/23 22/22/22
f 21/21/21 22/22/22 24/24/24
f 25/25/25 27/27/27 26/26/26
f 25/25/25 26/26/26 28/28/28
f 29/29/29 31/31/31 30/30/30
f 29/29/29 30/30/30 32/32/32
f 33/33/33 35/35/35 34/34/34
f 33/33/33 34/34/34 36/36/36
f 37/37/37 39/39/39 38/38/38
f 37/37/37 38/38/38 40/40/40
f 41/41/41 43/43/43 42/42/42
f 41/41/41 42/42/42 44/44/44
f 45/45/45 47/47/47 46/46/46
f 45/45/45 46/46/46 48/48/48
f 49/49/49 51/51/51 50/50/50
f 49/49/49 50/50/50 52/52/52
f 53/53/53 55/55/55 54/54/54
f 53/53/53 54/54/54 56/56/56
f 57/57/57 59/59/59 58/58/58
f 57/57/57 58/58/58 60/60/60
f 61/61/61 63/63/63 62/62/62
f 61/61/61 62/62/62 64/64/64
f 65/65/65 67/67/67 66/66/66
f 65/65/65 66/66/66 68/68/68
f 69/69/69 71/71/71 70/70/70
f 69/69/69 70/70/70 72/72/72
f 73/73/73 75/75/75 74/74/74
f 73/73/73 74/74/74 76/76/76
f 77/77/77 79/79/79 78/78/78
f 77/77/77 78/78/78 80/80/80
f 81/81/81 83/83/83 82/82/82
f 81/81/81 82/82/82 84/84/84
f 85/85/85 87/87/87 86/86/86
f 85/85/85 86/86/86 88/88/88
f 89/89/89 91/91/91 90/90/90
f 89/89/89 90/90/90 92/92/92
f 93/93/93 95/95/95 94/94/94
f 93/93/93 94/94/94 96/96/96
f 97/97/97 99/99/99 98/98/98
f 97/97/97 98/98/98 100/100/100
f 101/101/101 103/103/103 102/102/102
f 101/101/101 102/102/102 104/104/104
f 105/105/105 107/107/107 106/106/106
f 105/105/105 106/106/106 108/108/108
f 109/109/109 111/111/111 110/110/110
f 109/109/109 110/110/110 112/112/112
f 113/113/113 115/115/115 114/114/114
f 113/113/113 114/114/114 116/116/116
f 117/117/117 119/119/119 118/118/118
f 117/117/117 118/118/118 120/120/120
f 121/121/121 123/123/123 122/122/122
f 121/121/121 122/122/122 124/124/124
f 125/125/125 127/127/127 126/126/126
f 125/125/125 126/126/126 128/128/128
f 129/129/129 131/131/131 130/130/130
f 129/129/129 130/130/130 132/132/132
f 133/133/133 135/135/135 134/134/134
f 133/133/133 134/134/134 136/136/136
f 137/137/137 139/139/139 138/138/138
f 137/137/137 138/138/138 140/140/140
f 141/141/141 143/143/143 142/142/142
f 141/141/141 142/142/142 144/144/144
f 145/145/145 147/147/147 146/146/146
f 145/145/145 146/146/146 148/148/148
f 149/149/149 151/151/151 150/150/150
f 149/149/149 150/150/150 152/152/152
f 153/153/153 155/155/155 154/154/154
f 153/153/153 154/154/154 156/156/156
f 157/157/157 159/159/159 158/158/158
f 157/157/157 158/158/158 160/160/160
f 161/161/161 163/163/163 162/162/162
f 161/161/161 162/162/162 164/164/164
f 165/165/165 167/167/167 166/166/166
f 165/165/165 166/166/166 168/168/168
f 169/169/169 171/171/171 170/170/170
f 169/169/169 170/170/170 172/172/172
f 173/173/173 175/175/175 174/174/174
f 173/173/173 174/174/174 176/176/176
f 177/177/177 179/179/179 178/178/178
f 177/177/177 178/178/178 180/180/180

