g NewMesh_tris_62
v -1.477611 -2.670643 8.289686
v -4.076769 -1.89585 4.645635
v -0.9208869 -1.770152 5.252727
v -4.585459 -3.102212 7.5833
v 11.55054 1.696733 2.309056
v 7.37388 0.5288827 1.676605
v 9.710249 1.397791 -0.1714163
v 9.3047 0.5318773 4.105746
v 10.19548 2.374279 -0.9458302
v 7.808043 3.107221 -2.755778
v 9.98019 3.232072 -2.942452
v 8.03742 2.052309 -0.8575671
v 6.358624 0.7227871 1.345099
v 10.18592 1.757692 0.3176162
v 8.994412 0.120258 2.393207
v 7.573683 2.115129 -0.8896198
v 9.382181 0.8466126 5.457554
v 7.508258 0.217043 2.366631
v 9.909822 1.037474 2.921162
v 7.080437 -0.216479 4.891932
v 6.832095 0.1840238 2.642983
v 6.051765 -0.7800592 6.565582
v 4.55673 -0.9419123 4.071002
v 8.413151 0.06889477 5.086599
v 5.308702 -1.169748 7.262719
v 4.244642 -0.8392355 3.521295
v 6.595681 -0.4560301 4.923132
v 3.04542 -1.813865 5.812876
v 2.331415 -0.4796104 1.815168
v 3.681616 -1.598427 5.785211
v 0.9888583 -1.67571 4.306961
v 5.067948 -0.6941428 3.196293
v 1.979376 -2.167743 6.906229
v 0.4441215 -1.593699 4.243844
v 2.576997 -1.710321 4.824511
v -0.1385404 -2.267461 6.27029
v 1.219552 -0.08333696 1.759857
v 0.008078519 -1.382719 4.293582
v -0.777382 -0.7717568 2.341671
v 2.036316 -0.8951303 3.623741
v -2.059625 -1.328951 4.441893
v 1.361119 -0.5851032 2.625904
v 0.6296064 -1.785498 5.038406
v -1.332051 -0.3870708 1.916081
v 4.839643 0.3360333 1.701087
v 8.612537 0.2946827 2.846373
v 6.19966 -0.5380173 3.977129
v 7.279912 0.906118 0.4706136
v 9.918656 1.297047 4.825907
v 7.129421 -0.3568969 6.555144
v 7.65288 0.2568234 4.081391
v 9.503754 0.4488241 7.250465
v 4.014194 0.9509863 0.501104
v 4.192393 -0.7683414 3.439725
v 2.430599 -0.2457807 1.874615
v 5.807199 0.220355 1.942583
v 2.164326 0.08034086 1.683499
v 3.805703 1.390806 -0.2960008
v 4.158336 0.4891568 1.50352
v 1.851951 0.7992697 -0.2036044
v -1.713937 0.2207095 -1.303933
v 1.633186 0.212641 1.404998
v -1.316419 -0.5211412 1.624999
v 1.281126 0.7105401 -1.580828
v -2.015916 -0.8393934 2.693785
v 0.4864914 0.0003618616 1.116237
v 0.1019239 -0.6494353 3.157335
v -1.59891 -0.3636776 0.6114767
v 5.539937 2.652197 -3.887533
v 5.524398 2.064466 -0.7999404
v 4.066796 1.794516 -2.458435
v 7.055123 2.748526 -2.261798
v 6.148318 1.41515 0.3675967
v 9.087766 2.453434 -1.180784
v 8.547876 1.250468 0.9000611
v 6.704768 2.434585 -1.804876
v 3.88861 2.637164 -3.100593
v 6.110073 1.418748 0.7076511
v 3.033929 1.276126 -0.2905287
v 6.996384 2.52988 -2.200819
v 7.05146 2.049152 -0.7120897
v 5.77146 0.6176197 1.271902
v 5.198704 1.543944 -0.3505937
v 7.636456 0.9871684 0.8204202
v 12.06148 0.4866953 8.974003
v 13.55224 -1.00496 12.50066
v 11.00908 -1.192112 11.10266
v 14.67085 0.4699117 10.25776
v 14.24623 -0.6955095 12.35372
v 15.70259 0.7622688 10.43359
v 16.12663 -0.05137675 12.20323
v 13.87279 -0.02434251 10.51429
v 8.435503 -0.5418251 8.793544
v 10.56544 1.489714 6.197407
v 11.03249 0.4412887 8.726832
v 8.051688 0.308213 6.177164
v 13.38976 0.8865636 8.96294
v 12.64101 2.278199 5.969741
v 14.64657 1.989165 7.247428
v 11.42736 1.002748 7.594096
v 11.08958 -0.1377078 9.66681
v 11.42887 -1.787035 12.45639
v 9.714436 -1.475988 10.94582
v 12.85197 -0.6067542 11.07814
v 10.37781 -1.340195 11.2858
v 13.75437 -1.772449 13.95276
v 10.88368 -2.832613 13.90944
v 13.31782 -0.4935577 11.20675
v 10.89324 -1.982677 12.53143
v 8.574987 -1.388781 10.3906
v 10.78371 -0.8781639 10.54846
v 8.735392 -2.647766 12.27562
v 9.96684 0.1119756 8.772341
v 6.807119 -2.171863 10.72679
v 7.065664 -0.6555664 8.050891
v 9.784142 -1.616513 11.3229
v 15.04151 0.3051178 11.12931
v 16.79487 2.087237 8.208833
v 17.59278 1.097993 10.61452
v 14.29812 1.092961 8.633454
v 2.077894 -0.3573119 2.164375
v 4.427135 -1.007927 3.852464
v 2.379261 -1.460393 3.923924
v 4.148191 -0.05432132 2.0041

vn -0.1477286 0.9407017 0.3053793
vn -0.1477286 0.9407017 0.3053793
vn -0.08976266 0.9592351 0.267975
vn -0.2049407 0.9173682 0.3412253
vn -0.2885584 0.9433771 0.163627
vn -0.2885584 0.9433771 0.163627
vn -0.2812165 0.9550744 0.09354214
vn -0.2944278 0.926866 0.2328769
vn -0.06383027 0.8928712 0.4457654
vn -0.06383027 0.8928712 0.4457654
vn -0.01870154 0.9178991 0.3963729
vn -0.1086333 0.8632872 0.4928832
vn -0.08034089 0.8360165 0.5427908
vn -0.08034089 0.8360165 0.5427908
vn -0.05537309 0.7991136 0.5986245
vn -0.1048987 0.8686534 0.4841875
vn -0.3800851 0.9239869 0.04223168
vn -0.3800851 0.9239869 0.04223168
vn -0.3240649 0.9460272 0.003779308
vn -0.4341657 0.8972317 0.08046855
vn -0.2921163 0.9405937 0.1730651
vn -0.2921163 0.9405937 0.1730651
vn -0.3582881 0.9206542 0.1550008
vn -0.2244539 0.9557336 0.1902464
vn -0.3140587 0.9337297 0.1718022
vn -0.3140587 0.9337297 0.1718022
vn -0.2483356 0.9561775 0.1550936
vn -0.3781793 0.9065174 0.1876342
vn -0.1409124 0.9393584 0.3126493
vn -0.1409124 0.9393584 0.3126493
vn -0.2076475 0.9208165 0.3301204
vn -0.07345825 0.9531069 0.2935829
vn -0.06684319 0.9667124 0.24698
vn -0.06684319 0.9667124 0.24698
vn -0.004668545 0.9769672 0.2133382
vn -0.1286767 0.9515247 0.2793614
vn -0.1413253 0.9066928 0.3974108
vn -0.1413253 0.9066928 0.3974108
vn -0.2058742 0.9072256 0.3668206
vn -0.07605514 0.9015334 0.4259731
vn 0.01395243 0.9157962 0.4014009
vn 0.01395243 0.9157962 0.4014009
vn 0.049426 0.8881459 0.4568959
vn -0.02159234 0.9387735 0.3438576
vn -0.09705003 0.9304603 0.3533058
vn -0.09705003 0.9304603 0.3533058
vn -0.1163596 0.9019414 0.4158871
vn -0.07724527 0.9542313 0.2889216
vn -0.4126793 0.8914721 0.1870116
vn -0.4126793 0.8914721 0.1870116
vn -0.4475797 0.885468 0.1249751
vn -0.3756731 0.8929272 0.2480939
vn -0.1279027 0.8526327 0.5066147
vn -0.1279027 0.8526327 0.5066147
vn -0.1982787 0.8406969 0.503899
vn -0.05687412 0.8602177 0.5067453
vn -0.1948721 0.884472 0.4239506
vn -0.1948721 0.884472 0.4239506
vn -0.137328 0.8745449 0.4650936
vn -0.2514219 0.8898858 0.3806444
vn -0.1785536 0.9582164 0.2234727
vn -0.1785536 0.9582164 0.2234727
vn -0.2138342 0.9396706 0.2670098
vn -0.1426508 0.9734236 0.179157
vn -0.1784183 0.9574904 0.2266698
vn -0.1784183 0.9574904 0.2266698
vn -0.1454735 0.9503396 0.2751224
vn -0.2107414 0.9613052 0.1774274
vn -0.3098687 0.9342937 0.1762857
vn -0.3098687 0.9342937 0.1762857
vn -0.3654251 0.9147577 0.1722874
vn -0.2532328 0.9505745 0.1796698
vn -0.08047539 0.8917938 0.4452275
vn -0.08047539 0.8917938 0.4452275
vn -0.04909364 0.870169 0.4903018
vn -0.1115768 0.9103116 0.3986019
vn -0.1169603 0.9240747 0.3638767
vn -0.1169603 0.9240747 0.3638767
vn -0.1678683 0.9062928 0.3878836
vn -0.0656449 0.9386371 0.3386019
vn -0.0749883 0.8309882 0.5512127
vn -0.0749883 0.8309882 0.5512127
vn -0.1269483 0.8414379 0.5252299
vn -0.02276701 0.8176432 0.5752751
vn -0.2724998 0.8394185 0.4702343
vn -0.2724998 0.8394185 0.4702343
vn -0.3246029 0.8140919 0.4815467
vn -0.2194472 0.8618205 0.4572836
vn -0.3038181 0.855585 0.4191286
vn -0.3038181 0.855585 0.4191286
vn -0.2560759 0.8535283 0.4537782
vn -0.3505018 0.8546609 0.3830187
vn -0.3586949 0.8549376 0.3747261
vn -0.3586949 0.8549376 0.3747261
vn -0.3132596 0.8554488 0.4124025
vn -0.4028806 0.8514477 0.335744
vn -0.2156076 0.8637273 0.4555091
vn -0.2156076 0.8637273 0.4555091
vn -0.1591166 0.8794173 0.4486727
vn -0.2713474 0.8450279 0.4607584
vn -0.2489389 0.8201345 0.5151785
vn -0.2489389 0.8201345 0.5151785
vn -0.3053176 0.8029662 0.5118852
vn -0.1916929 0.8344452 0.5166769
vn -0.271108 0.8351311 0.4785986
vn -0.271108 0.8351311 0.4785986
vn -0.3038462 0.8017631 0.5146393
vn -0.2374252 0.8655894 0.4408904
vn -0.2679557 0.8136714 0.5158863
vn -0.2679557 0.8136714 0.5158863
vn -0.2298512 0.8447703 0.4832512
vn -0.3051266 0.7797375 0.5467241
vn -0.2941503 0.8229277 0.4860715
vn -0.2941503 0.8229277 0.4860715
vn -0.3304155 0.8344946 0.4409584
vn -0.2568602 0.8084937 0.529491
vn -0.2398748 0.8860633 0.3966761
vn -0.2398748 0.8860633 0.3966761
vn -0.1888931 0.884597 0.426389
vn -0.2900208 0.8844425 0.365581
vn -0.1279027 0.8526326 0.5066147
vn -0.1279027 0.8526326 0.5066147
vn -0.1628788 0.8231688 0.5439336
vn -0.09248099 0.8791259 0.4675308

vt 0.000569 0.507676
vt 0.486845 0.996311
vt 0.486845 0.507676
vt 0.000569 0.996311
vt 0.000569 0.507676
vt 0.486845 0.996311
vt 0.486845 0.507676
vt 0.000569 0.996311
vt 0.000569 0.507676
vt 0.486845 0.996311
vt 0.486845 0.507676
vt 0.000569 0.996311
vt 0.000569 0.507676
vt 0.486845 0.996311
vt 0.486845 0.507676
vt 0.000569 0.996311
vt 0.000569 0.507676
vt 0.486845 0.996311
vt 0.486845 0.507676
vt 0.000569 0.996311
vt 0.000569 0.507676
vt 0.486845 0.996311
vt 0.486845 0.507676
vt 0.000569 0.996311
vt 0.000569 0.507676
vt 0.486845 0.996311
vt 0.486845 0.507676
vt 0.000569 0.996311
vt 0.000569 0.507676
vt 0.486845 0.996311
vt 0.486845 0.507676
vt 0.000569 0.996311
vt 0.000569 0.507676
vt 0.486845 0.996311
vt 0.486845 0.507676
vt 0.000569 0.996311
vt 0.000569 0.507676
vt 0.486845 0.996311
vt 0.486845 0.507676
vt 0.000569 0.996311
vt 0.000569 0.507676
vt 0.486845 0.996311
vt 0.486845 0.507676
vt 0.000569 0.996311
vt 0.000569 0.507676
vt 0.486845 0.996311
vt 0.486845 0.507676
vt 0.000569 0.996311
vt 0.000569 0.507676
vt 0.486845 0.996311
vt 0.486845 0.507676
vt 0.000569 0.996311
vt 0.000569 0.507676
vt 0.486845 0.996311
vt 0.486845 0.507676
vt 0.000569 0.996311
vt 0.000569 0.507676
vt 0.486845 0.996311
vt 0.486845 0.507676
vt 0.000569 0.996311
vt 0.506678 0.003301
vt 0.995032 0.491499
vt 0.995032 0.003301
vt 0.506678 0.491499
vt 0.506678 0.003301
vt 0.995032 0.491499
vt 0.995032 0.003301
vt 0.506678 0.491499
vt 0.506678 0.003301
vt 0.995032 0.491499
vt 0.995032 0.003301
vt 0.506678 0.491499
vt 0.506678 0.003301
vt 0.995032 0.491499
vt 0.995032 0.003301
vt 0.506678 0.491499
vt 0.506678 0.003301
vt 0.995032 0.491499
vt 0.995032 0.003301
vt 0.506678 0.491499
vt 0.506678 0.003301
vt 0.995032 0.491499
vt 0.995032 0.003301
vt 0.506678 0.491499
vt 0.506678 0.003301
vt 0.995032 0.491499
vt 0.995032 0.003301
vt 0.506678 0.491499
vt 0.506678 0.003301
vt 0.995032 0.491499
vt 0.995032 0.003301
vt 0.506678 0.491499
vt 0.506678 0.003301
vt 0.995032 0.491499
vt 0.995032 0.003301
vt 0.506678 0.491499
vt 0.506678 0.003301
vt 0.995032 0.491499
vt 0.995032 0.003301
vt 0.506678 0.491499
vt 0.506678 0.003301
vt 0.995032 0.491499
vt 0.995032 0.003301
vt 0.506678 0.491499
vt 0.506678 0.003301
vt 0.995032 0.491499
vt 0.995032 0.003301
vt 0.506678 0.491499
vt 0.506678 0.003301
vt 0.995032 0.491499
vt 0.995032 0.003301
vt 0.506678 0.491499
vt 0.506678 0.003301
vt 0.995032 0.491499
vt 0.995032 0.003301
vt 0.506678 0.491499
vt 0.506678 0.003301
vt 0.995032 0.491499
vt 0.995032 0.003301
vt 0.506678 0.491499
vt 0.506678 0.003301
vt 0.995032 0.491499
vt 0.995032 0.003301
vt 0.506678 0.491499




usemtl TI_OrgGround_01_Dif
usemap TI_OrgGround_01_Dif
f 1/1/1 3/3/3 2/2/2
f 1/1/1 2/2/2 4/4/4
f 5/5/5 7/7/7 6/6/6
f 5/5/5 6/6/6 8/8/8
f 9/9/9 11/11/11 10/10/10
f 9/9/9 10/10/10 12/12/12
f 13/13/13 15/15/15 14/14/14
f 13/13/13 14/14/14 16/16/16
f 17/17/17 19/19/19 18/18/18
f 17/17/17 18/18/18 20/20/20
f 21/21/21 23/23/23 22/22/22
f 21/21/21 22/22/22 24/24/24
f 25/25/25 27/27/27 26/26/26
f 25/25/25 26/26/26 28/28/28
f 29/29/29 31/31/31 30/30/30
f 29/29/29 30/30/30 32/32/32
f 33/33/33 35/35/35 34/34/34
f 33/33/33 34/34/34 36/36/36
f 37/37/37 39/39/39 38/38/38
f 37/37/37 38/38/38 40/40/40
f 41/41/41 43/43/43 42/42/42
f 41/41/41 42/42/42 44/44/44
f 45/45/45 47/47/47 46/46/46
f 45/45/45 46/46/46 48/48/48
f 49/49/49 51/51/51 50/50/50
f 49/49/49 50/50/50 52/52/52
f 53/53/53 55/55/55 54/54/54
f 53/53/53 54/54/54 56/56/56
f 57/57/57 59/59/59 58/58/58
f 57/57/57 58/58/58 60/60/60
f 61/61/61 63/63/63 62/62/62
f 61/61/61 62/62/62 64/64/64
f 65/65/65 67/67/67 66/66/66
f 65/65/65 66/66/66 68/68/68
f 69/69/69 71/71/71 70/70/70
f 69/69/69 70/70/70 72/72/72
f 73/73/73 75/75/75 74/74/74
f 73/73/73 74/74/74 76/76/76
f 77/77/77 79/79/79 78/78/78
f 77/77/77 78/78/78 80/80/80
f 81/81/81 83/83/83 82/82/82
f 81/81/81 82/82/82 84/84/84
f 85/85/85 87/87/87 86/86/86
f 85/85/85 86/86/86 88/88/88
f 89/89/89 91/91/91 90/90/90
f 89/89/89 90/90/90 92/92/92
f 93/93/93 95/95/95 94/94/94
f 93/93/93 94/94/94 96/96/96
f 97/97/97 99/99/99 98/98/98
f 97/97/97 98/98/98 100/100/100
f 101/101/101 103/103/103 102/102/102
f 101/101/101 102/102/102 104/104/104
f 105/105/105 107/107/107 106/106/106
f 105/105/105 106/106/106 108/108/108
f 109/109/109 111/111/111 110/110/110
f 109/109/109 110/110/110 112/112/112
f 113/113/113 115/115/115 114/114/114
f 113/113/113 114/114/114 116/116/116
f 117/117/117 119/119/119 118/118/118
f 117/117/117 118/118/118 120/120/120
f 121/121/121 123/123/123 122/122/122
f 121/121/121 122/122/122 124/124/124

