g NewMesh_tris_112
v -6.633952 0.3760837 2.140942
v -6.781498 0.3132918 6.384651
v -8.826135 0.1490396 4.186248
v -4.582906 0.2364578 4.335072
v -10.09049 0.2886387 6.26352
v -6.420549 0.3805736 3.396386
v -6.819246 0.1622868 6.662864
v -9.687106 0.1735747 2.992354
v -5.778632 0.1381103 1.963021
v -8.798663 0.1944488 2.657217
v -7.636123 -0.1061656 0.8205695
v -6.939879 0.2181355 3.823193
v -7.086576 -0.3604282 1.008584
v -6.70342 0.317719 -1.786057
v -5.453534 -0.08215122 -0.2058593
v -8.324018 -0.1623843 -0.6188832
v -4.441205 -0.08547708 2.444394
v -7.958669 0.04505528 -0.2734208
v -4.879334 0.6186083 -0.5929881
v -7.458487 -0.9565591 2.669363
v -4.375927 -0.2445378 2.387591
v -8.462206 0.4443337 1.84188
v -6.214818 -0.3084247 0.06987954
v -6.676827 0.2155265 4.190806
v -8.752151 -0.05760749 2.008532
v -7.157156 -0.1337154 -1.931221
v -5.979369 -0.08026686 0.8380442
v -9.909806 -0.4143507 -0.7467245
v -7.212048 0.737939 -1.454298
v -4.242572 -0.3892267 -3.147368
v -4.801233 0.2953276 -0.7571242
v -6.704695 -0.1888207 -3.773283
v -4.512348 0.4632802 -1.779794
v -6.953173 -0.1212709 0.07358662
v -6.693253 0.2847523 -2.082156
v -4.758887 -0.1597932 0.3251143
v -10.30671 -0.1271689 -0.7323019
v -8.135807 0.578266 -3.172865
v -7.947809 -0.06464804 -0.9037192
v -10.48038 0.283273 -3.055894
v -9.698348 0.1472911 -2.821629
v -10.61035 0.7672549 -0.0152139
v -11.5184 0.8389308 -1.946011
v -8.870241 -0.1240417 -0.8727071
v -8.458706 0.4781566 3.481334
v -10.93777 0.02071923 0.3635853
v -8.131991 -0.1873971 0.7411559
v -11.2777 0.404322 3.155641
v -9.754153 -0.03780108 1.289977
v -13.00576 1.176808 4.018335
v -12.83222 0.4174229 0.9910831
v -9.994279 0.4177596 4.373131
v -11.78766 1.537281 2.648551
v -9.816104 0.4471986 -0.6628258
v -9.277598 0.329122 2.118701
v -12.43236 1.390164 -0.1089007
v 1.395162 0.374855 1.163734
v -1.391393 0.007480344 -1.226883
v 1.210031 -0.1551111 -1.386602
v -1.208383 0.3222134 1.359002
v -0.06066759 0.4332286 1.482002
v 2.344119 -0.01078286 -1.062727
v 2.432184 0.2918426 1.415063
v -0.1507625 -0.07526423 -0.9617862
v 0.4386288 0.3451968 1.090436
v -2.765552 0.2239535 0.2971512
v -0.7615134 0.03950851 -0.8922738
v -1.562685 0.3352618 2.298562
v -1.780131 -0.02159828 3.792659
v -4.522712 0.0358181 1.813083
v -2.198233 0.5141178 1.496992
v -4.065619 -0.6868484 4.049309
v -4.282718 0.2826608 3.362251
v -1.269661 0.3656775 0.8297722
v -1.508282 0.3612985 3.605743
v -4.028698 0.05503279 0.5969968
v -4.60214 0.2367373 3.596967
v -2.162648 0.9411315 6.193216
v -4.702762 0.5525728 6.145604
v -2.039579 0.414821 3.680592
v -0.6230572 0.001510548 9.16576
v -4.250333 -0.7928414 11.33698
v -3.581059 -0.08838183 8.451992
v -1.279425 -0.9476762 11.98277
v -0.2817205 -0.3480959 9.394563
v -0.4539247 -1.231842 13.93169
v -2.681648 -0.852819 11.56307
v 1.939399 -0.9954348 11.71068
v 2.716072 -1.122825 12.43691
v 0.02863293 -0.8697159 11.58565
v 1.810809 -0.8471766 10.6714
v 0.9281151 -1.309779 13.32053
v 1.793694 -0.2892674 9.851616
v -2.000136 -0.3050843 9.981578
v -0.1681903 0.18611 8.078832
v -0.03975157 -0.9937842 11.68461
v -0.7510709 0.816382 6.462313
v -1.667493 -0.3518732 10.08205
v -3.102711 0.166095 7.771464
v 0.6957861 0.07770842 8.704617
v -3.488132 0.2621064 8.574012
v -0.3833306 0.712907 5.984804
v -0.6195804 0.2577868 8.81765
v -3.239855 0.4785583 5.714034
v -2.566434 0.6810409 5.981926
v 0.4834321 0.6175095 5.440326
v -0.7799718 0.3752179 7.216001
v -1.310489 0.7414746 4.185579
v -2.795291 0.9320741 7.021887
v -0.7618586 0.5027652 3.382255
v 0.05466363 0.73014 6.224786
v -3.610084 0.4587241 4.209336
v -2.989159 0.3381941 3.401233
v 0.857642 0.8079148 4.554957
v -1.654527 0.6378823 5.914802
v -0.4567595 0.2717667 2.070208
v -2.992352 0.2825068 0.8808198
v 0.9547262 0.6413432 2.977565
v -2.063265 0.3513061 3.914283
v 0.04317871 0.3083041 -0.04369289
v 0.9192575 0.6515496 7.349464
v -0.5851285 0.7316476 3.426315
v 2.122066 0.4906011 4.634114
v -1.79812 0.6443396 6.140502
v 3.43244 0.5736803 3.463745
v -0.7227904 0.7589563 5.492938
v 0.3353804 0.5868949 2.398049
v 2.361457 0.4724205 6.557353
v 0.2232741 0.6076641 4.016111
v 1.307593 0.5093495 1.051651
v 2.250325 0.6265115 3.074758
v -0.7035745 0.3048449 2.004971
v -0.5284616 0.7114893 0.5664573
v 2.568575 0.3073356 2.855418
v -0.1116623 0.6953192 3.275014
v 2.111705 0.09856208 0.1613608
v 4.673249 0.6676943 3.600977
v 2.441244 0.3526093 0.6512064
v 5.041828 0.3146343 1.023638
v 2.075729 0.4872032 3.249564
v 3.87832 0.4186393 1.872608
v 2.366395 0.0544015 -0.4229302
v 4.28361 0.02130257 -0.005854981
v 1.95951 0.2900007 1.482247
v 0.7496793 0.2897496 0.9095542
v 3.428189 0.3725057 1.570492
v 1.755362 0.4720736 2.574207
v 2.420919 0.02918192 -0.06756955
v 1.51349 0.6665973 4.397158
v 3.330917 0.2690098 6.992508
v 1.107588 0.3731973 6.600916
v 3.723427 0.375079 4.76943
v 5.2062 0.3140104 3.784531
v 1.208564 0.7020134 5.252808
v 2.469886 0.5192388 2.507743
v 3.917786 0.2455098 6.522234
v 3.800403 0.4464893 3.220533
v 5.938319 0.1262219 5.534733
v 3.708489 0.3383778 5.457275
v 6.0048 0.048845 3.295817
v 4.780172 0.453082 1.191941
v 2.044213 0.6956992 4.112435
v 1.948837 0.3050558 1.30367
v 4.878857 0.6077969 4.023404
v 7.573057 -0.06721757 5.370098
v 4.606812 0.300713 4.89647
v 6.313699 -0.002952426 3.638901
v 5.844112 0.05888656 6.627875
v 6.297324 -1.202962 11.24771
v 3.837192 -0.08724843 8.555108
v 6.473598 -0.6641377 8.608603
v 3.624568 -0.8414587 11.13818
v 7.219446 -0.6472643 8.371332
v 9.431583 -0.2805842 5.295929
v 9.828072 -1.061752 7.843141
v 6.787963 -0.08246829 5.773151
v 10.57759 -1.069266 7.807805
v 6.639807 -0.6636185 8.994873
v 8.066324 -0.4280773 6.452353
v 9.109918 -1.538938 10.2938
v 6.186903 0.07326622 5.955629
v 4.33558 -0.4242293 9.620817
v 3.419857 0.1743235 6.905603
v 7.06578 -0.7616726 8.620146
v -0.572874 -0.7881163 11.62773
v 2.306753 0.2680433 8.151049
v 2.674153 -0.9388129 11.18005
v -0.9530169 0.1598554 8.509536
v 1.900138 -0.1052463 9.351364
v 5.837013 -0.4837689 8.965018
v 4.003421 -0.8407105 11.06742
v 3.706981 0.02346097 7.200012
v 2.351184 -1.040344 11.91146
v 0.7465156 -1.463285 15.8277
v -0.4240923 -1.168442 13.07017
v 3.508367 -1.584206 14.63659
v 5.06878 -0.9034293 10.86002
v 4.034186 -1.58751 13.84217
v 3.021057 -1.04826 11.86539
v 6.061912 -1.626152 12.78779
v 2.163293 -0.6724753 10.4985
v 5.056019 -0.841937 10.62863
v 3.521552 -1.200963 11.94416
v 3.689988 -0.4792495 9.139832
v -1.958114 0.04617423 8.90728
v 1.190946 -0.6354844 10.92431
v -1.448811 -0.8840466 11.37968
v 0.6801405 0.08112267 8.382068
v -4.295621 0.0216895 -1.193869
v -2.459864 0.2522753 1.160257
v -4.550428 0.01314093 0.9097891
v -2.193345 0.0843711 -0.9352514
v -3.340911 -0.534237 1.811427
v -5.068386 0.4972605 3.760538
v -5.306809 -0.5036573 2.065908
v -3.101631 0.3206089 3.584119
v 5.73182 0.1827596 4.69381
v 8.764541 -0.181834 2.930545
v 8.111417 -0.2059448 5.339576
v 6.360192 -0.0001845141 2.285022
v 10.60396 -0.6018695 4.093225
v 6.867089 0.2410608 3.966289
v 8.779311 -0.2749615 2.112807
v 8.641997 -0.3069068 5.943079

vn -0.02108826 0.9996788 0.01405884
vn -0.02108826 0.9996788 0.01405884
vn -0.09236247 0.9956588 0.01152126
vn 0.05029355 0.9985977 0.01652468
vn -0.01406058 0.9998022 0.01406058
vn -0.01406058 0.9998022 0.01406058
vn 0.02992676 0.9970784 0.0702772
vn -0.05797616 0.9974244 -0.04222779
vn -0.005826591 0.9943444 -0.106044
vn -0.005826591 0.9943444 -0.106044
vn -0.02184847 0.9843377 -0.1749336
vn 0.01022502 0.9992772 -0.03661327
vn -0.05991812 0.9719033 0.2276266
vn -0.05991812 0.9719033 0.2276266
vn 0.01086704 0.9713978 0.2372089
vn -0.1303975 0.9674493 0.2168828
vn -0.1949411 0.9347066 0.2971895
vn -0.1949411 0.9347066 0.2971895
vn -0.1530414 0.9576075 0.2440617
vn -0.2358462 0.9070361 0.3488009
vn 0.1788612 0.9783265 -0.1043357
vn 0.1788612 0.9783265 -0.1043357
vn 0.1862957 0.9668816 -0.1744525
vn 0.1705141 0.9847792 -0.03368659
vn -0.06615914 0.9967463 -0.04603976
vn -0.06615914 0.9967463 -0.04603976
vn 1.264069E-05 0.9998134 -0.01930962
vn -0.1319933 0.988593 -0.07253497
vn 0.1991556 0.9401245 -0.2765918
vn 0.1991556 0.9401245 -0.2765918
vn 0.2364002 0.9473283 -0.2160645
vn 0.1608948 0.9281234 -0.3357078
vn -0.05991811 0.9719032 0.2276265
vn -0.05991811 0.9719032 0.2276265
vn -0.1040245 0.9795949 0.1719662
vn -0.01550595 0.9592521 0.2821254
vn -0.05991811 0.9719032 0.2276266
vn -0.05991811 0.9719032 0.2276266
vn -0.00566294 0.961991 0.2730219
vn -0.1138675 0.976856 0.1810697
vn 0.3704228 0.9250593 -0.0839777
vn 0.3704228 0.9250593 -0.0839777
vn 0.3067828 0.9454973 -0.1091738
vn 0.4321727 0.8999009 -0.0583531
vn 0.04605502 0.9824473 -0.180766
vn 0.04605502 0.9824473 -0.180766
vn 0.1019465 0.9694052 -0.2232943
vn -0.01007145 0.9904761 -0.1373152
vn 0.2106975 0.9614128 -0.1768957
vn 0.2106975 0.9614128 -0.1768957
vn 0.1642726 0.9589544 -0.2311295
vn 0.2560472 0.9589653 -0.1217593
vn 0.3704228 0.9250593 -0.08397769
vn 0.3704228 0.9250593 -0.08397769
vn 0.4257088 0.9037869 -0.04405827
vn 0.3132467 0.9416113 -0.1234686
vn 0.009727001 0.9865863 -0.1629502
vn 0.009727001 0.9865863 -0.1629502
vn 0.04838078 0.9772352 -0.2065689
vn -0.02896068 0.9925001 -0.1187638
vn 0.009726986 0.9865863 -0.1629502
vn 0.009726986 0.9865863 -0.1629502
vn 0.05289065 0.9910047 -0.1229312
vn -0.03347057 0.9787304 -0.2024015
vn -0.01395425 0.9953069 -0.09575671
vn -0.01395425 0.9953069 -0.09575671
vn 0.0003806229 0.9882903 -0.1525847
vn -0.02824051 0.9988558 -0.03859505
vn -0.1949411 0.9347066 0.2971895
vn -0.1949411 0.9347066 0.2971895
vn -0.1620322 0.9540245 0.2521565
vn -0.2271709 0.912132 0.341187
vn -0.06615916 0.9967463 -0.04603976
vn -0.06615916 0.9967463 -0.04603976
vn -0.02827089 0.9995999 -0.0008680465
vn -0.1038169 0.9904199 -0.09105106
vn -0.1045435 0.9802743 -0.1677291
vn -0.1045435 0.9802743 -0.1677291
vn -0.1476301 0.9808046 -0.1273879
vn -0.06109265 0.9763285 -0.2074859
vn -0.05074848 0.9622829 0.2672755
vn -0.05074848 0.9622829 0.2672755
vn -0.08223064 0.9723932 0.2183796
vn -0.0190895 0.9488199 0.3152401
vn 0.0241456 0.9810948 0.1920151
vn 0.0241456 0.9810948 0.1920151
vn -0.03483931 0.9812048 0.1897977
vn 0.08304638 0.9775666 0.1935634
vn 0.03454283 0.9824914 0.183077
vn 0.03454283 0.9824914 0.183077
vn 0.05288295 0.9904231 0.1275353
vn 0.01608237 0.9711366 0.2379808
vn 0.006683327 0.9504601 0.3107749
vn 0.006683327 0.9504601 0.3107749
vn 0.004675418 0.9671429 0.2541904
vn 0.008667951 0.9304657 0.3662765
vn -0.05031753 0.9541109 0.295196
vn -0.05031753 0.9541109 0.295196
vn -0.1075126 0.9537817 0.2806095
vn 0.007052823 0.9511158 0.3087541
vn -0.05000856 0.9923573 0.11281
vn -0.05000856 0.9923573 0.11281
vn -0.01191598 0.9874264 0.1576295
vn -0.0879269 0.9938307 0.06759745
vn 0.04072183 0.9927763 0.1128576
vn 0.04072183 0.9927763 0.1128576
vn 0.05075377 0.9840721 0.1703706
vn 0.03054802 0.9980216 0.05495145
vn -0.006979859 0.9926299 -0.1209842
vn -0.006979859 0.9926299 -0.1209842
vn 0.04462232 0.9947215 -0.09240118
vn -0.05855772 0.9870798 -0.1491456
vn -0.08461909 0.9890938 -0.1205532
vn -0.08461909 0.9890938 -0.1205532
vn -0.1019491 0.992713 -0.06424405
vn -0.06699422 0.9820285 -0.1764423
vn -0.06615916 0.9967464 -0.04603976
vn -0.06615916 0.9967464 -0.04603976
vn -0.09376191 0.9955759 0.006122158
vn -0.0383259 0.9944441 -0.09804126
vn 0.04098322 0.9991489 0.004683799
vn 0.04098322 0.9991489 0.004683799
vn 0.09594971 0.9952499 -0.01647347
vn -0.01412606 0.9995667 0.02582475
vn 0.04682594 0.9988921 0.004682593
vn 0.04682594 0.9988921 0.004682593
vn 0.02091424 0.9986114 -0.04835185
vn 0.07257449 0.9956925 0.05770072
vn -0.08506548 0.9943119 -0.06409044
vn -0.08506548 0.9943119 -0.06409044
vn -0.02973087 0.9985893 -0.0439924
vn -0.1401037 0.9865702 -0.08396517
vn 0.175023 0.9825254 -0.0633307
vn 0.175023 0.9825254 -0.0633307
vn 0.140841 0.9899065 -0.01577805
vn 0.2085953 0.9717211 -0.1106627
vn -0.01395425 0.9953069 -0.0957567
vn -0.01395425 0.9953069 -0.0957567
vn 0.03320948 0.9908304 -0.1309659
vn -0.06106936 0.9963156 -0.06021383
vn 0.009727001 0.9865863 -0.1629502
vn 0.009727001 0.9865863 -0.1629502
vn 0.05916443 0.9791501 -0.1943316
vn -0.03974432 0.9905852 -0.1310012
vn 0.009726986 0.9865863 -0.1629502
vn 0.009726986 0.9865863 -0.1629502
vn -0.004517204 0.9943351 -0.1061945
vn 0.02393729 0.9754001 -0.2191381
vn 0.07093245 0.9922184 0.1023288
vn 0.07093245 0.9922184 0.1023288
vn 0.02247689 0.9904551 0.1359903
vn 0.1191409 0.9905246 0.06831077
vn 0.1071524 0.9938161 0.02911749
vn 0.1071524 0.9938161 0.02911749
vn 0.08698915 0.9958615 -0.02632084
vn 0.1269423 0.9883082 0.08445437
vn 0.1358375 0.9906631 0.01161005
vn 0.1358375 0.9906631 0.01161005
vn 0.09281841 0.9943316 0.05185985
vn 0.1783833 0.983543 -0.02868021
vn -0.01395426 0.995307 -0.09575672
vn -0.01395426 0.995307 -0.09575672
vn -0.05704936 0.9891179 -0.1356146
vn 0.02918946 0.9980283 -0.05556517
vn 0.1232787 0.9923714 -0.001163006
vn 0.1232787 0.9923714 -0.001163006
vn 0.1322191 0.989437 -0.05943483
vn 0.1139087 0.9918483 0.05711287
vn 0.1611876 0.9551269 0.2484975
vn 0.1611876 0.9551269 0.2484975
vn 0.2049792 0.9562061 0.2089339
vn 0.1168344 0.95072 0.2871953
vn 0.1555051 0.9615183 0.2264965
vn 0.1555051 0.9615183 0.2264965
vn 0.2023614 0.9446626 0.2581906
vn 0.1081069 0.975024 0.1940133
vn 0.168441 0.9581837 0.2313257
vn 0.168441 0.9581837 0.2313257
vn 0.1532489 0.9723735 0.1760808
vn 0.1830463 0.9406554 0.2857645
vn 0.1506637 0.9666051 0.2073041
vn 0.1506637 0.9666051 0.2073041
vn 0.09839438 0.9782727 0.1824861
vn 0.2024081 0.9515698 0.2313999
vn 0.04648657 0.944431 0.325406
vn 0.04648657 0.944431 0.325406
vn 0.09256472 0.9288042 0.3588238
vn 0.0002464642 0.9567673 0.2908543
vn 0.113844 0.9714094 0.2083345
vn 0.113844 0.9714094 0.2083345
vn 0.118047 0.9568866 0.2653921
vn 0.1092443 0.9825478 0.1505511
vn 0.05338289 0.9902307 0.1288153
vn 0.05338289 0.9902307 0.1288153
vn -0.001260132 0.9942731 0.106862
vn 0.1078399 0.9827383 0.1503197
vn 0.1047179 0.9607939 0.2567279
vn 0.1047179 0.9607939 0.2567279
vn 0.04898607 0.969677 0.2394306
vn 0.160085 0.9485633 0.2731308
vn 0.04532097 0.9667875 0.2515312
vn 0.04532097 0.9667875 0.2515312
vn 0.04181588 0.950423 0.3081356
vn 0.04866814 0.9797836 0.1940504
vn 0.00668332 0.9504601 0.3107748
vn 0.00668332 0.9504601 0.3107748
vn -0.02637258 0.9338236 0.3567605
vn 0.03971594 0.9637851 0.2637064
vn -0.06615916 0.9967464 -0.04603976
vn -0.06615916 0.9967464 -0.04603976
vn -0.1124908 0.9936064 -0.009602584
vn -0.01959702 0.9964135 -0.08231652
vn -0.005167999 0.8819475 -0.4713195
vn -0.005167999 0.8819475 -0.4713195
vn -0.05160471 0.8630503 -0.5024751
vn 0.04128672 0.8977718 -0.4385217
vn 0.1186935 0.9929302 -0.001163663
vn 0.1186935 0.9929302 -0.001163663
vn 0.1477822 0.9877585 0.0499367
vn 0.08919121 0.9946426 -0.05225997
vn 0.2194968 0.9754819 0.01600497
vn 0.2194968 0.9754819 0.01600497
vn 0.2212282 0.9742743 -0.04298394
vn 0.2170007 0.9732907 0.07493812

vt 0.000569 0.507676
vt 0.486845 0.996311
vt 0.486845 0.507676
vt 0.000569 0.996311
vt 0.000569 0.507676
vt 0.486845 0.996311
vt 0.486845 0.507676
vt 0.000569 0.996311
vt 0.000569 0.507676
vt 0.486845 0.996311
vt 0.486845 0.507676
vt 0.000569 0.996311
vt 0.000569 0.507676
vt 0.486845 0.996311
vt 0.486845 0.507676
vt 0.000569 0.996311
vt 0.000569 0.507676
vt 0.486845 0.996311
vt 0.486845 0.507676
vt 0.000569 0.996311
vt 0.000569 0.507676
vt 0.486845 0.996311
vt 0.486845 0.507676
vt 0.000569 0.996311
vt 0.000569 0.507676
vt 0.486845 0.996311
vt 0.486845 0.507676
vt 0.000569 0.996311
vt 0.000569 0.507676
vt 0.486845 0.996311
vt 0.486845 0.507676
vt 0.000569 0.996311
vt 0.000569 0.507676
vt 0.486845 0.996311
vt 0.486845 0.507676
vt 0.000569 0.996311
vt 0.000569 0.507676
vt 0.486845 0.996311
vt 0.486845 0.507676
vt 0.000569 0.996311
vt 0.000569 0.507676
vt 0.486845 0.996311
vt 0.486845 0.507676
vt 0.000569 0.996311
vt 0.000569 0.507676
vt 0.486845 0.996311
vt 0.486845 0.507676
vt 0.000569 0.996311
vt 0.000569 0.507676
vt 0.486845 0.996311
vt 0.486845 0.507676
vt 0.000569 0.996311
vt 0.000569 0.507676
vt 0.486845 0.996311
vt 0.486845 0.507676
vt 0.000569 0.996311
vt 0.506678 0.003301
vt 0.995032 0.491499
vt 0.995032 0.003301
vt 0.506678 0.491499
vt 0.506678 0.003301
vt 0.995032 0.491499
vt 0.995032 0.003301
vt 0.506678 0.491499
vt 0.506678 0.003301
vt 0.995032 0.491499
vt 0.995032 0.003301
vt 0.506678 0.491499
vt 0.506678 0.003301
vt 0.995032 0.491499
vt 0.995032 0.003301
vt 0.506678 0.491499
vt 0.506678 0.003301
vt 0.995032 0.491499
vt 0.995032 0.003301
vt 0.506678 0.491499
vt 0.506678 0.003301
vt 0.995032 0.491499
vt 0.995032 0.003301
vt 0.506678 0.491499
vt 0.506678 0.003301
vt 0.995032 0.491499
vt 0.995032 0.003301
vt 0.506678 0.491499
vt 0.506678 0.003301
vt 0.995032 0.491499
vt 0.995032 0.003301
vt 0.506678 0.491499
vt 0.506678 0.003301
vt 0.995032 0.491499
vt 0.995032 0.003301
vt 0.506678 0.491499
vt 0.506678 0.003301
vt 0.995032 0.491499
vt 0.995032 0.003301
vt 0.506678 0.491499
vt 0.506678 0.003301
vt 0.995032 0.491499
vt 0.995032 0.003301
vt 0.506678 0.491499
vt 0.506678 0.003301
vt 0.995032 0.491499
vt 0.995032 0.003301
vt 0.506678 0.491499
vt 0.506678 0.003301
vt 0.995032 0.491499
vt 0.995032 0.003301
vt 0.506678 0.491499
vt 0.506678 0.003301
vt 0.995032 0.491499
vt 0.995032 0.003301
vt 0.506678 0.491499
vt 0.506678 0.003301
vt 0.995032 0.491499
vt 0.995032 0.003301
vt 0.506678 0.491499
vt 0.506678 0.003301
vt 0.995032 0.491499
vt 0.995032 0.003301
vt 0.506678 0.491499
vt 0.506678 0.003301
vt 0.995032 0.491499
vt 0.995032 0.003301
vt 0.506678 0.491499
vt 0.506678 0.003301
vt 0.995032 0.491499
vt 0.995032 0.003301
vt 0.506678 0.491499
vt 0.506678 0.003301
vt 0.995032 0.491499
vt 0.995032 0.003301
vt 0.506678 0.491499
vt 0.506678 0.003301
vt 0.995032 0.491499
vt 0.995032 0.003301
vt 0.506678 0.491499
vt 0.506678 0.003301
vt 0.995032 0.491499
vt 0.995032 0.003301
vt 0.506678 0.491499
vt 0.506678 0.003301
vt 0.995032 0.491499
vt 0.995032 0.003301
vt 0.506678 0.491499
vt 0.506678 0.003301
vt 0.995032 0.491499
vt 0.995032 0.003301
vt 0.506678 0.491499
vt 0.506678 0.003301
vt 0.995032 0.491499
vt 0.995032 0.003301
vt 0.506678 0.491499
vt 0.506678 0.003301
vt 0.995032 0.491499
vt 0.995032 0.003301
vt 0.506678 0.491499
vt 0.506678 0.003301
vt 0.995032 0.491499
vt 0.995032 0.003301
vt 0.506678 0.491499
vt 0.506678 0.003301
vt 0.995032 0.491499
vt 0.995032 0.003301
vt 0.506678 0.491499
vt 0.506678 0.003301
vt 0.995032 0.491499
vt 0.995032 0.003301
vt 0.506678 0.491499
vt 0.506678 0.003301
vt 0.995032 0.491499
vt 0.995032 0.003301
vt 0.506678 0.491499
vt 0.506678 0.003301
vt 0.995032 0.491499
vt 0.995032 0.003301
vt 0.506678 0.491499
vt 0.506678 0.003301
vt 0.995032 0.491499
vt 0.995032 0.003301
vt 0.506678 0.491499
vt 0.506678 0.003301
vt 0.995032 0.491499
vt 0.995032 0.003301
vt 0.506678 0.491499
vt 0.506678 0.003301
vt 0.995032 0.491499
vt 0.995032 0.003301
vt 0.506678 0.491499
vt 0.506678 0.003301
vt 0.995032 0.491499
vt 0.995032 0.003301
vt 0.506678 0.491499
vt 0.506678 0.003301
vt 0.995032 0.491499
vt 0.995032 0.003301
vt 0.506678 0.491499
vt 0.506678 0.003301
vt 0.995032 0.491499
vt 0.995032 0.003301
vt 0.506678 0.491499
vt 0.506678 0.003301
vt 0.995032 0.491499
vt 0.995032 0.003301
vt 0.506678 0.491499
vt 0.506678 0.003301
vt 0.995032 0.491499
vt 0.995032 0.003301
vt 0.506678 0.491499
vt 0.506678 0.003301
vt 0.995032 0.491499
vt 0.995032 0.003301
vt 0.506678 0.491499
vt 0.506678 0.003301
vt 0.995032 0.491499
vt 0.995032 0.003301
vt 0.506678 0.491499
vt 0.506678 0.003301
vt 0.995032 0.491499
vt 0.995032 0.003301
vt 0.506678 0.491499
vt 0.506678 0.003301
vt 0.995032 0.491499
vt 0.995032 0.003301
vt 0.506678 0.491499




usemtl TI_OrgGround_01_Dif
usemap TI_OrgGround_01_Dif
f 1/1/1 3/3/3 2/2/2
f 1/1/1 2/2/2 4/4/4
f 5/5/5 7/7/7 6/6/6
f 5/5/5 6/6/6 8/8/8
f 9/9/9 11/11/11 10/10/10
f 9/9/9 10/10/10 12/12/12
f 13/13/13 15/15/15 14/14/14
f 13/13/13 14/14/14 16/16/16
f 17/17/17 19/19/19 18/18/18
f 17/17/17 18/18/18 20/20/20
f 21/21/21 23/23/23 22/22/22
f 21/21/21 22/22/22 24/24/24
f 25/25/25 27/27/27 26/26/26
f 25/25/25 26/26/26 28/28/28
f 29/29/29 31/31/31 30/30/30
f 29/29/29 30/30/30 32/32/32
f 33/33/33 35/35/35 34/34/34
f 33/33/33 34/34/34 36/36/36
f 37/37/37 39/39/39 38/38/38
f 37/37/37 38/38/38 40/40/40
f 41/41/41 43/43/43 42/42/42
f 41/41/41 42/42/42 44/44/44
f 45/45/45 47/47/47 46/46/46
f 45/45/45 46/46/46 48/48/48
f 49/49/49 51/51/51 50/50/50
f 49/49/49 50/50/50 52/52/52
f 53/53/53 55/55/55 54/54/54
f 53/53/53 54/54/54 56/56/56
f 57/57/57 59/59/59 58/58/58
f 57/57/57 58/58/58 60/60/60
f 61/61/61 63/63/63 62/62/62
f 61/61/61 62/62/62 64/64/64
f 65/65/65 67/67/67 66/66/66
f 65/65/65 66/66/66 68/68/68
f 69/69/69 71/71/71 70/70/70
f 69/69/69 70/70/70 72/72/72
f 73/73/73 75/75/75 74/74/74
f 73/73/73 74/74/74 76/76/76
f 77/77/77 79/79/79 78/78/78
f 77/77/77 78/78/78 80/80/80
f 81/81/81 83/83/83 82/82/82
f 81/81/81 82/82/82 84/84/84
f 85/85/85 87/87/87 86/86/86
f 85/85/85 86/86/86 88/88/88
f 89/89/89 91/91/91 90/90/90
f 89/89/89 90/90/90 92/92/92
f 93/93/93 95/95/95 94/94/94
f 93/93/93 94/94/94 96/96/96
f 97/97/97 99/99/99 98/98/98
f 97/97/97 98/98/98 100/100/100
f 101/101/101 103/103/103 102/102/102
f 101/101/101 102/102/102 104/104/104
f 105/105/105 107/107/107 106/106/106
f 105/105/105 106/106/106 108/108/108
f 109/109/109 111/111/111 110/110/110
f 109/109/109 110/110/110 112/112/112
f 113/113/113 115/115/115 114/114/114
f 113/113/113 114/114/114 116/116/116
f 117/117/117 119/119/119 118/118/118
f 117/117/117 118/118/118 120/120/120
f 121/121/121 123/123/123 122/122/122
f 121/121/121 122/122/122 124/124/124
f 125/125/125 127/127/127 126/126/126
f 125/125/125 126/126/126 128/128/128
f 129/129/129 131/131/131 130/130/130
f 129/129/129 130/130/130 132/132/132
f 133/133/133 135/135/135 134/134/134
f 133/133/133 134/134/134 136/136/136
f 137/137/137 139/139/139 138/138/138
f 137/137/137 138/138/138 140/140/140
f 141/141/141 143/143/143 142/142/142
f 141/141/141 142/142/142 144/144/144
f 145/145/145 147/147/147 146/146/146
f 145/145/145 146/146/146 148/148/148
f 149/149/149 151/151/151 150/150/150
f 149/149/149 150/150/150 152/152/152
f 153/153/153 155/155/155 154/154/154
f 153/153/153 154/154/154 156/156/156
f 157/157/157 159/159/159 158/158/158
f 157/157/157 158/158/158 160/160/160
f 161/161/161 163/163/163 162/162/162
f 161/161/161 162/162/162 164/164/164
f 165/165/165 167/167/167 166/166/166
f 165/165/165 166/166/166 168/168/168
f 169/169/169 171/171/171 170/170/170
f 169/169/169 170/170/170 172/172/172
f 173/173/173 175/175/175 174/174/174
f 173/173/173 174/174/174 176/176/176
f 177/177/177 179/179/179 178/178/178
f 177/177/177 178/178/178 180/180/180
f 181/181/181 183/183/183 182/182/182
f 181/181/181 182/182/182 184/184/184
f 185/185/185 187/187/187 186/186/186
f 185/185/185 186/186/186 188/188/188
f 189/189/189 191/191/191 190/190/190
f 189/189/189 190/190/190 192/192/192
f 193/193/193 195/195/195 194/194/194
f 193/193/193 194/194/194 196/196/196
f 197/197/197 199/199/199 198/198/198
f 197/197/197 198/198/198 200/200/200
f 201/201/201 203/203/203 202/202/202
f 201/201/201 202/202/202 204/204/204
f 205/205/205 207/207/207 206/206/206
f 205/205/205 206/206/206 208/208/208
f 209/209/209 211/211/211 210/210/210
f 209/209/209 210/210/210 212/212/212
f 213/213/213 215/215/215 214/214/214
f 213/213/213 214/214/214 216/216/216
f 217/217/217 219/219/219 218/218/218
f 217/217/217 218/218/218 220/220/220
f 221/221/221 223/223/223 222/222/222
f 221/221/221 222/222/222 224/224/224

