g NewMesh_tris_112
v 8.223476 2.728922 1.586442
v 11.00266 3.55081 2.341491
v 9.316094 2.823693 3.401218
v 9.97454 3.252194 0.5111867
v 3.664031 1.254563 1.945173
v 2.086048 0.01310887 4.789522
v 1.476677 0.217282 2.409755
v 4.356248 0.8216168 4.271049
v 2.797045 0.4950352 3.80677
v 2.008114 0.723839 1.035881
v 3.736459 1.059103 2.078673
v 1.139838 -0.03111299 2.727962
v 10.31374 2.312955 7.864624
v 8.024131 1.204641 9.378004
v 8.361808 1.726746 7.37673
v 10.03654 1.594625 9.813696
v 8.227974 1.719828 7.839446
v 11.41995 3.059666 6.501266
v 10.64664 2.064489 8.807032
v 9.077124 2.468959 5.468224
v 7.09923 1.514431 6.674272
v 10.15464 2.630981 6.973613
v 8.654755 1.578121 8.384786
v 8.681832 2.354689 5.211773
v 9.639482 3.300672 -1.485218
v 7.628457 2.582206 1.036997
v 7.461644 2.46673 -1.294058
v 9.879073 3.191148 0.8397719
v 8.411959 2.878789 -0.1968643
v 6.519852 2.39448 -2.368502
v 8.541761 2.814341 -2.259688
v 6.442909 2.256663 -0.3066265
v 6.681137 2.605927 -3.718965
v 4.290561 1.835436 -2.010906
v 4.655505 2.007456 -4.123258
v 6.370267 2.224176 -1.625539
v 1.106191 -0.1926494 4.326056
v 1.171126 0.5057626 0.7744728
v 2.883145 0.6401475 2.677257
v -0.5169828 -0.5661833 2.377868
v 2.359284 0.3649751 4.053148
v 1.198183 -0.9582489 6.601263
v 0.4876792 -0.6650075 4.547617
v 3.147232 -0.1249366 6.039953
v 2.320869 -0.1334579 5.506546
v 5.327928 0.6841658 6.78446
v 3.421545 -0.5005376 7.58988
v 4.315013 0.8378972 4.631116
v 0.3488795 0.4613141 -1.341629
v -2.404102 -0.4247447 -2.322563
v -0.566492 0.1903756 -3.281668
v -1.416255 -0.3592635 -0.4003417
v 4.156974 1.874085 -1.781597
v 5.85556 2.02721 0.5945955
v 3.907309 1.430052 0.2256216
v 6.160367 2.271025 -1.439138
v 13.55707 3.83227 5.294911
v 11.82236 3.945818 2.199779
v 14.21072 4.27704 2.909114
v 11.22858 3.257784 4.543097
v -1.124421 -0.0247528 -1.209975
v 1.011138 0.3469588 1.259441
v -1.1509 -0.487944 1.068751
v 1.101389 0.6287664 -1.047131
v -0.6253174 -0.05823302 0.2909471
v 1.804909 0.3764322 2.580643
v -0.4112136 -0.498626 2.623101
v 1.654596 0.6310529 0.2160494
v 0.6329952 -0.2143925 3.567479
v -1.344122 -0.4832294 1.219145
v 0.7474019 0.103498 1.41292
v -1.400149 -0.9711354 3.344016
v -3.756575 -0.8294188 -0.2760646
v -0.6372231 -0.2566192 1.255368
v -2.86218 -1.061896 2.038827
v -1.479977 -0.2235302 -1.090135
v 0.2653096 0.2924214 0.3479275
v 1.121709 0.8656601 -2.748256
v 2.204543 0.9646774 -0.7108165
v -0.7537504 0.01201457 -1.705455
v 4.812515 2.076727 -1.540882
v 2.089506 0.9048163 0.558547
v 2.407045 1.275039 -1.965639
v 4.558448 1.503663 0.9524002
v 0.4915709 0.1826153 1.094746
v 3.689771 1.515947 0.1418429
v 2.663691 0.6888704 2.317051
v 1.590901 0.8125212 -1.110502
v 2.890044 0.1130732 5.529818
v 4.779088 1.238103 3.662442
v 4.813009 0.7875022 5.65335
v 2.920064 0.4082354 3.509945
v 5.897104 1.34029 5.347932
v 5.614551 1.776498 2.449004
v 7.162967 1.995332 3.827064
v 4.407926 0.9604813 3.939876
v 4.522898 1.271862 2.72362
v 3.226627 1.316984 0.1978891
v 5.084317 1.722818 0.8476326
v 2.717392 0.7092389 2.044293
v 6.637753 2.110001 2.635165
v 8.134597 2.229835 5.381566
v 6.145284 1.520582 4.713008
v 8.688734 2.646724 3.27764
v 7.875135 2.436879 3.676737
v 8.418586 2.872433 0.5090733
v 9.682227 3.076892 2.414373
v 6.675872 2.052312 1.757717
v 5.75807 2.308533 -1.690491
v 6.118121 2.007653 1.330275
v 4.498402 1.651057 -0.05901127
v 7.425393 2.492278 -0.3240958
v 9.213474 3.053408 2.643373
v 10.14242 2.831765 5.970361
v 8.118079 2.29567 4.699308
v 11.29726 3.395911 3.884931
v 9.823011 2.747369 5.766562
v 13.04238 3.524056 5.972947
v 11.44711 2.653351 7.460125
v 11.46578 3.432995 4.23492
v 6.66399 0.884922 8.657959
v 7.85211 2.118729 5.462191
v 8.884201 1.839242 7.794912
v 5.707738 0.9694953 6.278182
v -3.800382 -0.7687052 -1.24538
v -1.625137 0.06784575 -4.038055
v -1.309545 -0.168132 -1.49413
v -4.058604 -0.7392784 -3.806491
v -1.611503 -0.5861547 1.693893
v -4.113643 -1.101704 0.4600603
v -2.284935 -0.596993 -0.1976214
v -3.396239 -1.251212 2.3294
v 1.000963 -0.3433422 4.571104
v -2.422554 -1.395823 4.265432
v -0.6499316 -0.5530948 2.646876
v -0.7069491 -1.383272 6.1439
v 5.810277 0.008856881 10.06371
v 6.657747 -0.8859191 12.9704
v 4.882324 -1.246255 11.66251
v 7.659053 0.2123219 11.30193
v 8.923028 0.16691 14.06863
v 6.845694 -1.219066 15.27171
v 7.271738 -0.6809833 13.43391
v 8.573477 -0.5127559 15.87539
v 7.07969 -1.241716 16.14439
v 8.608932 0.1896469 13.38303
v 9.220392 -0.1149015 15.73889
v 6.563873 -1.114196 13.74972
v 6.454018 -1.507838 15.94308
v 4.178421 -2.022335 13.32891
v 6.471846 -1.094546 13.49807
v 4.247286 -2.619639 15.73467
v 4.816308 -0.584689 10.4385
v 2.259081 -0.9869719 7.900043
v 4.600667 0.06032209 7.964342
v 2.567692 -1.813932 10.30937
v 0.9994501 -2.473183 10.71835
v 2.857243 -2.447403 12.94192
v 0.9692979 -3.188973 12.63987
v 2.947453 -1.884587 10.97199
v 2.563868 -2.527519 12.80206
v 4.856376 -2.149761 15.54665
v 2.503356 -3.083356 15.28485
v 4.989205 -1.791069 13.0306
v 4.165184 -2.346587 17.2884
v 2.027614 -3.107499 15.08977
v 4.156815 -2.425579 15.05378
v 2.100311 -3.203873 17.32253
v 6.697293 -1.137211 13.74647
v 6.109038 -1.577559 16.70949
v 5.09206 -2.054915 14.86402
v 7.791101 -0.8229342 15.58296
v 5.281757 -1.853578 14.63384
v 7.971806 -0.6257037 15.35038
v 6.371921 -1.54035 16.46421
v 6.958216 -1.101467 13.51106
v 12.09932 1.948543 11.03665
v 14.84524 3.023214 8.995917
v 14.58221 2.310747 11.41753
v 12.40782 2.458923 8.569795
v 15.12385 2.656979 14.04615
v 13.29486 2.193142 11.32388
v 15.52785 2.772614 11.73995
v 12.9493 1.890743 13.62264
v 11.32733 1.520547 11.62339
v 13.67952 2.267878 12.91309
v 11.94957 1.523159 13.49339
v 13.11242 2.11051 11.03221
v 16.31458 3.836714 7.526865
v 14.68664 4.244558 4.60252
v 16.95331 4.464721 5.315141
v 14.09069 3.428391 6.764188
v 19.20373 4.029619 9.488758
v 16.73006 3.671101 8.051098
v 18.62703 4.223993 7.540904
v 17.35131 3.316304 9.962291
v 14.87018 2.580411 14.4132
v 16.00434 3.056823 11.10489
v 17.05396 3.194853 13.36747
v 13.88306 2.243405 12.1434
v 13.79752 2.12828 14.98674
v 11.42827 1.499196 12.63008
v 13.70378 2.281346 12.58687
v 11.59443 1.160007 15.00682
v 19.51139 4.248039 8.641912
v 17.70439 3.592588 11.22588
v 17.36571 3.553884 8.972271
v 19.89912 4.103167 10.88326
v 20.86606 4.534713 9.914097
v 18.74534 3.795635 12.53228
v 18.5456 3.799289 10.09922
v 21.11813 4.334379 12.33402
v 17.64913 4.79145 5.144955
v 14.14742 3.82449 5.787052
v 15.49725 4.575778 3.682278
v 16.34611 3.834289 7.19496
v 2.920818 1.413448 -1.953707
v 6.107553 2.435458 -2.395451
v 4.781829 1.809797 -0.5090726
v 4.306059 1.848907 -3.850785
v 3.240266 1.730668 -4.069794
v 1.673022 0.9120407 -0.899794
v 0.9641858 0.770595 -3.364893
v 4.018772 1.669909 -1.622468

vn -0.3008903 0.9509037 0.07243655
vn -0.3008903 0.9509037 0.07243655
vn -0.3158174 0.9382638 0.141139
vn -0.2844278 0.9586914 0.003364478
vn -0.3324367 0.9179999 0.2162452
vn -0.3324367 0.9179999 0.2162452
vn -0.3906314 0.9032664 0.1775294
vn -0.2725456 0.9280491 0.2538575
vn -0.3438825 0.922731 0.174104
vn -0.3438825 0.922731 0.174104
vn -0.2788669 0.9473059 0.1576219
vn -0.4071434 0.8934478 0.1896977
vn -0.2854674 0.9261746 0.246392
vn -0.2854674 0.9261746 0.246392
vn -0.3251304 0.9269981 0.1869885
vn -0.2443477 0.9206251 0.3045382
vn -0.2854674 0.9261746 0.246392
vn -0.2854674 0.9261746 0.246392
vn -0.2545503 0.9160318 0.3099834
vn -0.3149277 0.9315914 0.1815432
vn -0.3537628 0.9092141 0.2195034
vn -0.3537628 0.9092141 0.2195034
vn -0.3534519 0.8899244 0.2882815
vn -0.3522685 0.9238642 0.1496053
vn -0.3076571 0.9511519 0.02563809
vn -0.3076571 0.9511519 0.02563809
vn -0.3590904 0.9330772 -0.02051962
vn -0.2546539 0.9643731 0.07166497
vn -0.2528491 0.9674951 0.004535422
vn -0.2528491 0.9674951 0.004535422
vn -0.2009048 0.9786571 -0.04321197
vn -0.3035032 0.9513961 0.05225966
vn -0.2487158 0.9646567 0.08705053
vn -0.2487158 0.9646567 0.08705053
vn -0.2883823 0.9571021 0.02812594
vn -0.2077801 0.967289 0.1455309
vn -0.3428636 0.9228994 0.1752174
vn -0.3428636 0.9228994 0.1752174
vn -0.2749412 0.9443326 0.180674
vn -0.4090365 0.8967569 0.1688667
vn -0.3493402 0.8871589 0.3015138
vn -0.3493402 0.8871589 0.3015138
vn -0.4097508 0.8724469 0.2663466
vn -0.287147 0.8973439 0.3351424
vn -0.3640308 0.884959 0.2903949
vn -0.3640308 0.884959 0.2903949
vn -0.3820392 0.8543329 0.3523655
vn -0.3441648 0.9110695 0.2269426
vn -0.3315577 0.939907 0.08151255
vn -0.3315577 0.939907 0.08151255
vn -0.3108479 0.9503571 0.01395137
vn -0.3505756 0.9246607 0.1486578
vn -0.2633837 0.9563416 0.1266483
vn -0.2633837 0.9563416 0.1266483
vn -0.3177016 0.9333762 0.1669566
vn -0.2077217 0.9744271 0.08569373
vn -0.2356148 0.9573601 0.1671743
vn -0.2356148 0.9573601 0.1671743
vn -0.1750444 0.9754142 0.1338892
vn -0.2949828 0.9344208 0.1996063
vn -0.3282563 0.9336497 0.1433386
vn -0.3282563 0.9336497 0.1433386
vn -0.3681268 0.9119715 0.1810818
vn -0.2872422 0.9520749 0.105096
vn -0.3204265 0.9331533 0.1629473
vn -0.3204265 0.9331533 0.1629473
vn -0.3560666 0.9117328 0.2048411
vn -0.28367 0.9513225 0.1204857
vn -0.3204265 0.9331533 0.1629473
vn -0.3204265 0.9331533 0.1629473
vn -0.2787502 0.9521033 0.1256896
vn -0.3609864 0.9109522 0.1996372
vn -0.2480032 0.9575404 0.1470064
vn -0.2480032 0.9575404 0.1470064
vn -0.2707267 0.9418275 0.1991686
vn -0.2244156 0.9699171 0.09433205
vn -0.3305469 0.9401648 0.08263674
vn -0.3305469 0.9401648 0.08263674
vn -0.2764829 0.9557519 0.1004766
vn -0.3834594 0.9213021 0.06450891
vn -0.2955237 0.9444374 0.1438879
vn -0.2955237 0.9444374 0.1438879
vn -0.3299522 0.9390788 0.0962422
vn -0.2600656 0.9465054 0.1910323
vn -0.3447531 0.9279853 0.1413814
vn -0.3447531 0.9279853 0.1413814
vn -0.3265393 0.9243385 0.1974092
vn -0.3617657 0.9283987 0.0848611
vn -0.3748984 0.9113783 0.1698258
vn -0.3748984 0.9113783 0.1698258
vn -0.3355282 0.9175479 0.2133698
vn -0.4129623 0.9020333 0.1256902
vn -0.3401877 0.924445 0.1722606
vn -0.3401877 0.924445 0.1722606
vn -0.2844025 0.9435661 0.1697006
vn -0.3947875 0.9021031 0.1742205
vn -0.310858 0.9339763 0.1762258
vn -0.310858 0.9339763 0.1762258
vn -0.2611317 0.9534115 0.1510522
vn -0.3595013 0.911287 0.2007855
vn -0.3332279 0.9322529 0.140939
vn -0.3332279 0.9322529 0.140939
vn -0.3805901 0.9094017 0.1677494
vn -0.2847047 0.951856 0.1136376
vn -0.3357251 0.9392388 0.07154797
vn -0.3357251 0.9392388 0.07154797
vn -0.28045 0.9562413 0.08336891
vn -0.3898304 0.918964 0.05947775
vn -0.2633837 0.9563416 0.1266483
vn -0.2633837 0.9563416 0.1266483
vn -0.3194167 0.9384398 0.1315439
vn -0.2064329 0.9709114 0.1213115
vn -0.2904605 0.9459713 0.1441216
vn -0.2904605 0.9459713 0.1441216
vn -0.3441457 0.9255691 0.1577522
vn -0.2357633 0.9630777 0.1299889
vn -0.2421294 0.9433995 0.2266508
vn -0.2421294 0.9433995 0.2266508
vn -0.2420395 0.927893 0.2836042
vn -0.2413757 0.9556192 0.1689078
vn -0.3537627 0.909214 0.2195034
vn -0.3537627 0.909214 0.2195034
vn -0.3014582 0.9217829 0.2438017
vn -0.4048347 0.8934773 0.1944404
vn -0.2667643 0.9604426 0.07991672
vn -0.2667643 0.9604426 0.07991672
vn -0.2217079 0.9680339 0.1172856
vn -0.3108913 0.949505 0.04226934
vn -0.2621499 0.9559298 0.1321953
vn -0.2621499 0.9559298 0.1321953
vn -0.2385819 0.9678701 0.07941151
vn -0.2848046 0.940659 0.1845184
vn -0.3044751 0.9278672 0.2153074
vn -0.3044751 0.9278672 0.2153074
vn -0.3030089 0.9398769 0.157534
vn -0.3048805 0.9126247 0.2723306
vn -0.3929689 0.8403833 0.3732712
vn -0.3929689 0.8403833 0.3732712
vn -0.4441757 0.8116615 0.3793594
vn -0.3403929 0.8661771 0.3658824
vn -0.4667343 0.8638951 0.1893261
vn -0.4667343 0.8638951 0.1893261
vn -0.4936288 0.8588095 0.1370291
vn -0.4382136 0.8659708 0.2409633
vn -0.4667343 0.8638951 0.1893261
vn -0.4667343 0.8638951 0.1893261
vn -0.4206987 0.8794014 0.2228584
vn -0.5111439 0.8453789 0.1551341
vn -0.4184739 0.8882483 0.1894583
vn -0.4184739 0.8882483 0.1894583
vn -0.3802857 0.9123818 0.1514664
vn -0.455204 0.86102 0.2267901
vn -0.4337072 0.8487942 0.3024014
vn -0.4337072 0.8487942 0.3024014
vn -0.3998682 0.877816 0.2637129
vn -0.4660351 0.816815 0.3400363
vn -0.3505571 0.8929064 0.2825385
vn -0.3505571 0.8929064 0.2825385
vn -0.390225 0.8647913 0.316007
vn -0.3096677 0.9179104 0.2480855
vn -0.3401383 0.9272638 0.1564853
vn -0.3401383 0.9272638 0.1564853
vn -0.3803323 0.9044453 0.1931992
vn -0.2987593 0.9468516 0.1192262
vn -0.3443641 0.9387839 0.009901866
vn -0.3443641 0.9387839 0.009901866
vn -0.3053603 0.9516826 -0.03248289
vn -0.3821682 0.9226143 0.05225212
vn -0.4256647 0.9035114 0.04976676
vn -0.4256647 0.9035114 0.04976676
vn -0.4770874 0.878127 0.03578524
vn -0.3727589 0.9257478 0.0635749
vn -0.4256646 0.9035114 0.04976678
vn -0.4256646 0.9035114 0.04976678
vn -0.4362923 0.8934268 0.1069463
vn -0.4135539 0.910448 -0.007586169
vn -0.2144704 0.9531437 0.2133534
vn -0.2144704 0.9531437 0.2133534
vn -0.1783215 0.9490453 0.2598357
vn -0.2498722 0.9539211 0.1661278
vn -0.2984156 0.9536793 0.03800049
vn -0.2984156 0.9536793 0.03800049
vn -0.2519644 0.9677266 0.004398287
vn -0.343827 0.9363093 0.07147031
vn -0.3348747 0.9399418 0.0660937
vn -0.3348747 0.9399418 0.0660937
vn -0.3589291 0.9258599 0.1181248
vn -0.3096537 0.9507488 0.01383231
vn -0.2145968 0.9438733 0.2511004
vn -0.2145968 0.9438733 0.2511004
vn -0.1641302 0.9603637 0.2253062
vn -0.2643157 0.9240943 0.2760197
vn -0.2613592 0.9409825 0.2150424
vn -0.2613592 0.9409825 0.2150424
vn -0.2348006 0.9579161 0.1651221
vn -0.2870072 0.9207703 0.2642134
vn -0.2994696 0.9534767 0.03464013
vn -0.2994696 0.9534767 0.03464013
vn -0.2459433 0.9677201 0.05504132
vn -0.3519525 0.9359113 0.01411825
vn -0.3602002 0.9257591 0.1150037
vn -0.3602002 0.9257591 0.1150037
vn -0.3229734 0.9436028 0.07281468
vn -0.3961721 0.90469 0.156792
vn -0.2576112 0.9640999 0.06440282
vn -0.2576112 0.9640999 0.06440282
vn -0.3035754 0.9523574 0.02928077
vn -0.2107496 0.9724835 0.09930047
vn -0.2565559 0.96438 0.0644215
vn -0.2565559 0.96438 0.0644215
vn -0.3001109 0.9535475 0.02608404
vn -0.2121069 0.9718525 0.1025345
vn -0.2145968 0.9438732 0.2511004
vn -0.2145968 0.9438732 0.2511004
vn -0.2277992 0.9540879 0.1944832
vn -0.2006468 0.93037 0.3068427
vn -0.2982018 0.9529962 0.0536093
vn -0.2982018 0.9529962 0.0536093
vn -0.2893666 0.9506524 0.1119239
vn -0.305998 0.9520196 -0.004892081
vn -0.3246391 0.9422054 0.08281609
vn -0.3246391 0.9422054 0.08281609
vn -0.3737249 0.9259459 0.05434926
vn -0.2744221 0.955182 0.1109944

vt 0.000569 0.507676
vt 0.486845 0.996311
vt 0.486845 0.507676
vt 0.000569 0.996311
vt 0.000569 0.507676
vt 0.486845 0.996311
vt 0.486845 0.507676
vt 0.000569 0.996311
vt 0.000569 0.507676
vt 0.486845 0.996311
vt 0.486845 0.507676
vt 0.000569 0.996311
vt 0.000569 0.507676
vt 0.486845 0.996311
vt 0.486845 0.507676
vt 0.000569 0.996311
vt 0.000569 0.507676
vt 0.486845 0.996311
vt 0.486845 0.507676
vt 0.000569 0.996311
vt 0.000569 0.507676
vt 0.486845 0.996311
vt 0.486845 0.507676
vt 0.000569 0.996311
vt 0.000569 0.507676
vt 0.486845 0.996311
vt 0.486845 0.507676
vt 0.000569 0.996311
vt 0.000569 0.507676
vt 0.486845 0.996311
vt 0.486845 0.507676
vt 0.000569 0.996311
vt 0.000569 0.507676
vt 0.486845 0.996311
vt 0.486845 0.507676
vt 0.000569 0.996311
vt 0.000569 0.507676
vt 0.486845 0.996311
vt 0.486845 0.507676
vt 0.000569 0.996311
vt 0.000569 0.507676
vt 0.486845 0.996311
vt 0.486845 0.507676
vt 0.000569 0.996311
vt 0.000569 0.507676
vt 0.486845 0.996311
vt 0.486845 0.507676
vt 0.000569 0.996311
vt 0.000569 0.507676
vt 0.486845 0.996311
vt 0.486845 0.507676
vt 0.000569 0.996311
vt 0.000569 0.507676
vt 0.486845 0.996311
vt 0.486845 0.507676
vt 0.000569 0.996311
vt 0.000569 0.507676
vt 0.486845 0.996311
vt 0.486845 0.507676
vt 0.000569 0.996311
vt 0.506678 0.003301
vt 0.995032 0.491499
vt 0.995032 0.003301
vt 0.506678 0.491499
vt 0.506678 0.003301
vt 0.995032 0.491499
vt 0.995032 0.003301
vt 0.506678 0.491499
vt 0.506678 0.003301
vt 0.995032 0.491499
vt 0.995032 0.003301
vt 0.506678 0.491499
vt 0.506678 0.003301
vt 0.995032 0.491499
vt 0.995032 0.003301
vt 0.506678 0.491499
vt 0.506678 0.003301
vt 0.995032 0.491499
vt 0.995032 0.003301
vt 0.506678 0.491499
vt 0.506678 0.003301
vt 0.995032 0.491499
vt 0.995032 0.003301
vt 0.506678 0.491499
vt 0.506678 0.003301
vt 0.995032 0.491499
vt 0.995032 0.003301
vt 0.506678 0.491499
vt 0.506678 0.003301
vt 0.995032 0.491499
vt 0.995032 0.003301
vt 0.506678 0.491499
vt 0.506678 0.003301
vt 0.995032 0.491499
vt 0.995032 0.003301
vt 0.506678 0.491499
vt 0.506678 0.003301
vt 0.995032 0.491499
vt 0.995032 0.003301
vt 0.506678 0.491499
vt 0.506678 0.003301
vt 0.995032 0.491499
vt 0.995032 0.003301
vt 0.506678 0.491499
vt 0.506678 0.003301
vt 0.995032 0.491499
vt 0.995032 0.003301
vt 0.506678 0.491499
vt 0.506678 0.003301
vt 0.995032 0.491499
vt 0.995032 0.003301
vt 0.506678 0.491499
vt 0.506678 0.003301
vt 0.995032 0.491499
vt 0.995032 0.003301
vt 0.506678 0.491499
vt 0.506678 0.003301
vt 0.995032 0.491499
vt 0.995032 0.003301
vt 0.506678 0.491499
vt 0.506678 0.003301
vt 0.995032 0.491499
vt 0.995032 0.003301
vt 0.506678 0.491499
vt 0.506678 0.003301
vt 0.995032 0.491499
vt 0.995032 0.003301
vt 0.506678 0.491499
vt 0.506678 0.003301
vt 0.995032 0.491499
vt 0.995032 0.003301
vt 0.506678 0.491499
vt 0.506678 0.003301
vt 0.995032 0.491499
vt 0.995032 0.003301
vt 0.506678 0.491499
vt 0.506678 0.003301
vt 0.995032 0.491499
vt 0.995032 0.003301
vt 0.506678 0.491499
vt 0.506678 0.003301
vt 0.995032 0.491499
vt 0.995032 0.003301
vt 0.506678 0.491499
vt 0.506678 0.003301
vt 0.995032 0.491499
vt 0.995032 0.003301
vt 0.506678 0.491499
vt 0.506678 0.003301
vt 0.995032 0.491499
vt 0.995032 0.003301
vt 0.506678 0.491499
vt 0.506678 0.003301
vt 0.995032 0.491499
vt 0.995032 0.003301
vt 0.506678 0.491499
vt 0.506678 0.003301
vt 0.995032 0.491499
vt 0.995032 0.003301
vt 0.506678 0.491499
vt 0.506678 0.003301
vt 0.995032 0.491499
vt 0.995032 0.003301
vt 0.506678 0.491499
vt 0.506678 0.003301
vt 0.995032 0.491499
vt 0.995032 0.003301
vt 0.506678 0.491499
vt 0.506678 0.003301
vt 0.995032 0.491499
vt 0.995032 0.003301
vt 0.506678 0.491499
vt 0.506678 0.003301
vt 0.995032 0.491499
vt 0.995032 0.003301
vt 0.506678 0.491499
vt 0.506678 0.003301
vt 0.995032 0.491499
vt 0.995032 0.003301
vt 0.506678 0.491499
vt 0.506678 0.003301
vt 0.995032 0.491499
vt 0.995032 0.003301
vt 0.506678 0.491499
vt 0.506678 0.003301
vt 0.995032 0.491499
vt 0.995032 0.003301
vt 0.506678 0.491499
vt 0.506678 0.003301
vt 0.995032 0.491499
vt 0.995032 0.003301
vt 0.506678 0.491499
vt 0.506678 0.003301
vt 0.995032 0.491499
vt 0.995032 0.003301
vt 0.506678 0.491499
vt 0.506678 0.003301
vt 0.995032 0.491499
vt 0.995032 0.003301
vt 0.506678 0.491499
vt 0.506678 0.003301
vt 0.995032 0.491499
vt 0.995032 0.003301
vt 0.506678 0.491499
vt 0.506678 0.003301
vt 0.995032 0.491499
vt 0.995032 0.003301
vt 0.506678 0.491499
vt 0.506678 0.003301
vt 0.995032 0.491499
vt 0.995032 0.003301
vt 0.506678 0.491499
vt 0.506678 0.003301
vt 0.995032 0.491499
vt 0.995032 0.003301
vt 0.506678 0.491499
vt 0.506678 0.003301
vt 0.995032 0.491499
vt 0.995032 0.003301
vt 0.506678 0.491499
vt 0.506678 0.003301
vt 0.995032 0.491499
vt 0.995032 0.003301
vt 0.506678 0.491499




usemtl TI_OrgGround_01_Dif
usemap TI_OrgGround_01_Dif
f 1/1/1 3/3/3 2/2/2
f 1/1/1 2/2/2 4/4/4
f 5/5/5 7/7/7 6/6/6
f 5/5/5 6/6/6 8/8/8
f 9/9/9 11/11/11 10/10/10
f 9/9/9 10/10/10 12/12/12
f 13/13/13 15/15/15 14/14/14
f 13/13/13 14/14/14 16/16/16
f 17/17/17 19/19/19 18/18/18
f 17/17/17 18/18/18 20/20/20
f 21/21/21 23/23/23 22/22/22
f 21/21/21 22/22/22 24/24/24
f 25/25/25 27/27/27 26/26/26
f 25/25/25 26/26/26 28/28/28
f 29/29/29 31/31/31 30/30/30
f 29/29/29 30/30/30 32/32/32
f 33/33/33 35/35/35 34/34/34
f 33/33/33 34/34/34 36/36/36
f 37/37/37 39/39/39 38/38/38
f 37/37/37 38/38/38 40/40/40
f 41/41/41 43/43/43 42/42/42
f 41/41/41 42/42/42 44/44/44
f 45/45/45 47/47/47 46/46/46
f 45/45/45 46/46/46 48/48/48
f 49/49/49 51/51/51 50/50/50
f 49/49/49 50/50/50 52/52/52
f 53/53/53 55/55/55 54/54/54
f 53/53/53 54/54/54 56/56/56
f 57/57/57 59/59/59 58/58/58
f 57/57/57 58/58/58 60/60/60
f 61/61/61 63/63/63 62/62/62
f 61/61/61 62/62/62 64/64/64
f 65/65/65 67/67/67 66/66/66
f 65/65/65 66/66/66 68/68/68
f 69/69/69 71/71/71 70/70/70
f 69/69/69 70/70/70 72/72/72
f 73/73/73 75/75/75 74/74/74
f 73/73/73 74/74/74 76/76/76
f 77/77/77 79/79/79 78/78/78
f 77/77/77 78/78/78 80/80/80
f 81/81/81 83/83/83 82/82/82
f 81/81/81 82/82/82 84/84/84
f 85/85/85 87/87/87 86/86/86
f 85/85/85 86/86/86 88/88/88
f 89/89/89 91/91/91 90/90/90
f 89/89/89 90/90/90 92/92/92
f 93/93/93 95/95/95 94/94/94
f 93/93/93 94/94/94 96/96/96
f 97/97/97 99/99/99 98/98/98
f 97/97/97 98/98/98 100/100/100
f 101/101/101 103/103/103 102/102/102
f 101/101/101 102/102/102 104/104/104
f 105/105/105 107/107/107 106/106/106
f 105/105/105 106/106/106 108/108/108
f 109/109/109 111/111/111 110/110/110
f 109/109/109 110/110/110 112/112/112
f 113/113/113 115/115/115 114/114/114
f 113/113/113 114/114/114 116/116/116
f 117/117/117 119/119/119 118/118/118
f 117/117/117 118/118/118 120/120/120
f 121/121/121 123/123/123 122/122/122
f 121/121/121 122/122/122 124/124/124
f 125/125/125 127/127/127 126/126/126
f 125/125/125 126/126/126 128/128/128
f 129/129/129 131/131/131 130/130/130
f 129/129/129 130/130/130 132/132/132
f 133/133/133 135/135/135 134/134/134
f 133/133/133 134/134/134 136/136/136
f 137/137/137 139/139/139 138/138/138
f 137/137/137 138/138/138 140/140/140
f 141/141/141 143/143/143 142/142/142
f 141/141/141 142/142/142 144/144/144
f 145/145/145 147/147/147 146/146/146
f 145/145/145 146/146/146 148/148/148
f 149/149/149 151/151/151 150/150/150
f 149/149/149 150/150/150 152/152/152
f 153/153/153 155/155/155 154/154/154
f 153/153/153 154/154/154 156/156/156
f 157/157/157 159/159/159 158/158/158
f 157/157/157 158/158/158 160/160/160
f 161/161/161 163/163/163 162/162/162
f 161/161/161 162/162/162 164/164/164
f 165/165/165 167/167/167 166/166/166
f 165/165/165 166/166/166 168/168/168
f 169/169/169 171/171/171 170/170/170
f 169/169/169 170/170/170 172/172/172
f 173/173/173 175/175/175 174/174/174
f 173/173/173 174/174/174 176/176/176
f 177/177/177 179/179/179 178/178/178
f 177/177/177 178/178/178 180/180/180
f 181/181/181 183/183/183 182/182/182
f 181/181/181 182/182/182 184/184/184
f 185/185/185 187/187/187 186/186/186
f 185/185/185 186/186/186 188/188/188
f 189/189/189 191/191/191 190/190/190
f 189/189/189 190/190/190 192/192/192
f 193/193/193 195/195/195 194/194/194
f 193/193/193 194/194/194 196/196/196
f 197/197/197 199/199/199 198/198/198
f 197/197/197 198/198/198 200/200/200
f 201/201/201 203/203/203 202/202/202
f 201/201/201 202/202/202 204/204/204
f 205/205/205 207/207/207 206/206/206
f 205/205/205 206/206/206 208/208/208
f 209/209/209 211/211/211 210/210/210
f 209/209/209 210/210/210 212/212/212
f 213/213/213 215/215/215 214/214/214
f 213/213/213 214/214/214 216/216/216
f 217/217/217 219/219/219 218/218/218
f 217/217/217 218/218/218 220/220/220
f 221/221/221 223/223/223 222/222/222
f 221/221/221 222/222/222 224/224/224

