g NewMesh_tris_118
v -0.6839516 1.650809 -0.4991073
v 1.02871 -1.489255 0.4073621
v 0.2369642 0.6258976 1.720433
v -0.1247088 -0.5732947 -1.750306
v 0.2395405 0.1843219 1.01772
v -0.1177245 -0.3404938 -1.779343
v 0.8616965 -1.266102 -0.2601862
v -0.8998693 0.9887333 -0.4582608
v 0.183038 0.1482547 -0.1733009
v -1.088014 -0.894851 -2.723384
v 0.0341671 -1.775783 -1.117226
v -1.118274 0.9763907 -1.668579
v -0.4414085 0.4299872 -1.211993
v -1.464365 1.568228 -0.1030914
v -1.556588 1.152049 -1.371442
v -0.4293605 0.7422374 0.08907456
v -0.3044407 -0.1372706 1.702051
v 0.1831191 1.029773 0.2479236
v 0.4311747 -0.2749275 0.5610977
v -0.6606803 1.122136 1.316252
v 0.8645363 -0.7039244 0.3853287
v -0.7656806 0.2330369 2.229393
v -0.08059183 0.8858265 0.6227067
v 0.03160897 -1.41861 1.89277
v -0.3697116 1.039983 -0.703205
v -1.887623 0.3636455 -2.432372
v -0.3938928 -0.2042131 -1.858415
v -1.93732 1.49695 -1.168935
v -0.5343848 -1.149256 -1.6751
v 1.814878 -0.7528401 -2.272769
v 0.8425654 -0.4691703 -0.8590637
v 0.4823166 -1.586894 -3.016448
v 1.745284 -1.512129 -2.94809
v -1.47373 -1.868271 -4.07629
v 0.7287846 -2.195893 -5.044545
v -0.4522148 -1.4223 -1.919083
v 3.276783 -0.640784 0.8786691
v -0.1644537 -0.2079707 0.334777
v 1.816121 -0.5399339 -1.12999
v 1.265815 -0.5581942 2.337299
v 1.631117 -0.5069938 -1.774623
v 2.587188 -1.720071 -4.94243
v 3.777675 -0.6273677 -3.041124
v 0.5043195 -1.82061 -3.572111
v 3.145276 -0.9763653 -3.277463
v 2.559266 -0.4692184 0.005294272
v 1.191562 -0.8887851 -1.906896
v 4.513259 -0.7953948 -1.328362
v -1.55142 -1.045658 -1.159957
v 1.282898 -1.162567 -2.829422
v 0.6534799 -0.4448324 -0.7034784
v -0.8728766 -1.971936 -3.187895
v 3.188643 -1.024056 -3.086682
v 6.069832 -0.6762808 -1.886287
v 4.016706 -0.7744932 -1.038211
v 5.254248 -1.147656 -3.900445
v 4.126588 -1.031742 -3.429177
v 6.668373 -1.180602 -4.820385
v 6.098203 -0.9088759 -2.865647
v 4.708175 -1.506417 -5.34134
v 9.179627 -0.4440272 -2.325975
v 7.326862 -1.141482 -5.26967
v 9.76944 -0.9741434 -4.709141
v 6.756588 -0.8601995 -2.839845
v 7.500667 -0.7178083 -1.744125
v 9.901746 -0.6478909 -3.307205
v 9.48425 -0.6546121 -1.321552
v 7.932523 -0.9153115 -3.716853
v 10.39168 -0.6377286 -2.416201
v 11.03509 -0.644764 -5.203204
v 12.10626 -0.7514017 -3.487863
v 9.319303 -0.7358249 -4.131302
v 12.90208 -0.5631995 -5.906512
v 11.59629 -0.716266 -3.325779
v 10.98033 -0.8965752 -5.273387
v 13.54264 -0.5887396 -3.958663
v 9.858094 -1.322103 -6.954713
v 12.96314 -0.5274738 -5.522856
v 10.63646 -0.724209 -4.67131
v 12.21576 -1.365769 -7.74005
v 12.13593 -0.5854442 -5.334515
v 13.35329 -1.315589 -8.472609
v 14.35829 -0.7422649 -6.32602
v 11.15697 -1.395123 -7.41601
v 10.13826 -0.6737729 -4.652317
v 8.748668 -1.614406 -7.786162
v 11.08101 -1.2475 -6.914313
v 7.835825 -1.286043 -5.46378
v 11.00646 -0.6659743 -4.257935
v 7.807819 -0.9039297 -4.353843
v 9.478512 -1.11006 -5.879637
v 9.351731 -0.6868899 -2.701275
v 11.62059 -1.279762 -0.9087247
v 12.30756 -0.4197508 -4.193534
v 13.6049 -1.380573 -2.346949
v 10.27551 -0.5517063 -2.826235
v 10.71795 -0.9131116 -0.5205134
v 10.15093 -0.5335503 -4.087584
v 12.22726 -0.8332447 -2.60073
v 8.640113 -0.8719341 -2.034634
v 15.08121 -0.8901669 -3.390712
v 12.35277 -0.5556316 -4.041936
v 14.06003 -0.5863553 -5.083436
v 13.35887 -1.057376 -2.387719
v 10.10228 -1.292794 0.2822341
v 12.46567 -0.9881873 -2.455606
v 12.59078 -1.848802 -0.03741256
v 9.926938 -0.677106 -2.206571
v 9.294822 -1.375203 1.253036
v 9.225251 -0.3716479 -2.169657
v 10.96843 -1.370264 -0.6387124
v 7.49394 -0.6156021 -0.3468169
v 4.092857 -2.196761 -7.37557
v 5.240048 -1.173186 -4.69059
v 3.254188 -1.769221 -5.397556
v 6.104677 -1.809701 -6.60003
v 1.89979 -1.413311 -4.557142
v 5.533978 -1.142452 -4.337552
v 3.583804 -0.9476668 -2.652202
v 3.864747 -1.860379 -6.175968
v 12.80204 -0.4540714 -5.156616
v 15.33832 -0.8050792 -7.453776
v 15.22943 -0.2709571 -5.080077
v 12.93906 -1.223451 -7.463317
v 17.33038 -0.06806172 -6.830506
v 14.30331 -1.008316 -7.777776
v 16.41298 -0.9563274 -8.794086
v 15.27005 -0.342797 -5.750762
v 17.66472 -0.6740674 -4.26834
v 15.29427 -1.431783 -2.515791
v 15.53903 -0.8495977 -4.576209
v 17.43568 -1.46265 -2.275892
v 15.28061 -1.575306 -1.786101
v 11.85226 -1.154967 -1.528105
v 13.50355 -0.8593203 -3.31685
v 13.59462 -2.100448 -0.08449691
v 12.76071 -2.833795 -13.69596
v 10.2615 -2.679555 -11.69578
v 10.53642 -3.244276 -13.87613
v 12.51111 -2.491781 -11.4668
v 13.99309 -2.210962 -11.55496
v 13.10005 -2.978046 -14.33302
v 14.99041 -2.663563 -13.38906
v 12.1245 -2.734255 -12.44826
v 8.456842 -3.186903 -13.29833
v 8.362133 -2.469333 -9.873138
v 6.6788 -3.118295 -11.5728
v 10.16335 -2.782021 -11.5469
v 4.167496 -2.023731 -7.193372
v 0.5627948 -2.626307 -7.173254
v 2.458313 -2.939901 -8.906592
v 2.313877 -1.958413 -5.389038
v 3.317229 -2.210253 -6.88084
v 2.839163 -2.902993 -10.43706
v 4.894112 -2.572419 -8.89999
v 1.285112 -2.797162 -8.37105
v 4.287831 -3.1809 -12.61657
v 4.316362 -4.04903 -16.11839
v 6.110585 -3.623312 -14.35068
v 2.510316 -3.856725 -14.32215
v 4.111634 -3.413827 -13.47201
v 7.166532 -3.506556 -14.33816
v 6.075015 -3.231762 -12.39201
v 5.208323 -3.872498 -15.38024
v 8.415563 -3.680192 -16.81021
v 9.591084 -3.307511 -14.01428
v 7.610001 -3.668133 -14.8032
v 10.41448 -3.498613 -16.00492
v 10.81674 -3.232222 -14.31686
v 10.9352 -3.412886 -17.42889
v 12.4356 -3.245733 -15.81797
v 9.335865 -3.582426 -15.91642
v 8.519338 -2.71773 -11.04525
v 7.227402 -3.449218 -14.20816
v 9.499326 -3.245867 -13.25329
v 6.256877 -3.122954 -11.95729
v -0.3912451 -3.494218 -11.3468
v -2.184047 -4.25651 -13.41271
v -0.2017327 -3.947752 -13.2954
v -2.343234 -3.9647 -11.43075
v -3.951203 -4.088185 -10.35571
v -1.586749 -4.039299 -13.08771
v -1.45073 -3.597796 -10.57247
v -4.034694 -4.732502 -12.82911
v -0.8144296 -3.549831 -11.12259
v -0.2125472 -2.875753 -8.095964
v -2.028117 -3.490441 -9.246234
v 1.031067 -3.116249 -9.937931
v -1.926888 -3.170847 -7.633853
v 1.02222 -2.785348 -8.634
v 0.01999061 -2.748314 -6.652627
v -0.8912929 -3.388073 -9.586295
v -5.820924 -5.026992 -11.89289
v -3.275203 -4.058116 -10.62694
v -5.168497 -4.692443 -9.897567
v -3.872726 -4.560582 -12.60416
v -5.232485 -4.715225 -11.11374
v -7.709949 -5.960529 -12.40314
v -5.753996 -5.363724 -13.11155
v -7.119793 -5.477024 -10.37788
v -4.75889 -4.640895 -11.44267
v -6.101004 -5.524877 -14.38221
v -3.940269 -4.872921 -13.65573
v -6.864428 -5.480499 -12.13793
v -7.183539 -5.437904 -9.267306
v -8.66253 -6.239049 -12.49536
v -6.395705 -5.295516 -11.71586
v -9.36134 -6.577218 -10.03901
v -3.179933 -5.133499 -14.68327
v -4.197748 -4.265412 -12.10246
v -4.975017 -5.311738 -13.69416
v -2.358172 -4.238427 -13.02315
v -2.654971 -4.607446 -14.57453
v -3.101653 -4.021199 -11.06706
v -4.578205 -4.878278 -12.94302
v -1.127584 -3.952119 -12.65838
v -5.625002 -4.718929 -9.615471
v -4.126232 -4.505117 -12.17759
v -3.648035 -4.222755 -10.14595
v -6.0488 -5.16766 -11.62918
v -4.94793 -4.790175 -12.4389
v -4.893749 -4.430961 -9.271566
v -6.407415 -5.186531 -10.76448
v -3.375988 -4.212832 -10.92677
v -8.838916 -6.311558 -11.73308
v -10.03129 -6.783457 -9.057199
v -10.59135 -7.231399 -11.03097
v -8.202324 -6.021356 -9.753024
v -10.62041 -7.19855 -12.32106
v -7.801699 -6.093683 -13.25693
v -8.806703 -6.395123 -11.27483
v -9.541641 -7.068141 -14.28292
v -7.423038 -6.693887 -14.70988
v -5.35518 -5.272469 -13.54163
v -7.162773 -5.789708 -12.99172
v -5.561834 -6.313612 -15.18804

vn 0.8803133 0.4125151 -0.2342643
vn 0.8803133 0.4125151 -0.2342643
vn 0.8850645 0.4346633 -0.1665185
vn 0.87107 0.3882619 -0.3008148
vn 0.7792825 0.5903322 -0.2103016
vn 0.7792825 0.5903322 -0.2103016
vn 0.8211379 0.5327054 -0.2048352
vn 0.7334505 0.6449468 -0.2146949
vn 0.8247797 0.2430896 -0.5105349
vn 0.8247797 0.2430896 -0.5105349
vn 0.8497891 0.1777184 -0.4962606
vn 0.7955617 0.3072203 -0.5222042
vn 0.5926765 0.7682709 -0.241856
vn 0.5926765 0.7682709 -0.241856
vn 0.5485856 0.7817906 -0.296407
vn 0.6337432 0.7508309 -0.1860708
vn 0.784237 0.328339 0.5264654
vn 0.784237 0.328339 0.5264654
vn 0.8226799 0.2757522 0.4971503
vn 0.7417923 0.3792504 0.5530941
vn 0.784237 0.328339 0.5264654
vn 0.784237 0.328339 0.5264654
vn 0.7791948 0.3899649 0.4906961
vn 0.7852774 0.2650377 0.5595483
vn 0.4303694 0.6459894 -0.63046
vn 0.4303694 0.6459894 -0.63046
vn 0.4752139 0.5937035 -0.6493749
vn 0.3833289 0.694979 -0.608328
vn -0.2524696 0.8757219 -0.411546
vn -0.2524696 0.8757219 -0.411546
vn -0.2413556 0.9059719 -0.3477963
vn -0.2622953 0.8410034 -0.4731958
vn -0.02043427 0.968677 -0.2474818
vn -0.02043427 0.968677 -0.2474818
vn 0.004200782 0.950103 -0.311908
vn -0.04496505 0.9823082 -0.1817928
vn 0.120951 0.992358 0.02442282
vn 0.120951 0.992358 0.02442282
vn 0.1318323 0.9901975 -0.04614306
vn 0.1094526 0.9894549 0.09486406
vn -0.2524697 0.8757219 -0.4115461
vn -0.2524697 0.8757219 -0.4115461
vn -0.1855214 0.8976576 -0.3997406
vn -0.3181296 0.8493177 -0.4212516
vn -0.00115817 0.9882444 -0.1528784
vn -0.00115817 0.9882444 -0.1528784
vn -0.07145653 0.9837464 -0.1647326
vn 0.0691461 0.9876995 -0.1402441
vn -0.2085068 0.8851489 -0.4159763
vn -0.2085068 0.8851489 -0.4159763
vn -0.174871 0.9160106 -0.3610326
vn -0.2410786 0.8497705 -0.4687973
vn -0.05550649 0.9867215 -0.1526428
vn -0.05550649 0.9867215 -0.1526428
vn -0.08349496 0.9926862 -0.08719302
vn -0.02723478 0.9757217 -0.2173138
vn -0.05497184 0.9772171 -0.2049991
vn -0.05497184 0.9772171 -0.2049991
vn -0.02063121 0.9894258 -0.1435639
vn -0.08903195 0.9600219 -0.2653883
vn -0.07694658 0.9799562 -0.183753
vn -0.07694658 0.9799562 -0.183753
vn -0.01612154 0.975163 -0.2209007
vn -0.137379 0.9797489 -0.1456676
vn -0.07000424 0.9955552 -0.06300381
vn -0.07000424 0.9955552 -0.06300381
vn -0.03117327 0.999509 -0.003177927
vn -0.108478 0.9865213 -0.1225082
vn 0.005859631 0.9999822 -0.001171926
vn 0.005859631 0.9999822 -0.001171926
vn 0.0754009 0.9970421 0.01488984
vn -0.06371155 0.9978196 -0.01722771
vn -0.1186935 0.9929302 -0.001163661
vn -0.1186935 0.9929302 -0.001163661
vn -0.181545 0.9828095 -0.03356529
vn -0.05523624 0.9979842 0.0312439
vn -0.1233378 0.9567437 -0.2634944
vn -0.1233378 0.9567437 -0.2634944
vn -0.1551395 0.9673493 -0.2004168
vn -0.09090675 0.941256 -0.3252275
vn -0.1056147 0.9587128 -0.2640367
vn -0.1056147 0.9587128 -0.2640367
vn -0.038993 0.9697982 -0.2407713
vn -0.1716974 0.9427353 -0.2859547
vn -0.1175307 0.964295 -0.2373215
vn -0.1175307 0.964295 -0.2373215
vn -0.05206185 0.9626088 -0.2658453
vn -0.1823997 0.9610608 -0.2075868
vn -0.06950738 0.988489 -0.134381
vn -0.06950738 0.988489 -0.134381
vn -0.0665096 0.9765529 -0.2047454
vn -0.07215046 0.995381 -0.06333078
vn 0.1925154 0.9386846 0.2860229
vn 0.1925154 0.9386846 0.2860229
vn 0.2606306 0.9192097 0.2951695
vn 0.1234179 0.9533696 0.2754168
vn 0.005827311 0.9944666 0.1048916
vn 0.005827311 0.9944666 0.1048916
vn 0.07632277 0.9926898 0.09349655
vn -0.06469788 0.9911689 0.1157513
vn 0.07456651 0.9788645 0.1904314
vn 0.07456651 0.9788645 0.1904314
vn 0.09209482 0.9882698 0.1218244
vn 0.0566577 0.9644643 0.2580666
vn 0.193346 0.9427343 0.2717892
vn 0.193346 0.9427343 0.2717892
vn 0.2452448 0.9172843 0.3137585
vn 0.1404606 0.9633738 0.2284331
vn 0.2259728 0.9360111 0.2698509
vn 0.2259728 0.9360111 0.2698509
vn 0.2949228 0.9185218 0.2633215
vn 0.1558697 0.9487242 0.2750034
vn -0.1172202 0.9436014 -0.3096382
vn -0.1172202 0.9436014 -0.3096382
vn -0.1826895 0.9421279 -0.2811038
vn -0.05115267 0.9402599 -0.3365925
vn -0.05656984 0.9653997 -0.2545644
vn -0.05656984 0.9653997 -0.2545644
vn -0.0619189 0.9807833 -0.1850133
vn -0.05093211 0.9450901 -0.3228164
vn -0.1142151 0.9554664 -0.2721007
vn -0.1142151 0.9554664 -0.2721007
vn -0.06639243 0.9727955 -0.2219478
vn -0.161455 0.9332619 -0.3208651
vn -0.2083527 0.9406532 -0.267882
vn -0.2083527 0.9406532 -0.267882
vn -0.1831585 0.9250142 -0.3328688
vn -0.2324838 0.9514923 -0.2015283
vn -0.07216545 0.947345 0.3119768
vn -0.07216545 0.947345 0.3119768
vn -0.1164644 0.9593061 0.2572306
vn -0.02749827 0.9305497 0.3651311
vn 0.1399443 0.9256737 0.3514881
vn 0.1399443 0.9256737 0.3514881
vn 0.1377102 0.9488921 0.2839713
vn 0.1414644 0.8977318 0.4172114
vn -0.1103651 0.9708503 -0.2127657
vn -0.1103651 0.9708503 -0.2127657
vn -0.1540702 0.9516113 -0.2658914
vn -0.06609689 0.9851353 -0.1585543
vn -0.1008465 0.9668583 -0.234553
vn -0.1008465 0.9668583 -0.234553
vn -0.03278186 0.966064 -0.2562138
vn -0.1683965 0.9627188 -0.2116953
vn -0.09246364 0.9740432 -0.2066163
vn -0.09246364 0.9740432 -0.2066163
vn -0.1632827 0.9647009 -0.2066174
vn -0.02117279 0.9784151 -0.205561
vn -0.1601622 0.949051 -0.2713858
vn -0.1601622 0.949051 -0.2713858
vn -0.1569323 0.9274586 -0.3394002
vn -0.1625747 0.9658005 -0.2019867
vn -0.08728135 0.9799412 -0.1791564
vn -0.08728135 0.9799412 -0.1791564
vn -0.01655993 0.9818312 -0.1890317
vn -0.1575574 0.9730509 -0.1683669
vn -0.0646942 0.9684618 -0.240617
vn -0.0646942 0.9684618 -0.240617
vn 0.006706079 0.9706092 -0.2405676
vn -0.1357643 0.9613725 -0.2394385
vn -0.0275364 0.9790121 -0.2019336
vn -0.0275364 0.9790121 -0.2019336
vn -0.01139116 0.9892071 -0.1460808
vn -0.04358569 0.965406 -0.2570829
vn -0.09871732 0.9909838 -0.09058767
vn -0.09871732 0.9909838 -0.09058767
vn -0.1526937 0.9859844 -0.06722742
vn -0.04439697 0.9925305 -0.1136323
vn -0.1058441 0.9924701 -0.06164547
vn -0.1058441 0.9924701 -0.06164547
vn -0.04703298 0.9971092 -0.05967601
vn -0.1642864 0.9843732 -0.06340015
vn -0.04580937 0.977207 -0.2072874
vn -0.04580937 0.977207 -0.2072874
vn 0.009023246 0.9734291 -0.2288109
vn -0.1004824 0.9775801 -0.1850418
vn -0.180625 0.9632745 -0.1986876
vn -0.180625 0.9632745 -0.1986876
vn -0.1358142 0.9619486 -0.2370852
vn -0.2248066 0.9612443 -0.1595977
vn -0.2458736 0.9493182 -0.1958089
vn -0.2458736 0.9493182 -0.1958089
vn -0.2032537 0.9661922 -0.1586208
vn -0.2876369 0.9291366 -0.2323147
vn -0.1602466 0.9697543 -0.184113
vn -0.1602466 0.9697543 -0.184113
vn -0.2171104 0.9610754 -0.170872
vn -0.1028244 0.9750546 -0.1967126
vn -0.1798451 0.9712559 -0.1559416
vn -0.1798451 0.9712559 -0.1559416
vn -0.162397 0.9815933 -0.1005084
vn -0.1966666 0.9575346 -0.2108316
vn -0.3091626 0.9455292 -0.1019461
vn -0.3091626 0.9455292 -0.1019461
vn -0.3340768 0.9412919 -0.04860311
vn -0.2831713 0.9464721 -0.1549339
vn -0.3796677 0.9125726 -0.1518671
vn -0.3796677 0.9125726 -0.1518671
vn -0.3526544 0.9131689 -0.2043464
vn -0.4053582 0.9087968 -0.09885873
vn -0.2786733 0.9473573 -0.1576558
vn -0.2786733 0.9473573 -0.1576558
vn -0.2266894 0.9564072 -0.1841118
vn -0.3296863 0.9350066 -0.1306506
vn -0.4136591 0.9097099 -0.03624847
vn -0.4136591 0.9097099 -0.03624847
vn -0.3648683 0.9289004 -0.06336555
vn -0.4610086 0.88735 -0.0090051
vn -0.258875 0.8800521 -0.3981105
vn -0.258875 0.8800521 -0.3981105
vn -0.3115376 0.8567343 -0.4110362
vn -0.2053104 0.9003038 -0.3837977
vn -0.2398959 0.952087 -0.1896852
vn -0.2398959 0.952087 -0.1896852
vn -0.2962821 0.935182 -0.1940405
vn -0.1826739 0.9656748 -0.1846689
vn -0.3091626 0.9455292 -0.1019461
vn -0.3091626 0.9455292 -0.1019461
vn -0.2610272 0.9626154 -0.07236242
vn -0.3562208 0.9251487 -0.1311746
vn -0.3091626 0.9455292 -0.1019461
vn -0.3091626 0.9455292 -0.1019461
vn -0.3647255 0.9258622 -0.09876514
vn -0.2525226 0.9619019 -0.1047719
vn -0.4362391 0.8991173 -0.0358264
vn -0.4362391 0.8991173 -0.0358264
vn -0.482982 0.8734908 -0.06117441
vn -0.3879762 0.9216112 -0.01035356
vn -0.393698 0.9128672 -0.108053
vn -0.393698 0.9128672 -0.108053
vn -0.3793284 0.9238079 -0.05185725
vn -0.406696 0.898746 -0.1638723
vn -0.3276 0.8369309 -0.4384347
vn -0.3276 0.8369309 -0.4384347
vn -0.3611552 0.8466405 -0.390854
vn -0.2929035 0.8243052 -0.4844878

vt 0.000569 0.507676
vt 0.486845 0.996311
vt 0.486845 0.507676
vt 0.000569 0.996311
vt 0.000569 0.507676
vt 0.486845 0.996311
vt 0.486845 0.507676
vt 0.000569 0.996311
vt 0.000569 0.507676
vt 0.486845 0.996311
vt 0.486845 0.507676
vt 0.000569 0.996311
vt 0.000569 0.507676
vt 0.486845 0.996311
vt 0.486845 0.507676
vt 0.000569 0.996311
vt 0.000569 0.507676
vt 0.486845 0.996311
vt 0.486845 0.507676
vt 0.000569 0.996311
vt 0.000569 0.507676
vt 0.486845 0.996311
vt 0.486845 0.507676
vt 0.000569 0.996311
vt 0.000569 0.507676
vt 0.486845 0.996311
vt 0.486845 0.507676
vt 0.000569 0.996311
vt 0.000569 0.507676
vt 0.486845 0.996311
vt 0.486845 0.507676
vt 0.000569 0.996311
vt 0.000569 0.507676
vt 0.486845 0.996311
vt 0.486845 0.507676
vt 0.000569 0.996311
vt 0.000569 0.507676
vt 0.486845 0.996311
vt 0.486845 0.507676
vt 0.000569 0.996311
vt 0.000569 0.507676
vt 0.486845 0.996311
vt 0.486845 0.507676
vt 0.000569 0.996311
vt 0.000569 0.507676
vt 0.486845 0.996311
vt 0.486845 0.507676
vt 0.000569 0.996311
vt 0.000569 0.507676
vt 0.486845 0.996311
vt 0.486845 0.507676
vt 0.000569 0.996311
vt 0.000569 0.507676
vt 0.486845 0.996311
vt 0.486845 0.507676
vt 0.000569 0.996311
vt 0.000569 0.507676
vt 0.486845 0.996311
vt 0.486845 0.507676
vt 0.000569 0.996311
vt 0.000569 0.507676
vt 0.486845 0.996311
vt 0.486845 0.507676
vt 0.000569 0.996311
vt 0.000569 0.507676
vt 0.486845 0.996311
vt 0.486845 0.507676
vt 0.000569 0.996311
vt 0.000569 0.507676
vt 0.486845 0.996311
vt 0.486845 0.507676
vt 0.000569 0.996311
vt 0.000569 0.507676
vt 0.486845 0.996311
vt 0.486845 0.507676
vt 0.000569 0.996311
vt 0.000569 0.507676
vt 0.486845 0.996311
vt 0.486845 0.507676
vt 0.000569 0.996311
vt 0.000569 0.507676
vt 0.486845 0.996311
vt 0.486845 0.507676
vt 0.000569 0.996311
vt 0.000569 0.507676
vt 0.486845 0.996311
vt 0.486845 0.507676
vt 0.000569 0.996311
vt 0.000569 0.507676
vt 0.486845 0.996311
vt 0.486845 0.507676
vt 0.000569 0.996311
vt 0.000569 0.507676
vt 0.486845 0.996311
vt 0.486845 0.507676
vt 0.000569 0.996311
vt 0.000569 0.507676
vt 0.486845 0.996311
vt 0.486845 0.507676
vt 0.000569 0.996311
vt 0.000569 0.507676
vt 0.486845 0.996311
vt 0.486845 0.507676
vt 0.000569 0.996311
vt 0.000569 0.507676
vt 0.486845 0.996311
vt 0.486845 0.507676
vt 0.000569 0.996311
vt 0.000569 0.507676
vt 0.486845 0.996311
vt 0.486845 0.507676
vt 0.000569 0.996311
vt 0.000569 0.507676
vt 0.486845 0.996311
vt 0.486845 0.507676
vt 0.000569 0.996311
vt 0.000569 0.507676
vt 0.486845 0.996311
vt 0.486845 0.507676
vt 0.000569 0.996311
vt 0.000569 0.507676
vt 0.486845 0.996311
vt 0.486845 0.507676
vt 0.000569 0.996311
vt 0.000569 0.507676
vt 0.486845 0.996311
vt 0.486845 0.507676
vt 0.000569 0.996311
vt 0.000569 0.507676
vt 0.486845 0.996311
vt 0.486845 0.507676
vt 0.000569 0.996311
vt 0.000569 0.507676
vt 0.486845 0.996311
vt 0.486845 0.507676
vt 0.000569 0.996311
vt 0.000569 0.507676
vt 0.486845 0.996311
vt 0.486845 0.507676
vt 0.000569 0.996311
vt 0.000569 0.507676
vt 0.486845 0.996311
vt 0.486845 0.507676
vt 0.000569 0.996311
vt 0.000569 0.507676
vt 0.486845 0.996311
vt 0.486845 0.507676
vt 0.000569 0.996311
vt 0.000569 0.507676
vt 0.486845 0.996311
vt 0.486845 0.507676
vt 0.000569 0.996311
vt 0.000569 0.507676
vt 0.486845 0.996311
vt 0.486845 0.507676
vt 0.000569 0.996311
vt 0.000569 0.507676
vt 0.486845 0.996311
vt 0.486845 0.507676
vt 0.000569 0.996311
vt 0.506678 0.003301
vt 0.995032 0.491499
vt 0.995032 0.003301
vt 0.506678 0.491499
vt 0.506678 0.003301
vt 0.995032 0.491499
vt 0.995032 0.003301
vt 0.506678 0.491499
vt 0.506678 0.003301
vt 0.995032 0.491499
vt 0.995032 0.003301
vt 0.506678 0.491499
vt 0.506678 0.003301
vt 0.995032 0.491499
vt 0.995032 0.003301
vt 0.506678 0.491499
vt 0.506678 0.003301
vt 0.995032 0.491499
vt 0.995032 0.003301
vt 0.506678 0.491499
vt 0.506678 0.003301
vt 0.995032 0.491499
vt 0.995032 0.003301
vt 0.506678 0.491499
vt 0.506678 0.003301
vt 0.995032 0.491499
vt 0.995032 0.003301
vt 0.506678 0.491499
vt 0.506678 0.003301
vt 0.995032 0.491499
vt 0.995032 0.003301
vt 0.506678 0.491499
vt 0.506678 0.003301
vt 0.995032 0.491499
vt 0.995032 0.003301
vt 0.506678 0.491499
vt 0.506678 0.003301
vt 0.995032 0.491499
vt 0.995032 0.003301
vt 0.506678 0.491499
vt 0.506678 0.003301
vt 0.995032 0.491499
vt 0.995032 0.003301
vt 0.506678 0.491499
vt 0.506678 0.003301
vt 0.995032 0.491499
vt 0.995032 0.003301
vt 0.506678 0.491499
vt 0.506678 0.003301
vt 0.995032 0.491499
vt 0.995032 0.003301
vt 0.506678 0.491499
vt 0.506678 0.003301
vt 0.995032 0.491499
vt 0.995032 0.003301
vt 0.506678 0.491499
vt 0.506678 0.003301
vt 0.995032 0.491499
vt 0.995032 0.003301
vt 0.506678 0.491499
vt 0.506678 0.003301
vt 0.995032 0.491499
vt 0.995032 0.003301
vt 0.506678 0.491499
vt 0.506678 0.003301
vt 0.995032 0.491499
vt 0.995032 0.003301
vt 0.506678 0.491499
vt 0.506678 0.003301
vt 0.995032 0.491499
vt 0.995032 0.003301
vt 0.506678 0.491499
vt 0.506678 0.003301
vt 0.995032 0.491499
vt 0.995032 0.003301
vt 0.506678 0.491499




usemtl TI_OrgGround_01_Dif
usemap TI_OrgGround_01_Dif
f 1/1/1 3/3/3 2/2/2
f 1/1/1 2/2/2 4/4/4
f 5/5/5 7/7/7 6/6/6
f 5/5/5 6/6/6 8/8/8
f 9/9/9 11/11/11 10/10/10
f 9/9/9 10/10/10 12/12/12
f 13/13/13 15/15/15 14/14/14
f 13/13/13 14/14/14 16/16/16
f 17/17/17 19/19/19 18/18/18
f 17/17/17 18/18/18 20/20/20
f 21/21/21 23/23/23 22/22/22
f 21/21/21 22/22/22 24/24/24
f 25/25/25 27/27/27 26/26/26
f 25/25/25 26/26/26 28/28/28
f 29/29/29 31/31/31 30/30/30
f 29/29/29 30/30/30 32/32/32
f 33/33/33 35/35/35 34/34/34
f 33/33/33 34/34/34 36/36/36
f 37/37/37 39/39/39 38/38/38
f 37/37/37 38/38/38 40/40/40
f 41/41/41 43/43/43 42/42/42
f 41/41/41 42/42/42 44/44/44
f 45/45/45 47/47/47 46/46/46
f 45/45/45 46/46/46 48/48/48
f 49/49/49 51/51/51 50/50/50
f 49/49/49 50/50/50 52/52/52
f 53/53/53 55/55/55 54/54/54
f 53/53/53 54/54/54 56/56/56
f 57/57/57 59/59/59 58/58/58
f 57/57/57 58/58/58 60/60/60
f 61/61/61 63/63/63 62/62/62
f 61/61/61 62/62/62 64/64/64
f 65/65/65 67/67/67 66/66/66
f 65/65/65 66/66/66 68/68/68
f 69/69/69 71/71/71 70/70/70
f 69/69/69 70/70/70 72/72/72
f 73/73/73 75/75/75 74/74/74
f 73/73/73 74/74/74 76/76/76
f 77/77/77 79/79/79 78/78/78
f 77/77/77 78/78/78 80/80/80
f 81/81/81 83/83/83 82/82/82
f 81/81/81 82/82/82 84/84/84
f 85/85/85 87/87/87 86/86/86
f 85/85/85 86/86/86 88/88/88
f 89/89/89 91/91/91 90/90/90
f 89/89/89 90/90/90 92/92/92
f 93/93/93 95/95/95 94/94/94
f 93/93/93 94/94/94 96/96/96
f 97/97/97 99/99/99 98/98/98
f 97/97/97 98/98/98 100/100/100
f 101/101/101 103/103/103 102/102/102
f 101/101/101 102/102/102 104/104/104
f 105/105/105 107/107/107 106/106/106
f 105/105/105 106/106/106 108/108/108
f 109/109/109 111/111/111 110/110/110
f 109/109/109 110/110/110 112/112/112
f 113/113/113 115/115/115 114/114/114
f 113/113/113 114/114/114 116/116/116
f 117/117/117 119/119/119 118/118/118
f 117/117/117 118/118/118 120/120/120
f 121/121/121 123/123/123 122/122/122
f 121/121/121 122/122/122 124/124/124
f 125/125/125 127/127/127 126/126/126
f 125/125/125 126/126/126 128/128/128
f 129/129/129 131/131/131 130/130/130
f 129/129/129 130/130/130 132/132/132
f 133/133/133 135/135/135 134/134/134
f 133/133/133 134/134/134 136/136/136
f 137/137/137 139/139/139 138/138/138
f 137/137/137 138/138/138 140/140/140
f 141/141/141 143/143/143 142/142/142
f 141/141/141 142/142/142 144/144/144
f 145/145/145 147/147/147 146/146/146
f 145/145/145 146/146/146 148/148/148
f 149/149/149 151/151/151 150/150/150
f 149/149/149 150/150/150 152/152/152
f 153/153/153 155/155/155 154/154/154
f 153/153/153 154/154/154 156/156/156
f 157/157/157 159/159/159 158/158/158
f 157/157/157 158/158/158 160/160/160
f 161/161/161 163/163/163 162/162/162
f 161/161/161 162/162/162 164/164/164
f 165/165/165 167/167/167 166/166/166
f 165/165/165 166/166/166 168/168/168
f 169/169/169 171/171/171 170/170/170
f 169/169/169 170/170/170 172/172/172
f 173/173/173 175/175/175 174/174/174
f 173/173/173 174/174/174 176/176/176
f 177/177/177 179/179/179 178/178/178
f 177/177/177 178/178/178 180/180/180
f 181/181/181 183/183/183 182/182/182
f 181/181/181 182/182/182 184/184/184
f 185/185/185 187/187/187 186/186/186
f 185/185/185 186/186/186 188/188/188
f 189/189/189 191/191/191 190/190/190
f 189/189/189 190/190/190 192/192/192
f 193/193/193 195/195/195 194/194/194
f 193/193/193 194/194/194 196/196/196
f 197/197/197 199/199/199 198/198/198
f 197/197/197 198/198/198 200/200/200
f 201/201/201 203/203/203 202/202/202
f 201/201/201 202/202/202 204/204/204
f 205/205/205 207/207/207 206/206/206
f 205/205/205 206/206/206 208/208/208
f 209/209/209 211/211/211 210/210/210
f 209/209/209 210/210/210 212/212/212
f 213/213/213 215/215/215 214/214/214
f 213/213/213 214/214/214 216/216/216
f 217/217/217 219/219/219 218/218/218
f 217/217/217 218/218/218 220/220/220
f 221/221/221 223/223/223 222/222/222
f 221/221/221 222/222/222 224/224/224
f 225/225/225 227/227/227 226/226/226
f 225/225/225 226/226/226 228/228/228
f 229/229/229 231/231/231 230/230/230
f 229/229/229 230/230/230 232/232/232
f 233/233/233 235/235/235 234/234/234
f 233/233/233 234/234/234 236/236/236

